M48
; DRILL file {KiCad 9.0.6-9.0.6~ubuntu24.04.1} date 2026-01-11T20:31:48-0300
; FORMAT={-:-/ absolute / metric / decimal}
; #@! TF.CreationDate,2026-01-11T20:31:48-03:00
; #@! TF.GenerationSoftware,Kicad,Pcbnew,9.0.6-9.0.6~ubuntu24.04.1
; #@! TF.FileFunction,Plated,1,2,PTH
FMAT,2
METRIC
; #@! TA.AperFunction,Plated,PTH,ViaDrill
T1C0.200
; #@! TA.AperFunction,Plated,PTH,ViaDrill
T2C0.300
; #@! TA.AperFunction,Plated,PTH,ComponentDrill
T3C1.000
; #@! TA.AperFunction,Plated,PTH,ComponentDrill
T4C2.690
; #@! TA.AperFunction,Plated,PTH,ViaDrill
T5C5.000
%
G90
G05
T1
X173.5Y-64.5
X173.871Y-63.907
X174.5Y-63.5
T2
X95.0Y-219.0
X98.0Y-78.599
X98.0Y-82.0
X106.0Y-139.5
X106.5Y-135.5
X107.25Y-123.25
X107.45Y-139.5
X107.5Y-136.5
X107.75Y-130.25
X108.1Y-134.0
X109.502Y-132.727
X110.557Y-132.674
X111.0Y-129.5
X111.0Y-131.0
X111.0Y-137.5
X111.422Y-128.726
X112.0Y-145.5
X112.5Y-118.0
X114.0Y-117.399
X115.0Y-143.6
X115.0Y-145.5
X116.215Y-128.726
X118.0Y-129.5
X118.0Y-133.0
X118.0Y-145.45
X118.55Y-148.501
X121.5Y-133.0
X122.0Y-135.5
X123.5Y-134.0
X127.0Y-104.5
X133.499Y-122.75
X133.5Y-99.191
X133.546Y-89.454
X133.551Y-78.251
X134.0Y-102.5
X134.003Y-122.129
X134.5Y-91.169
X134.601Y-77.0
X135.0Y-80.0
X136.37Y-122.15
X136.97Y-122.762
X137.331Y-91.169
X138.5Y-102.5
X171.5Y-222.92
X171.9Y-79.0
X171.999Y-64.5
X173.1Y-72.875
X173.25Y-76.4
X173.3Y-67.5
X174.05Y-76.4
X174.85Y-76.4
X175.3Y-63.6
X175.327Y-67.5
X175.5Y-81.5
X175.525Y-72.875
X175.65Y-76.4
X176.0Y-75.5
X176.066Y-80.934
X176.714Y-80.465
X177.5Y-80.0
X188.797Y-67.5
X189.0Y-72.875
X190.793Y-67.5
X194.5Y-63.6
X195.311Y-67.5
X195.5Y-62.4
X197.5Y-76.0
X204.808Y-67.501
X205.813Y-67.5
X208.314Y-67.5
X208.5Y-72.867
X213.581Y-72.837
X220.333Y-67.5
X223.537Y-72.832
X223.818Y-67.5
X225.508Y-72.855
X225.799Y-67.5
X230.0Y-71.0
X230.086Y-72.875
X230.306Y-67.5
X232.0Y-71.0
X239.488Y-73.0
X239.821Y-67.5
X244.0Y-223.0
X252.5Y-223.0
X263.0Y-61.5
X266.0Y-61.5
X266.5Y-58.5
X269.0Y-58.5
X290.587Y-223.0
X303.88Y-182.62
X305.192Y-181.4
X311.19Y-182.0
X327.095Y-197.905
X329.0Y-196.5
X329.46Y-198.04
X331.5Y-223.0
X333.0Y-208.5
X349.5Y-208.5
X360.0Y-222.92
T3
X70.54Y-222.92
X70.8Y-219.0
X73.08Y-222.92
X73.14Y-200.0
X73.14Y-202.54
X73.34Y-219.0
X75.62Y-222.92
X75.68Y-200.0
X75.68Y-202.54
X75.88Y-219.0
X78.16Y-222.92
X78.22Y-200.0
X78.22Y-202.54
X78.42Y-219.0
X80.7Y-222.92
X80.76Y-200.0
X80.76Y-202.54
X80.96Y-219.0
X82.5Y-113.0
X82.5Y-115.54
X82.5Y-118.08
X82.5Y-120.62
X82.5Y-123.16
X82.5Y-125.7
X82.5Y-128.24
X82.5Y-130.78
X82.5Y-133.32
X82.5Y-135.86
X82.5Y-138.4
X82.5Y-140.94
X83.24Y-222.92
X83.3Y-200.0
X83.3Y-202.54
X83.5Y-219.0
X85.04Y-113.0
X85.04Y-115.54
X85.04Y-118.08
X85.04Y-120.62
X85.04Y-123.16
X85.04Y-125.7
X85.04Y-128.24
X85.04Y-130.78
X85.04Y-133.32
X85.04Y-135.86
X85.04Y-138.4
X85.04Y-140.94
X85.78Y-222.92
X85.84Y-200.0
X85.84Y-202.54
X86.04Y-219.0
X88.32Y-222.92
X88.38Y-200.0
X88.38Y-202.54
X88.58Y-219.0
X90.86Y-222.92
X90.92Y-200.0
X90.92Y-202.54
X91.12Y-219.0
X92.24Y-210.5
X92.24Y-213.04
X93.4Y-222.92
X93.46Y-200.0
X93.46Y-202.54
X93.66Y-219.0
X94.78Y-210.5
X94.78Y-213.04
X95.94Y-222.92
X96.0Y-200.0
X96.0Y-202.54
X96.2Y-219.0
X98.48Y-222.92
X98.54Y-200.0
X98.54Y-202.54
X98.74Y-219.0
X101.02Y-222.92
X101.08Y-200.0
X101.08Y-202.54
X101.28Y-219.0
X103.56Y-222.92
X103.62Y-200.0
X103.62Y-202.54
X103.82Y-219.0
X106.1Y-222.92
X106.16Y-200.0
X106.16Y-202.54
X106.36Y-219.0
X108.64Y-222.92
X108.7Y-200.0
X108.7Y-202.54
X108.9Y-219.0
X111.18Y-222.92
X111.24Y-200.0
X111.24Y-202.54
X111.44Y-219.0
X113.72Y-222.92
X113.78Y-200.0
X113.78Y-202.54
X113.98Y-219.0
X116.26Y-222.92
X116.32Y-200.0
X116.32Y-202.54
X116.52Y-219.0
X118.8Y-222.92
X118.86Y-200.0
X118.86Y-202.54
X119.06Y-219.0
X121.4Y-200.0
X121.4Y-202.54
X123.94Y-200.0
X123.94Y-202.54
X126.48Y-200.0
X126.48Y-202.54
X129.02Y-200.0
X129.02Y-202.54
X131.56Y-200.0
X131.56Y-202.54
X134.1Y-200.0
X134.1Y-202.54
X136.64Y-200.0
X136.64Y-202.54
X139.18Y-200.0
X139.18Y-202.54
X141.72Y-200.0
X141.72Y-202.54
X144.26Y-200.0
X144.26Y-202.54
X146.8Y-200.0
X146.8Y-202.54
X149.34Y-200.0
X149.34Y-202.54
X151.88Y-200.0
X151.88Y-202.54
X154.42Y-200.0
X154.42Y-202.54
X156.96Y-200.0
X156.96Y-202.54
X159.5Y-200.0
X159.5Y-202.54
X162.04Y-200.0
X162.04Y-202.54
X164.58Y-200.0
X164.58Y-202.54
X167.12Y-200.0
X167.12Y-202.54
X169.66Y-200.0
X169.66Y-202.54
X172.2Y-200.0
X172.2Y-202.54
X191.5Y-200.0
X191.5Y-202.54
X191.779Y-218.92
X191.839Y-222.92
X194.04Y-200.0
X194.04Y-202.54
X194.319Y-218.92
X194.379Y-222.92
X196.58Y-200.0
X196.58Y-202.54
X196.859Y-218.92
X196.919Y-222.92
X199.12Y-200.0
X199.12Y-202.54
X199.399Y-218.92
X199.459Y-222.92
X201.66Y-200.0
X201.66Y-202.54
X201.939Y-218.92
X201.999Y-222.92
X204.2Y-200.0
X204.2Y-202.54
X204.479Y-218.92
X204.539Y-222.92
X206.74Y-200.0
X206.74Y-202.54
X207.019Y-218.92
X207.079Y-222.92
X209.28Y-200.0
X209.28Y-202.54
X209.559Y-218.92
X209.619Y-222.92
X211.82Y-200.0
X211.82Y-202.54
X212.099Y-218.92
X212.159Y-222.92
X212.333Y-210.046
X212.333Y-212.586
X214.36Y-200.0
X214.36Y-202.54
X214.639Y-218.92
X214.699Y-222.92
X214.873Y-210.046
X214.873Y-212.586
X216.9Y-200.0
X216.9Y-202.54
X217.179Y-218.92
X217.239Y-222.92
X217.413Y-210.046
X217.413Y-212.586
X219.44Y-200.0
X219.44Y-202.54
X219.719Y-218.92
X219.779Y-222.92
X221.98Y-200.0
X221.98Y-202.54
X222.259Y-218.92
X222.319Y-222.92
X224.52Y-200.0
X224.52Y-202.54
X224.799Y-218.92
X224.859Y-222.92
X227.06Y-200.0
X227.06Y-202.54
X227.339Y-218.92
X227.399Y-222.92
X229.6Y-200.0
X229.6Y-202.54
X229.879Y-218.92
X229.939Y-222.92
X232.14Y-200.0
X232.14Y-202.54
X232.419Y-218.92
X232.479Y-222.92
X234.68Y-200.0
X234.68Y-202.54
X234.959Y-218.92
X235.019Y-222.92
X237.22Y-200.0
X237.22Y-202.54
X237.499Y-218.92
X237.559Y-222.92
X239.76Y-200.0
X239.76Y-202.54
X240.039Y-218.92
X240.099Y-222.92
X242.3Y-200.0
X242.3Y-202.54
X244.84Y-200.0
X244.84Y-202.54
X247.38Y-200.0
X247.38Y-202.54
X249.92Y-200.0
X249.92Y-202.54
X252.46Y-200.0
X252.46Y-202.54
X255.0Y-200.0
X255.0Y-202.54
X257.54Y-200.0
X257.54Y-202.54
X260.08Y-200.0
X260.08Y-202.54
X262.62Y-200.0
X262.62Y-202.54
X265.16Y-200.0
X265.16Y-202.54
X267.7Y-200.0
X267.7Y-202.54
X270.24Y-200.0
X270.24Y-202.54
X272.78Y-200.0
X272.78Y-202.54
X275.32Y-200.0
X275.32Y-202.54
X277.86Y-200.0
X277.86Y-202.54
X280.4Y-200.0
X280.4Y-202.54
X282.94Y-200.0
X282.94Y-202.54
X283.0Y-125.0
X283.0Y-127.54
X283.0Y-130.08
X283.0Y-132.62
X283.0Y-135.16
X283.0Y-137.7
X283.0Y-140.24
X283.0Y-142.78
X284.44Y-50.0
X284.44Y-52.54
X285.48Y-200.0
X285.48Y-202.54
X285.54Y-125.0
X285.54Y-127.54
X285.54Y-130.08
X285.54Y-132.62
X285.54Y-135.16
X285.54Y-137.7
X285.54Y-140.24
X285.54Y-142.78
X286.98Y-50.0
X286.98Y-52.54
X288.02Y-200.0
X288.02Y-202.54
X289.52Y-50.0
X289.52Y-52.54
X290.56Y-200.0
X290.56Y-202.54
X292.06Y-50.0
X292.06Y-52.54
X294.6Y-50.0
X294.6Y-52.54
X297.14Y-50.0
X297.14Y-52.54
X299.68Y-50.0
X299.68Y-52.54
X302.22Y-50.0
X302.22Y-52.54
X304.76Y-50.0
X304.76Y-52.54
X307.3Y-50.0
X307.3Y-52.54
X309.84Y-50.0
X309.84Y-52.54
X311.1Y-200.0
X311.1Y-202.54
X312.38Y-50.0
X312.38Y-52.54
X313.64Y-200.0
X313.64Y-202.54
X314.92Y-50.0
X314.92Y-52.54
X316.18Y-200.0
X316.18Y-202.54
X317.46Y-50.0
X317.46Y-52.54
X318.72Y-200.0
X318.72Y-202.54
X320.0Y-50.0
X320.0Y-52.54
X321.26Y-200.0
X321.26Y-202.54
X323.8Y-200.0
X323.8Y-202.54
X326.34Y-200.0
X326.34Y-202.54
X328.88Y-200.0
X328.88Y-202.54
X331.42Y-200.0
X331.42Y-202.54
X333.96Y-200.0
X333.96Y-202.54
X335.0Y-219.0
X335.01Y-222.92
X336.5Y-200.0
X336.5Y-202.54
X337.54Y-219.0
X337.55Y-222.92
X339.04Y-200.0
X339.04Y-202.54
X340.08Y-219.0
X340.09Y-222.92
X341.58Y-200.0
X341.58Y-202.54
X342.62Y-219.0
X342.63Y-222.92
X343.92Y-210.5
X343.92Y-213.04
X344.12Y-200.0
X344.12Y-202.54
X345.16Y-219.0
X345.17Y-222.92
X346.46Y-210.5
X346.46Y-213.04
X346.66Y-200.0
X346.66Y-202.54
X347.7Y-219.0
X347.71Y-222.92
X349.2Y-200.0
X349.2Y-202.54
X350.24Y-219.0
X350.25Y-222.92
X351.74Y-200.0
X351.74Y-202.54
X352.78Y-219.0
X352.79Y-222.92
X354.28Y-200.0
X354.28Y-202.54
X355.32Y-219.0
X355.33Y-222.92
X356.82Y-200.0
X356.82Y-202.54
X357.86Y-219.0
X357.87Y-222.92
X359.36Y-200.0
X359.36Y-202.54
T4
X275.5Y-51.52
X328.94Y-51.52
T5
X56.0Y-33.5
X56.0Y-130.5
X56.0Y-220.0
X181.0Y-33.5
X181.5Y-130.5
X181.5Y-220.5
X302.0Y-33.5
X302.0Y-131.0
X302.0Y-220.5
X373.5Y-132.0
X373.5Y-220.5
X374.0Y-32.5
T3
X58.0Y-53.5G85X58.0Y-55.5
G05
X60.0Y-59.2G85X62.0Y-59.2
G05
X64.0Y-53.5G85X64.0Y-55.5
G05
M30
