%TF.GenerationSoftware,KiCad,Pcbnew,9.0.6-9.0.6~ubuntu24.04.1*%
%TF.CreationDate,2026-01-11T20:31:44-03:00*%
%TF.ProjectId,KEPR,4b455052-2e6b-4696-9361-645f70636258,0.6*%
%TF.SameCoordinates,Original*%
%TF.FileFunction,Soldermask,Bot*%
%TF.FilePolarity,Negative*%
%FSLAX46Y46*%
G04 Gerber Fmt 4.6, Leading zero omitted, Abs format (unit mm)*
G04 Created by KiCad (PCBNEW 9.0.6-9.0.6~ubuntu24.04.1) date 2026-01-11 20:31:44*
%MOMM*%
%LPD*%
G01*
G04 APERTURE LIST*
G04 Aperture macros list*
%AMRoundRect*
0 Rectangle with rounded corners*
0 $1 Rounding radius*
0 $2 $3 $4 $5 $6 $7 $8 $9 X,Y pos of 4 corners*
0 Add a 4 corners polygon primitive as box body*
4,1,4,$2,$3,$4,$5,$6,$7,$8,$9,$2,$3,0*
0 Add four circle primitives for the rounded corners*
1,1,$1+$1,$2,$3*
1,1,$1+$1,$4,$5*
1,1,$1+$1,$6,$7*
1,1,$1+$1,$8,$9*
0 Add four rect primitives between the rounded corners*
20,1,$1+$1,$2,$3,$4,$5,0*
20,1,$1+$1,$4,$5,$6,$7,0*
20,1,$1+$1,$6,$7,$8,$9,0*
20,1,$1+$1,$8,$9,$2,$3,0*%
G04 Aperture macros list end*
%ADD10R,0.350000X2.500000*%
%ADD11C,1.800000*%
%ADD12R,1.700000X1.700000*%
%ADD13C,1.700000*%
%ADD14RoundRect,0.250000X-0.600000X-0.600000X0.600000X-0.600000X0.600000X0.600000X-0.600000X0.600000X0*%
%ADD15RoundRect,0.250000X0.600000X-0.600000X0.600000X0.600000X-0.600000X0.600000X-0.600000X-0.600000X0*%
%ADD16C,8.000000*%
%ADD17R,3.500000X3.500000*%
%ADD18RoundRect,0.750000X-0.750000X-1.000000X0.750000X-1.000000X0.750000X1.000000X-0.750000X1.000000X0*%
%ADD19RoundRect,0.875000X-0.875000X-0.875000X0.875000X-0.875000X0.875000X0.875000X-0.875000X0.875000X0*%
%ADD20C,1.600000*%
%ADD21C,1.100000*%
G04 APERTURE END LIST*
D10*
%TO.C,J13*%
X159575000Y23800000D03*
X160075000Y23800000D03*
X160575000Y23800000D03*
X161075000Y23800000D03*
X161575000Y23800000D03*
X162075000Y23800000D03*
X162575000Y23800000D03*
X163075000Y23800000D03*
X163575000Y23800000D03*
X164075000Y23800000D03*
X164575000Y23800000D03*
X165075000Y23800000D03*
X165575000Y23800000D03*
X166075000Y23800000D03*
X166575000Y23800000D03*
X167075000Y23800000D03*
X167575000Y23800000D03*
X168075000Y23800000D03*
X168575000Y23800000D03*
X169075000Y23800000D03*
X169575000Y23800000D03*
X170075000Y23800000D03*
X170575000Y23800000D03*
X171075000Y23800000D03*
X171575000Y23800000D03*
X172075000Y23800000D03*
X172575000Y23800000D03*
X173075000Y23800000D03*
X173575000Y23800000D03*
X174075000Y23800000D03*
X174575000Y23800000D03*
X175075000Y23800000D03*
X175575000Y23800000D03*
X176075000Y23800000D03*
X176575000Y23800000D03*
X177075000Y23800000D03*
X177575000Y23800000D03*
X178075000Y23800000D03*
X178575000Y23800000D03*
X179075000Y23800000D03*
X179575000Y23800000D03*
X180075000Y23800000D03*
X180575000Y23800000D03*
X181075000Y23800000D03*
X181575000Y23800000D03*
X182075000Y23800000D03*
X182575000Y23800000D03*
X183075000Y23800000D03*
X183575000Y23800000D03*
X184075000Y23800000D03*
X184575000Y23800000D03*
X185075000Y23800000D03*
X185575000Y23800000D03*
X186075000Y23800000D03*
X186575000Y23800000D03*
X187075000Y23800000D03*
X187575000Y23800000D03*
X188075000Y23800000D03*
X188575000Y23800000D03*
X189075000Y23800000D03*
X189575000Y23800000D03*
X190075000Y23800000D03*
X190575000Y23800000D03*
X191075000Y23800000D03*
X191575000Y23800000D03*
X192075000Y23800000D03*
X192575000Y23800000D03*
X193075000Y23800000D03*
X193575000Y23800000D03*
X194075000Y23800000D03*
X194575000Y23800000D03*
X195075000Y23800000D03*
X197575000Y23800000D03*
X198075000Y23800000D03*
X198575000Y23800000D03*
X199075000Y23800000D03*
X199575000Y23800000D03*
X200075000Y23800000D03*
X200575000Y23800000D03*
X201075000Y23800000D03*
X201575000Y23800000D03*
X202075000Y23800000D03*
X202575000Y23800000D03*
X203075000Y23800000D03*
X203575000Y23800000D03*
X204075000Y23800000D03*
X204575000Y23800000D03*
X205075000Y23800000D03*
X205575000Y23800000D03*
X206075000Y23800000D03*
X206575000Y23800000D03*
X207075000Y23800000D03*
X207575000Y23800000D03*
X208075000Y23800000D03*
X208575000Y23800000D03*
X209075000Y23800000D03*
X209575000Y23800000D03*
X210075000Y23800000D03*
X210575000Y23800000D03*
X211075000Y23800000D03*
X211575000Y23800000D03*
X212075000Y23800000D03*
X212575000Y23800000D03*
X213075000Y23800000D03*
X213575000Y23800000D03*
X214075000Y23800000D03*
X214575000Y23800000D03*
X215075000Y23800000D03*
X215575000Y23800000D03*
X216075000Y23800000D03*
X216575000Y23800000D03*
X217075000Y23800000D03*
X217575000Y23800000D03*
X218075000Y23800000D03*
X218575000Y23800000D03*
X219075000Y23800000D03*
X219575000Y23800000D03*
X220075000Y23800000D03*
X220575000Y23800000D03*
X221075000Y23800000D03*
X221575000Y23800000D03*
X222075000Y23800000D03*
X222575000Y23800000D03*
X223075000Y23800000D03*
X223575000Y23800000D03*
X224075000Y23800000D03*
X224575000Y23800000D03*
X225075000Y23800000D03*
X225575000Y23800000D03*
X226075000Y23800000D03*
D11*
X159900000Y28500000D03*
X225500000Y28500000D03*
%TD*%
D12*
%TO.C,J19*%
X191839449Y-222919677D03*
D13*
X194379449Y-222919677D03*
X196919449Y-222919677D03*
X199459449Y-222919677D03*
X201999449Y-222919677D03*
X204539449Y-222919677D03*
X207079449Y-222919677D03*
X209619449Y-222919677D03*
X212159449Y-222919677D03*
X214699449Y-222919677D03*
X217239449Y-222919677D03*
X219779449Y-222919677D03*
X222319449Y-222919677D03*
X224859449Y-222919677D03*
X227399449Y-222919677D03*
X229939449Y-222919677D03*
X232479449Y-222919677D03*
X235019449Y-222919677D03*
X237559449Y-222919677D03*
X240099449Y-222919677D03*
%TD*%
D12*
%TO.C,J17*%
X70540000Y-222920000D03*
D13*
X73080000Y-222920000D03*
X75620000Y-222920000D03*
X78160000Y-222920000D03*
X80700000Y-222920000D03*
X83240000Y-222920000D03*
X85780000Y-222920000D03*
X88320000Y-222920000D03*
X90860000Y-222920000D03*
X93400000Y-222920000D03*
X95940000Y-222920000D03*
X98480000Y-222920000D03*
X101020000Y-222920000D03*
X103560000Y-222920000D03*
X106100000Y-222920000D03*
X108640000Y-222920000D03*
X111180000Y-222920000D03*
X113720000Y-222920000D03*
X116260000Y-222920000D03*
X118800000Y-222920000D03*
%TD*%
D12*
%TO.C,J10*%
X191500000Y-202540000D03*
D13*
X191500000Y-200000000D03*
X194040000Y-202540000D03*
X194040000Y-200000000D03*
X196580000Y-202540000D03*
X196580000Y-200000000D03*
X199120000Y-202540000D03*
X199120000Y-200000000D03*
X201660000Y-202540000D03*
X201660000Y-200000000D03*
X204200000Y-202540000D03*
X204200000Y-200000000D03*
X206740000Y-202540000D03*
X206740000Y-200000000D03*
X209280000Y-202540000D03*
X209280000Y-200000000D03*
X211820000Y-202540000D03*
X211820000Y-200000000D03*
X214360000Y-202540000D03*
X214360000Y-200000000D03*
X216900000Y-202540000D03*
X216900000Y-200000000D03*
X219440000Y-202540000D03*
X219440000Y-200000000D03*
X221980000Y-202540000D03*
X221980000Y-200000000D03*
X224520000Y-202540000D03*
X224520000Y-200000000D03*
X227060000Y-202540000D03*
X227060000Y-200000000D03*
X229600000Y-202540000D03*
X229600000Y-200000000D03*
X232140000Y-202540000D03*
X232140000Y-200000000D03*
X234680000Y-202540000D03*
X234680000Y-200000000D03*
X237220000Y-202540000D03*
X237220000Y-200000000D03*
X239760000Y-202540000D03*
X239760000Y-200000000D03*
X242300000Y-202540000D03*
X242300000Y-200000000D03*
X244840000Y-202540000D03*
X244840000Y-200000000D03*
X247380000Y-202540000D03*
X247380000Y-200000000D03*
X249920000Y-202540000D03*
X249920000Y-200000000D03*
X252460000Y-202540000D03*
X252460000Y-200000000D03*
X255000000Y-202540000D03*
X255000000Y-200000000D03*
X257540000Y-202540000D03*
X257540000Y-200000000D03*
X260080000Y-202540000D03*
X260080000Y-200000000D03*
X262620000Y-202540000D03*
X262620000Y-200000000D03*
X265160000Y-202540000D03*
X265160000Y-200000000D03*
X267700000Y-202540000D03*
X267700000Y-200000000D03*
X270240000Y-202540000D03*
X270240000Y-200000000D03*
X272780000Y-202540000D03*
X272780000Y-200000000D03*
X275320000Y-202540000D03*
X275320000Y-200000000D03*
X277860000Y-202540000D03*
X277860000Y-200000000D03*
X280400000Y-202540000D03*
X280400000Y-200000000D03*
X282940000Y-202540000D03*
X282940000Y-200000000D03*
X285480000Y-202540000D03*
X285480000Y-200000000D03*
X288020000Y-202540000D03*
X288020000Y-200000000D03*
X290560000Y-202540000D03*
X290560000Y-200000000D03*
%TD*%
D14*
%TO.C,J3*%
X82500000Y-113000000D03*
D13*
X85040000Y-113000000D03*
X82500000Y-115540000D03*
X85040000Y-115540000D03*
X82500000Y-118080000D03*
X85040000Y-118080000D03*
X82500000Y-120620000D03*
X85040000Y-120620000D03*
X82500000Y-123160000D03*
X85040000Y-123160000D03*
X82500000Y-125700000D03*
X85040000Y-125700000D03*
X82500000Y-128240000D03*
X85040000Y-128240000D03*
X82500000Y-130780000D03*
X85040000Y-130780000D03*
X82500000Y-133320000D03*
X85040000Y-133320000D03*
X82500000Y-135860000D03*
X85040000Y-135860000D03*
X82500000Y-138400000D03*
X85040000Y-138400000D03*
X82500000Y-140940000D03*
X85040000Y-140940000D03*
%TD*%
D15*
%TO.C,J4*%
X284440000Y-52540000D03*
D13*
X284440000Y-50000000D03*
X286980000Y-52540000D03*
X286980000Y-50000000D03*
X289520000Y-52540000D03*
X289520000Y-50000000D03*
X292060000Y-52540000D03*
X292060000Y-50000000D03*
X294600000Y-52540000D03*
X294600000Y-50000000D03*
X297140000Y-52540000D03*
X297140000Y-50000000D03*
X299680000Y-52540000D03*
X299680000Y-50000000D03*
X302220000Y-52540000D03*
X302220000Y-50000000D03*
X304760000Y-52540000D03*
X304760000Y-50000000D03*
X307300000Y-52540000D03*
X307300000Y-50000000D03*
X309840000Y-52540000D03*
X309840000Y-50000000D03*
X312380000Y-52540000D03*
X312380000Y-50000000D03*
X314920000Y-52540000D03*
X314920000Y-50000000D03*
X317460000Y-52540000D03*
X317460000Y-50000000D03*
X320000000Y-52540000D03*
X320000000Y-50000000D03*
D16*
X275500000Y-51520000D03*
X328940000Y-51520000D03*
%TD*%
D12*
%TO.C,J24*%
X92240000Y-213040000D03*
D13*
X92240000Y-210500000D03*
X94780000Y-213040000D03*
X94780000Y-210500000D03*
%TD*%
D12*
%TO.C,J23*%
X335010000Y-222920000D03*
D13*
X337550000Y-222920000D03*
X340090000Y-222920000D03*
X342630000Y-222920000D03*
X345170000Y-222920000D03*
X347710000Y-222920000D03*
X350250000Y-222920000D03*
X352790000Y-222920000D03*
X355330000Y-222920000D03*
X357870000Y-222920000D03*
%TD*%
D14*
%TO.C,J5*%
X283000000Y-125000000D03*
D13*
X285540000Y-125000000D03*
X283000000Y-127540000D03*
X285540000Y-127540000D03*
X283000000Y-130080000D03*
X285540000Y-130080000D03*
X283000000Y-132620000D03*
X285540000Y-132620000D03*
X283000000Y-135160000D03*
X285540000Y-135160000D03*
X283000000Y-137700000D03*
X285540000Y-137700000D03*
X283000000Y-140240000D03*
X285540000Y-140240000D03*
X283000000Y-142780000D03*
X285540000Y-142780000D03*
%TD*%
D12*
%TO.C,J9*%
X73140000Y-202540000D03*
D13*
X73140000Y-200000000D03*
X75680000Y-202540000D03*
X75680000Y-200000000D03*
X78220000Y-202540000D03*
X78220000Y-200000000D03*
X80760000Y-202540000D03*
X80760000Y-200000000D03*
X83300000Y-202540000D03*
X83300000Y-200000000D03*
X85840000Y-202540000D03*
X85840000Y-200000000D03*
X88380000Y-202540000D03*
X88380000Y-200000000D03*
X90920000Y-202540000D03*
X90920000Y-200000000D03*
X93460000Y-202540000D03*
X93460000Y-200000000D03*
X96000000Y-202540000D03*
X96000000Y-200000000D03*
X98540000Y-202540000D03*
X98540000Y-200000000D03*
X101080000Y-202540000D03*
X101080000Y-200000000D03*
X103620000Y-202540000D03*
X103620000Y-200000000D03*
X106160000Y-202540000D03*
X106160000Y-200000000D03*
X108700000Y-202540000D03*
X108700000Y-200000000D03*
X111240000Y-202540000D03*
X111240000Y-200000000D03*
X113780000Y-202540000D03*
X113780000Y-200000000D03*
X116320000Y-202540000D03*
X116320000Y-200000000D03*
X118860000Y-202540000D03*
X118860000Y-200000000D03*
X121400000Y-202540000D03*
X121400000Y-200000000D03*
X123940000Y-202540000D03*
X123940000Y-200000000D03*
X126480000Y-202540000D03*
X126480000Y-200000000D03*
X129020000Y-202540000D03*
X129020000Y-200000000D03*
X131560000Y-202540000D03*
X131560000Y-200000000D03*
X134100000Y-202540000D03*
X134100000Y-200000000D03*
X136640000Y-202540000D03*
X136640000Y-200000000D03*
X139180000Y-202540000D03*
X139180000Y-200000000D03*
X141720000Y-202540000D03*
X141720000Y-200000000D03*
X144260000Y-202540000D03*
X144260000Y-200000000D03*
X146800000Y-202540000D03*
X146800000Y-200000000D03*
X149340000Y-202540000D03*
X149340000Y-200000000D03*
X151880000Y-202540000D03*
X151880000Y-200000000D03*
X154420000Y-202540000D03*
X154420000Y-200000000D03*
X156960000Y-202540000D03*
X156960000Y-200000000D03*
X159500000Y-202540000D03*
X159500000Y-200000000D03*
X162040000Y-202540000D03*
X162040000Y-200000000D03*
X164580000Y-202540000D03*
X164580000Y-200000000D03*
X167120000Y-202540000D03*
X167120000Y-200000000D03*
X169660000Y-202540000D03*
X169660000Y-200000000D03*
X172200000Y-202540000D03*
X172200000Y-200000000D03*
%TD*%
D17*
%TO.C,J22*%
X64000000Y-54500000D03*
D18*
X58000000Y-54500000D03*
D19*
X61000000Y-59200000D03*
%TD*%
D12*
%TO.C,J1*%
X70800000Y-219000000D03*
D13*
X73340000Y-219000000D03*
X75880000Y-219000000D03*
X78420000Y-219000000D03*
X80960000Y-219000000D03*
X83500000Y-219000000D03*
X86040000Y-219000000D03*
X88580000Y-219000000D03*
X91120000Y-219000000D03*
X93660000Y-219000000D03*
X96200000Y-219000000D03*
X98740000Y-219000000D03*
X101280000Y-219000000D03*
X103820000Y-219000000D03*
X106360000Y-219000000D03*
X108900000Y-219000000D03*
X111440000Y-219000000D03*
X113980000Y-219000000D03*
X116520000Y-219000000D03*
X119060000Y-219000000D03*
%TD*%
D12*
%TO.C,J26*%
X212333329Y-212585568D03*
D13*
X212333329Y-210045568D03*
X214873329Y-212585568D03*
X214873329Y-210045568D03*
X217413329Y-212585568D03*
X217413329Y-210045568D03*
%TD*%
D20*
%TO.C,J11*%
X172025000Y-70125000D03*
D21*
X240825000Y-70125000D03*
%TD*%
D12*
%TO.C,J16*%
X335000000Y-219000000D03*
D13*
X337540000Y-219000000D03*
X340080000Y-219000000D03*
X342620000Y-219000000D03*
X345160000Y-219000000D03*
X347700000Y-219000000D03*
X350240000Y-219000000D03*
X352780000Y-219000000D03*
X355320000Y-219000000D03*
X357860000Y-219000000D03*
%TD*%
D12*
%TO.C,J30*%
X343920000Y-213040000D03*
D13*
X343920000Y-210500000D03*
X346460000Y-213040000D03*
X346460000Y-210500000D03*
%TD*%
D12*
%TO.C,J12*%
X191779449Y-218919677D03*
D13*
X194319449Y-218919677D03*
X196859449Y-218919677D03*
X199399449Y-218919677D03*
X201939449Y-218919677D03*
X204479449Y-218919677D03*
X207019449Y-218919677D03*
X209559449Y-218919677D03*
X212099449Y-218919677D03*
X214639449Y-218919677D03*
X217179449Y-218919677D03*
X219719449Y-218919677D03*
X222259449Y-218919677D03*
X224799449Y-218919677D03*
X227339449Y-218919677D03*
X229879449Y-218919677D03*
X232419449Y-218919677D03*
X234959449Y-218919677D03*
X237499449Y-218919677D03*
X240039449Y-218919677D03*
%TD*%
D12*
%TO.C,J6*%
X359360000Y-200000000D03*
D13*
X359360000Y-202540000D03*
X356820000Y-200000000D03*
X356820000Y-202540000D03*
X354280000Y-200000000D03*
X354280000Y-202540000D03*
X351740000Y-200000000D03*
X351740000Y-202540000D03*
X349200000Y-200000000D03*
X349200000Y-202540000D03*
X346660000Y-200000000D03*
X346660000Y-202540000D03*
X344120000Y-200000000D03*
X344120000Y-202540000D03*
X341580000Y-200000000D03*
X341580000Y-202540000D03*
X339040000Y-200000000D03*
X339040000Y-202540000D03*
X336500000Y-200000000D03*
X336500000Y-202540000D03*
X333960000Y-200000000D03*
X333960000Y-202540000D03*
X331420000Y-200000000D03*
X331420000Y-202540000D03*
X328880000Y-200000000D03*
X328880000Y-202540000D03*
X326340000Y-200000000D03*
X326340000Y-202540000D03*
X323800000Y-200000000D03*
X323800000Y-202540000D03*
X321260000Y-200000000D03*
X321260000Y-202540000D03*
X318720000Y-200000000D03*
X318720000Y-202540000D03*
X316180000Y-200000000D03*
X316180000Y-202540000D03*
X313640000Y-200000000D03*
X313640000Y-202540000D03*
X311100000Y-200000000D03*
X311100000Y-202540000D03*
%TD*%
M02*
