M48
; DRILL file {KiCad 9.0.6-9.0.6~ubuntu24.04.1} date 2026-01-11T19:57:41-0300
; FORMAT={-:-/ absolute / metric / decimal}
; #@! TF.CreationDate,2026-01-11T19:57:41-03:00
; #@! TF.GenerationSoftware,Kicad,Pcbnew,9.0.6-9.0.6~ubuntu24.04.1
; #@! TF.FileFunction,Plated,1,2,PTH
FMAT,2
METRIC
; #@! TA.AperFunction,Plated,PTH,ViaDrill
T1C0.200
; #@! TA.AperFunction,Plated,PTH,ViaDrill
T2C0.300
; #@! TA.AperFunction,Plated,PTH,ComponentDrill
T3C1.000
; #@! TA.AperFunction,Plated,PTH,ComponentDrill
T4C2.690
; #@! TA.AperFunction,Plated,PTH,ViaDrill
T5C5.000
%
G90
G05
T1
X179.0Y-171.272
X179.371Y-170.679
X180.0Y-170.272
T2
X100.5Y-325.772
X103.5Y-185.371
X103.5Y-188.772
X111.5Y-246.272
X112.0Y-242.272
X112.75Y-230.022
X112.95Y-246.272
X113.0Y-243.272
X113.25Y-237.022
X113.6Y-240.772
X115.002Y-239.499
X116.057Y-239.446
X116.5Y-236.272
X116.5Y-237.772
X116.5Y-244.272
X116.922Y-235.498
X117.5Y-252.272
X118.0Y-224.772
X119.5Y-224.171
X120.5Y-250.372
X120.5Y-252.272
X121.715Y-235.498
X123.5Y-236.272
X123.5Y-239.772
X123.5Y-252.222
X124.05Y-255.273
X127.0Y-239.772
X127.5Y-242.272
X129.0Y-240.772
X132.5Y-211.272
X138.999Y-229.522
X139.0Y-205.963
X139.046Y-196.226
X139.051Y-185.023
X139.5Y-209.272
X139.503Y-228.901
X140.0Y-197.942
X140.101Y-183.772
X140.5Y-186.772
X141.87Y-228.922
X142.47Y-229.534
X142.831Y-197.942
X144.0Y-209.272
X177.0Y-329.692
X177.4Y-185.772
X177.499Y-171.272
X178.6Y-179.647
X178.75Y-183.172
X178.8Y-174.272
X179.55Y-183.172
X180.35Y-183.172
X180.8Y-170.372
X180.827Y-174.272
X181.0Y-188.272
X181.025Y-179.647
X181.15Y-183.172
X181.5Y-182.272
X181.566Y-187.707
X182.214Y-187.238
X183.0Y-186.772
X194.297Y-174.272
X194.5Y-179.647
X196.293Y-174.272
X200.0Y-170.372
X200.811Y-174.272
X201.0Y-169.172
X203.0Y-182.772
X210.308Y-174.273
X211.313Y-174.272
X213.814Y-174.272
X214.0Y-179.639
X219.081Y-179.61
X225.833Y-174.272
X229.037Y-179.605
X229.318Y-174.272
X231.008Y-179.628
X231.299Y-174.272
X235.5Y-177.772
X235.586Y-179.647
X235.806Y-174.272
X237.5Y-177.772
X244.988Y-179.772
X245.321Y-174.272
X249.5Y-329.772
X258.0Y-329.772
X268.5Y-168.272
X271.5Y-168.272
X272.0Y-165.272
X274.5Y-165.272
X296.087Y-329.772
X309.38Y-289.392
X310.692Y-288.172
X316.69Y-288.772
X332.595Y-304.677
X334.5Y-303.272
X334.96Y-304.812
X337.0Y-329.772
X338.5Y-315.272
X355.0Y-315.272
X365.5Y-329.692
T3
X76.04Y-329.692
X76.3Y-325.772
X78.58Y-329.692
X78.64Y-306.772
X78.64Y-309.312
X78.84Y-325.772
X81.12Y-329.692
X81.18Y-306.772
X81.18Y-309.312
X81.38Y-325.772
X83.66Y-329.692
X83.72Y-306.772
X83.72Y-309.312
X83.92Y-325.772
X86.2Y-329.692
X86.26Y-306.772
X86.26Y-309.312
X86.46Y-325.772
X88.0Y-219.772
X88.0Y-222.312
X88.0Y-224.852
X88.0Y-227.392
X88.0Y-229.932
X88.0Y-232.472
X88.0Y-235.012
X88.0Y-237.552
X88.0Y-240.092
X88.0Y-242.632
X88.0Y-245.172
X88.0Y-247.712
X88.74Y-329.692
X88.8Y-306.772
X88.8Y-309.312
X89.0Y-325.772
X90.54Y-219.772
X90.54Y-222.312
X90.54Y-224.852
X90.54Y-227.392
X90.54Y-229.932
X90.54Y-232.472
X90.54Y-235.012
X90.54Y-237.552
X90.54Y-240.092
X90.54Y-242.632
X90.54Y-245.172
X90.54Y-247.712
X91.28Y-329.692
X91.34Y-306.772
X91.34Y-309.312
X91.54Y-325.772
X93.82Y-329.692
X93.88Y-306.772
X93.88Y-309.312
X94.08Y-325.772
X96.36Y-329.692
X96.42Y-306.772
X96.42Y-309.312
X96.62Y-325.772
X97.74Y-317.272
X97.74Y-319.812
X98.9Y-329.692
X98.96Y-306.772
X98.96Y-309.312
X99.16Y-325.772
X100.28Y-317.272
X100.28Y-319.812
X101.44Y-329.692
X101.5Y-306.772
X101.5Y-309.312
X101.7Y-325.772
X103.98Y-329.692
X104.04Y-306.772
X104.04Y-309.312
X104.24Y-325.772
X106.52Y-329.692
X106.58Y-306.772
X106.58Y-309.312
X106.78Y-325.772
X109.06Y-329.692
X109.12Y-306.772
X109.12Y-309.312
X109.32Y-325.772
X111.6Y-329.692
X111.66Y-306.772
X111.66Y-309.312
X111.86Y-325.772
X114.14Y-329.692
X114.2Y-306.772
X114.2Y-309.312
X114.4Y-325.772
X116.68Y-329.692
X116.74Y-306.772
X116.74Y-309.312
X116.94Y-325.772
X119.22Y-329.692
X119.28Y-306.772
X119.28Y-309.312
X119.48Y-325.772
X121.76Y-329.692
X121.82Y-306.772
X121.82Y-309.312
X122.02Y-325.772
X124.3Y-329.692
X124.36Y-306.772
X124.36Y-309.312
X124.56Y-325.772
X126.9Y-306.772
X126.9Y-309.312
X129.44Y-306.772
X129.44Y-309.312
X131.98Y-306.772
X131.98Y-309.312
X134.52Y-306.772
X134.52Y-309.312
X137.06Y-306.772
X137.06Y-309.312
X139.6Y-306.772
X139.6Y-309.312
X142.14Y-306.772
X142.14Y-309.312
X144.68Y-306.772
X144.68Y-309.312
X147.22Y-306.772
X147.22Y-309.312
X149.76Y-306.772
X149.76Y-309.312
X152.3Y-306.772
X152.3Y-309.312
X154.84Y-306.772
X154.84Y-309.312
X157.38Y-306.772
X157.38Y-309.312
X159.92Y-306.772
X159.92Y-309.312
X162.46Y-306.772
X162.46Y-309.312
X165.0Y-306.772
X165.0Y-309.312
X167.54Y-306.772
X167.54Y-309.312
X170.08Y-306.772
X170.08Y-309.312
X172.62Y-306.772
X172.62Y-309.312
X175.16Y-306.772
X175.16Y-309.312
X177.7Y-306.772
X177.7Y-309.312
X197.0Y-306.772
X197.0Y-309.312
X197.279Y-325.692
X197.339Y-329.692
X199.54Y-306.772
X199.54Y-309.312
X199.819Y-325.692
X199.879Y-329.692
X202.08Y-306.772
X202.08Y-309.312
X202.359Y-325.692
X202.419Y-329.692
X204.62Y-306.772
X204.62Y-309.312
X204.899Y-325.692
X204.959Y-329.692
X207.16Y-306.772
X207.16Y-309.312
X207.439Y-325.692
X207.499Y-329.692
X209.7Y-306.772
X209.7Y-309.312
X209.979Y-325.692
X210.039Y-329.692
X212.24Y-306.772
X212.24Y-309.312
X212.519Y-325.692
X212.579Y-329.692
X214.78Y-306.772
X214.78Y-309.312
X215.059Y-325.692
X215.119Y-329.692
X217.32Y-306.772
X217.32Y-309.312
X217.599Y-325.692
X217.659Y-329.692
X217.833Y-316.818
X217.833Y-319.358
X219.86Y-306.772
X219.86Y-309.312
X220.139Y-325.692
X220.199Y-329.692
X220.373Y-316.818
X220.373Y-319.358
X222.4Y-306.772
X222.4Y-309.312
X222.679Y-325.692
X222.739Y-329.692
X222.913Y-316.818
X222.913Y-319.358
X224.94Y-306.772
X224.94Y-309.312
X225.219Y-325.692
X225.279Y-329.692
X227.48Y-306.772
X227.48Y-309.312
X227.759Y-325.692
X227.819Y-329.692
X230.02Y-306.772
X230.02Y-309.312
X230.299Y-325.692
X230.359Y-329.692
X232.56Y-306.772
X232.56Y-309.312
X232.839Y-325.692
X232.899Y-329.692
X235.1Y-306.772
X235.1Y-309.312
X235.379Y-325.692
X235.439Y-329.692
X237.64Y-306.772
X237.64Y-309.312
X237.919Y-325.692
X237.979Y-329.692
X240.18Y-306.772
X240.18Y-309.312
X240.459Y-325.692
X240.519Y-329.692
X242.72Y-306.772
X242.72Y-309.312
X242.999Y-325.692
X243.059Y-329.692
X245.26Y-306.772
X245.26Y-309.312
X245.539Y-325.692
X245.599Y-329.692
X247.8Y-306.772
X247.8Y-309.312
X250.34Y-306.772
X250.34Y-309.312
X252.88Y-306.772
X252.88Y-309.312
X255.42Y-306.772
X255.42Y-309.312
X257.96Y-306.772
X257.96Y-309.312
X260.5Y-306.772
X260.5Y-309.312
X263.04Y-306.772
X263.04Y-309.312
X265.58Y-306.772
X265.58Y-309.312
X268.12Y-306.772
X268.12Y-309.312
X270.66Y-306.772
X270.66Y-309.312
X273.2Y-306.772
X273.2Y-309.312
X275.74Y-306.772
X275.74Y-309.312
X278.28Y-306.772
X278.28Y-309.312
X280.82Y-306.772
X280.82Y-309.312
X283.36Y-306.772
X283.36Y-309.312
X285.9Y-306.772
X285.9Y-309.312
X288.44Y-306.772
X288.44Y-309.312
X288.5Y-231.772
X288.5Y-234.312
X288.5Y-236.852
X288.5Y-239.392
X288.5Y-241.932
X288.5Y-244.472
X288.5Y-247.012
X288.5Y-249.552
X289.94Y-156.772
X289.94Y-159.312
X290.98Y-306.772
X290.98Y-309.312
X291.04Y-231.772
X291.04Y-234.312
X291.04Y-236.852
X291.04Y-239.392
X291.04Y-241.932
X291.04Y-244.472
X291.04Y-247.012
X291.04Y-249.552
X292.48Y-156.772
X292.48Y-159.312
X293.52Y-306.772
X293.52Y-309.312
X295.02Y-156.772
X295.02Y-159.312
X296.06Y-306.772
X296.06Y-309.312
X297.56Y-156.772
X297.56Y-159.312
X300.1Y-156.772
X300.1Y-159.312
X302.64Y-156.772
X302.64Y-159.312
X305.18Y-156.772
X305.18Y-159.312
X307.72Y-156.772
X307.72Y-159.312
X310.26Y-156.772
X310.26Y-159.312
X312.8Y-156.772
X312.8Y-159.312
X315.34Y-156.772
X315.34Y-159.312
X316.6Y-306.772
X316.6Y-309.312
X317.88Y-156.772
X317.88Y-159.312
X319.14Y-306.772
X319.14Y-309.312
X320.42Y-156.772
X320.42Y-159.312
X321.68Y-306.772
X321.68Y-309.312
X322.96Y-156.772
X322.96Y-159.312
X324.22Y-306.772
X324.22Y-309.312
X325.5Y-156.772
X325.5Y-159.312
X326.76Y-306.772
X326.76Y-309.312
X329.3Y-306.772
X329.3Y-309.312
X331.84Y-306.772
X331.84Y-309.312
X334.38Y-306.772
X334.38Y-309.312
X336.92Y-306.772
X336.92Y-309.312
X339.46Y-306.772
X339.46Y-309.312
X340.5Y-325.772
X340.51Y-329.692
X342.0Y-306.772
X342.0Y-309.312
X343.04Y-325.772
X343.05Y-329.692
X344.54Y-306.772
X344.54Y-309.312
X345.58Y-325.772
X345.59Y-329.692
X347.08Y-306.772
X347.08Y-309.312
X348.12Y-325.772
X348.13Y-329.692
X349.42Y-317.272
X349.42Y-319.812
X349.62Y-306.772
X349.62Y-309.312
X350.66Y-325.772
X350.67Y-329.692
X351.96Y-317.272
X351.96Y-319.812
X352.16Y-306.772
X352.16Y-309.312
X353.2Y-325.772
X353.21Y-329.692
X354.7Y-306.772
X354.7Y-309.312
X355.74Y-325.772
X355.75Y-329.692
X357.24Y-306.772
X357.24Y-309.312
X358.28Y-325.772
X358.29Y-329.692
X359.78Y-306.772
X359.78Y-309.312
X360.82Y-325.772
X360.83Y-329.692
X362.32Y-306.772
X362.32Y-309.312
X363.36Y-325.772
X363.37Y-329.692
X364.86Y-306.772
X364.86Y-309.312
T4
X281.0Y-158.292
X334.44Y-158.292
T5
X61.5Y-140.272
X61.5Y-237.272
X61.5Y-326.772
X186.5Y-140.272
X187.0Y-237.272
X187.0Y-327.272
X307.5Y-140.272
X307.5Y-237.772
X307.5Y-327.272
X379.0Y-238.772
X379.0Y-327.272
X379.5Y-139.272
T3
X63.5Y-160.272G85X63.5Y-162.272
G05
X65.5Y-165.972G85X67.5Y-165.972
G05
X69.5Y-160.272G85X69.5Y-162.272
G05
M30
