%TF.GenerationSoftware,KiCad,Pcbnew,9.0.6-9.0.6~ubuntu24.04.1*%
%TF.CreationDate,2026-01-11T20:05:13-03:00*%
%TF.ProjectId,KEPR,4b455052-2e6b-4696-9361-645f70636258,0.6*%
%TF.SameCoordinates,Original*%
%TF.FileFunction,Soldermask,Bot*%
%TF.FilePolarity,Negative*%
%FSLAX46Y46*%
G04 Gerber Fmt 4.6, Leading zero omitted, Abs format (unit mm)*
G04 Created by KiCad (PCBNEW 9.0.6-9.0.6~ubuntu24.04.1) date 2026-01-11 20:05:13*
%MOMM*%
%LPD*%
G01*
G04 APERTURE LIST*
G04 Aperture macros list*
%AMRoundRect*
0 Rectangle with rounded corners*
0 $1 Rounding radius*
0 $2 $3 $4 $5 $6 $7 $8 $9 X,Y pos of 4 corners*
0 Add a 4 corners polygon primitive as box body*
4,1,4,$2,$3,$4,$5,$6,$7,$8,$9,$2,$3,0*
0 Add four circle primitives for the rounded corners*
1,1,$1+$1,$2,$3*
1,1,$1+$1,$4,$5*
1,1,$1+$1,$6,$7*
1,1,$1+$1,$8,$9*
0 Add four rect primitives between the rounded corners*
20,1,$1+$1,$2,$3,$4,$5,0*
20,1,$1+$1,$4,$5,$6,$7,0*
20,1,$1+$1,$6,$7,$8,$9,0*
20,1,$1+$1,$8,$9,$2,$3,0*%
G04 Aperture macros list end*
%ADD10C,1.800000*%
%ADD11R,0.350000X2.500000*%
%ADD12R,1.700000X1.700000*%
%ADD13C,1.700000*%
%ADD14RoundRect,0.250000X-0.600000X-0.600000X0.600000X-0.600000X0.600000X0.600000X-0.600000X0.600000X0*%
%ADD15RoundRect,0.250000X0.600000X-0.600000X0.600000X0.600000X-0.600000X0.600000X-0.600000X-0.600000X0*%
%ADD16C,8.000000*%
%ADD17R,3.500000X3.500000*%
%ADD18RoundRect,0.750000X-0.750000X-1.000000X0.750000X-1.000000X0.750000X1.000000X-0.750000X1.000000X0*%
%ADD19RoundRect,0.875000X-0.875000X-0.875000X0.875000X-0.875000X0.875000X0.875000X-0.875000X0.875000X0*%
%ADD20C,1.600000*%
%ADD21C,1.100000*%
G04 APERTURE END LIST*
D10*
%TO.C,J13*%
X243600000Y-127000000D03*
X178000000Y-127000000D03*
D11*
X244175000Y-131700000D03*
X243675000Y-131700000D03*
X243175000Y-131700000D03*
X242675000Y-131700000D03*
X242175000Y-131700000D03*
X241675000Y-131700000D03*
X241175000Y-131700000D03*
X240675000Y-131700000D03*
X240175000Y-131700000D03*
X239675000Y-131700000D03*
X239175000Y-131700000D03*
X238675000Y-131700000D03*
X238175000Y-131700000D03*
X237675000Y-131700000D03*
X237175000Y-131700000D03*
X236675000Y-131700000D03*
X236175000Y-131700000D03*
X235675000Y-131700000D03*
X235175000Y-131700000D03*
X234675000Y-131700000D03*
X234175000Y-131700000D03*
X233675000Y-131700000D03*
X233175000Y-131700000D03*
X232675000Y-131700000D03*
X232175000Y-131700000D03*
X231675000Y-131700000D03*
X231175000Y-131700000D03*
X230675000Y-131700000D03*
X230175000Y-131700000D03*
X229675000Y-131700000D03*
X229175000Y-131700000D03*
X228675000Y-131700000D03*
X228175000Y-131700000D03*
X227675000Y-131700000D03*
X227175000Y-131700000D03*
X226675000Y-131700000D03*
X226175000Y-131700000D03*
X225675000Y-131700000D03*
X225175000Y-131700000D03*
X224675000Y-131700000D03*
X224175000Y-131700000D03*
X223675000Y-131700000D03*
X223175000Y-131700000D03*
X222675000Y-131700000D03*
X222175000Y-131700000D03*
X221675000Y-131700000D03*
X221175000Y-131700000D03*
X220675000Y-131700000D03*
X220175000Y-131700000D03*
X219675000Y-131700000D03*
X219175000Y-131700000D03*
X218675000Y-131700000D03*
X218175000Y-131700000D03*
X217675000Y-131700000D03*
X217175000Y-131700000D03*
X216675000Y-131700000D03*
X216175000Y-131700000D03*
X215675000Y-131700000D03*
X213175000Y-131700000D03*
X212675000Y-131700000D03*
X212175000Y-131700000D03*
X211675000Y-131700000D03*
X211175000Y-131700000D03*
X210675000Y-131700000D03*
X210175000Y-131700000D03*
X209675000Y-131700000D03*
X209175000Y-131700000D03*
X208675000Y-131700000D03*
X208175000Y-131700000D03*
X207675000Y-131700000D03*
X207175000Y-131700000D03*
X206675000Y-131700000D03*
X206175000Y-131700000D03*
X205675000Y-131700000D03*
X205175000Y-131700000D03*
X204675000Y-131700000D03*
X204175000Y-131700000D03*
X203675000Y-131700000D03*
X203175000Y-131700000D03*
X202675000Y-131700000D03*
X202175000Y-131700000D03*
X201675000Y-131700000D03*
X201175000Y-131700000D03*
X200675000Y-131700000D03*
X200175000Y-131700000D03*
X199675000Y-131700000D03*
X199175000Y-131700000D03*
X198675000Y-131700000D03*
X198175000Y-131700000D03*
X197675000Y-131700000D03*
X197175000Y-131700000D03*
X196675000Y-131700000D03*
X196175000Y-131700000D03*
X195675000Y-131700000D03*
X195175000Y-131700000D03*
X194675000Y-131700000D03*
X194175000Y-131700000D03*
X193675000Y-131700000D03*
X193175000Y-131700000D03*
X192675000Y-131700000D03*
X192175000Y-131700000D03*
X191675000Y-131700000D03*
X191175000Y-131700000D03*
X190675000Y-131700000D03*
X190175000Y-131700000D03*
X189675000Y-131700000D03*
X189175000Y-131700000D03*
X188675000Y-131700000D03*
X188175000Y-131700000D03*
X187675000Y-131700000D03*
X187175000Y-131700000D03*
X186675000Y-131700000D03*
X186175000Y-131700000D03*
X185675000Y-131700000D03*
X185175000Y-131700000D03*
X184675000Y-131700000D03*
X184175000Y-131700000D03*
X183675000Y-131700000D03*
X183175000Y-131700000D03*
X182675000Y-131700000D03*
X182175000Y-131700000D03*
X181675000Y-131700000D03*
X181175000Y-131700000D03*
X180675000Y-131700000D03*
X180175000Y-131700000D03*
X179675000Y-131700000D03*
X179175000Y-131700000D03*
X178675000Y-131700000D03*
X178175000Y-131700000D03*
X177675000Y-131700000D03*
%TD*%
D12*
%TO.C,J19*%
X197339449Y-329692041D03*
D13*
X199879449Y-329692041D03*
X202419449Y-329692041D03*
X204959449Y-329692041D03*
X207499449Y-329692041D03*
X210039449Y-329692041D03*
X212579449Y-329692041D03*
X215119449Y-329692041D03*
X217659449Y-329692041D03*
X220199449Y-329692041D03*
X222739449Y-329692041D03*
X225279449Y-329692041D03*
X227819449Y-329692041D03*
X230359449Y-329692041D03*
X232899449Y-329692041D03*
X235439449Y-329692041D03*
X237979449Y-329692041D03*
X240519449Y-329692041D03*
X243059449Y-329692041D03*
X245599449Y-329692041D03*
%TD*%
D12*
%TO.C,J17*%
X76040000Y-329692364D03*
D13*
X78580000Y-329692364D03*
X81120000Y-329692364D03*
X83660000Y-329692364D03*
X86200000Y-329692364D03*
X88740000Y-329692364D03*
X91280000Y-329692364D03*
X93820000Y-329692364D03*
X96360000Y-329692364D03*
X98900000Y-329692364D03*
X101440000Y-329692364D03*
X103980000Y-329692364D03*
X106520000Y-329692364D03*
X109060000Y-329692364D03*
X111600000Y-329692364D03*
X114140000Y-329692364D03*
X116680000Y-329692364D03*
X119220000Y-329692364D03*
X121760000Y-329692364D03*
X124300000Y-329692364D03*
%TD*%
D12*
%TO.C,J10*%
X197000000Y-309312364D03*
D13*
X197000000Y-306772364D03*
X199540000Y-309312364D03*
X199540000Y-306772364D03*
X202080000Y-309312364D03*
X202080000Y-306772364D03*
X204620000Y-309312364D03*
X204620000Y-306772364D03*
X207160000Y-309312364D03*
X207160000Y-306772364D03*
X209700000Y-309312364D03*
X209700000Y-306772364D03*
X212240000Y-309312364D03*
X212240000Y-306772364D03*
X214780000Y-309312364D03*
X214780000Y-306772364D03*
X217320000Y-309312364D03*
X217320000Y-306772364D03*
X219860000Y-309312364D03*
X219860000Y-306772364D03*
X222400000Y-309312364D03*
X222400000Y-306772364D03*
X224940000Y-309312364D03*
X224940000Y-306772364D03*
X227480000Y-309312364D03*
X227480000Y-306772364D03*
X230020000Y-309312364D03*
X230020000Y-306772364D03*
X232560000Y-309312364D03*
X232560000Y-306772364D03*
X235100000Y-309312364D03*
X235100000Y-306772364D03*
X237640000Y-309312364D03*
X237640000Y-306772364D03*
X240180000Y-309312364D03*
X240180000Y-306772364D03*
X242720000Y-309312364D03*
X242720000Y-306772364D03*
X245260000Y-309312364D03*
X245260000Y-306772364D03*
X247800000Y-309312364D03*
X247800000Y-306772364D03*
X250340000Y-309312364D03*
X250340000Y-306772364D03*
X252880000Y-309312364D03*
X252880000Y-306772364D03*
X255420000Y-309312364D03*
X255420000Y-306772364D03*
X257960000Y-309312364D03*
X257960000Y-306772364D03*
X260500000Y-309312364D03*
X260500000Y-306772364D03*
X263040000Y-309312364D03*
X263040000Y-306772364D03*
X265580000Y-309312364D03*
X265580000Y-306772364D03*
X268120000Y-309312364D03*
X268120000Y-306772364D03*
X270660000Y-309312364D03*
X270660000Y-306772364D03*
X273200000Y-309312364D03*
X273200000Y-306772364D03*
X275740000Y-309312364D03*
X275740000Y-306772364D03*
X278280000Y-309312364D03*
X278280000Y-306772364D03*
X280820000Y-309312364D03*
X280820000Y-306772364D03*
X283360000Y-309312364D03*
X283360000Y-306772364D03*
X285900000Y-309312364D03*
X285900000Y-306772364D03*
X288440000Y-309312364D03*
X288440000Y-306772364D03*
X290980000Y-309312364D03*
X290980000Y-306772364D03*
X293520000Y-309312364D03*
X293520000Y-306772364D03*
X296060000Y-309312364D03*
X296060000Y-306772364D03*
%TD*%
D14*
%TO.C,J3*%
X88000000Y-219772364D03*
D13*
X90540000Y-219772364D03*
X88000000Y-222312364D03*
X90540000Y-222312364D03*
X88000000Y-224852364D03*
X90540000Y-224852364D03*
X88000000Y-227392364D03*
X90540000Y-227392364D03*
X88000000Y-229932364D03*
X90540000Y-229932364D03*
X88000000Y-232472364D03*
X90540000Y-232472364D03*
X88000000Y-235012364D03*
X90540000Y-235012364D03*
X88000000Y-237552364D03*
X90540000Y-237552364D03*
X88000000Y-240092364D03*
X90540000Y-240092364D03*
X88000000Y-242632364D03*
X90540000Y-242632364D03*
X88000000Y-245172364D03*
X90540000Y-245172364D03*
X88000000Y-247712364D03*
X90540000Y-247712364D03*
%TD*%
D15*
%TO.C,J4*%
X289940000Y-159312364D03*
D13*
X289940000Y-156772364D03*
X292480000Y-159312364D03*
X292480000Y-156772364D03*
X295020000Y-159312364D03*
X295020000Y-156772364D03*
X297560000Y-159312364D03*
X297560000Y-156772364D03*
X300100000Y-159312364D03*
X300100000Y-156772364D03*
X302640000Y-159312364D03*
X302640000Y-156772364D03*
X305180000Y-159312364D03*
X305180000Y-156772364D03*
X307720000Y-159312364D03*
X307720000Y-156772364D03*
X310260000Y-159312364D03*
X310260000Y-156772364D03*
X312800000Y-159312364D03*
X312800000Y-156772364D03*
X315340000Y-159312364D03*
X315340000Y-156772364D03*
X317880000Y-159312364D03*
X317880000Y-156772364D03*
X320420000Y-159312364D03*
X320420000Y-156772364D03*
X322960000Y-159312364D03*
X322960000Y-156772364D03*
X325500000Y-159312364D03*
X325500000Y-156772364D03*
D16*
X281000000Y-158292364D03*
X334440000Y-158292364D03*
%TD*%
D12*
%TO.C,J24*%
X97740000Y-319812364D03*
D13*
X97740000Y-317272364D03*
X100280000Y-319812364D03*
X100280000Y-317272364D03*
%TD*%
D12*
%TO.C,J23*%
X340510000Y-329692364D03*
D13*
X343050000Y-329692364D03*
X345590000Y-329692364D03*
X348130000Y-329692364D03*
X350670000Y-329692364D03*
X353210000Y-329692364D03*
X355750000Y-329692364D03*
X358290000Y-329692364D03*
X360830000Y-329692364D03*
X363370000Y-329692364D03*
%TD*%
D14*
%TO.C,J5*%
X288500000Y-231772364D03*
D13*
X291040000Y-231772364D03*
X288500000Y-234312364D03*
X291040000Y-234312364D03*
X288500000Y-236852364D03*
X291040000Y-236852364D03*
X288500000Y-239392364D03*
X291040000Y-239392364D03*
X288500000Y-241932364D03*
X291040000Y-241932364D03*
X288500000Y-244472364D03*
X291040000Y-244472364D03*
X288500000Y-247012364D03*
X291040000Y-247012364D03*
X288500000Y-249552364D03*
X291040000Y-249552364D03*
%TD*%
D12*
%TO.C,J9*%
X78640000Y-309312364D03*
D13*
X78640000Y-306772364D03*
X81180000Y-309312364D03*
X81180000Y-306772364D03*
X83720000Y-309312364D03*
X83720000Y-306772364D03*
X86260000Y-309312364D03*
X86260000Y-306772364D03*
X88800000Y-309312364D03*
X88800000Y-306772364D03*
X91340000Y-309312364D03*
X91340000Y-306772364D03*
X93880000Y-309312364D03*
X93880000Y-306772364D03*
X96420000Y-309312364D03*
X96420000Y-306772364D03*
X98960000Y-309312364D03*
X98960000Y-306772364D03*
X101500000Y-309312364D03*
X101500000Y-306772364D03*
X104040000Y-309312364D03*
X104040000Y-306772364D03*
X106580000Y-309312364D03*
X106580000Y-306772364D03*
X109120000Y-309312364D03*
X109120000Y-306772364D03*
X111660000Y-309312364D03*
X111660000Y-306772364D03*
X114200000Y-309312364D03*
X114200000Y-306772364D03*
X116740000Y-309312364D03*
X116740000Y-306772364D03*
X119280000Y-309312364D03*
X119280000Y-306772364D03*
X121820000Y-309312364D03*
X121820000Y-306772364D03*
X124360000Y-309312364D03*
X124360000Y-306772364D03*
X126900000Y-309312364D03*
X126900000Y-306772364D03*
X129440000Y-309312364D03*
X129440000Y-306772364D03*
X131980000Y-309312364D03*
X131980000Y-306772364D03*
X134520000Y-309312364D03*
X134520000Y-306772364D03*
X137060000Y-309312364D03*
X137060000Y-306772364D03*
X139600000Y-309312364D03*
X139600000Y-306772364D03*
X142140000Y-309312364D03*
X142140000Y-306772364D03*
X144680000Y-309312364D03*
X144680000Y-306772364D03*
X147220000Y-309312364D03*
X147220000Y-306772364D03*
X149760000Y-309312364D03*
X149760000Y-306772364D03*
X152300000Y-309312364D03*
X152300000Y-306772364D03*
X154840000Y-309312364D03*
X154840000Y-306772364D03*
X157380000Y-309312364D03*
X157380000Y-306772364D03*
X159920000Y-309312364D03*
X159920000Y-306772364D03*
X162460000Y-309312364D03*
X162460000Y-306772364D03*
X165000000Y-309312364D03*
X165000000Y-306772364D03*
X167540000Y-309312364D03*
X167540000Y-306772364D03*
X170080000Y-309312364D03*
X170080000Y-306772364D03*
X172620000Y-309312364D03*
X172620000Y-306772364D03*
X175160000Y-309312364D03*
X175160000Y-306772364D03*
X177700000Y-309312364D03*
X177700000Y-306772364D03*
%TD*%
D17*
%TO.C,J22*%
X69500000Y-161272364D03*
D18*
X63500000Y-161272364D03*
D19*
X66500000Y-165972364D03*
%TD*%
D12*
%TO.C,J1*%
X76300000Y-325772364D03*
D13*
X78840000Y-325772364D03*
X81380000Y-325772364D03*
X83920000Y-325772364D03*
X86460000Y-325772364D03*
X89000000Y-325772364D03*
X91540000Y-325772364D03*
X94080000Y-325772364D03*
X96620000Y-325772364D03*
X99160000Y-325772364D03*
X101700000Y-325772364D03*
X104240000Y-325772364D03*
X106780000Y-325772364D03*
X109320000Y-325772364D03*
X111860000Y-325772364D03*
X114400000Y-325772364D03*
X116940000Y-325772364D03*
X119480000Y-325772364D03*
X122020000Y-325772364D03*
X124560000Y-325772364D03*
%TD*%
D12*
%TO.C,J26*%
X217833329Y-319357932D03*
D13*
X217833329Y-316817932D03*
X220373329Y-319357932D03*
X220373329Y-316817932D03*
X222913329Y-319357932D03*
X222913329Y-316817932D03*
%TD*%
D20*
%TO.C,J11*%
X177525000Y-176897364D03*
D21*
X246325000Y-176897364D03*
%TD*%
D12*
%TO.C,J16*%
X340500000Y-325772364D03*
D13*
X343040000Y-325772364D03*
X345580000Y-325772364D03*
X348120000Y-325772364D03*
X350660000Y-325772364D03*
X353200000Y-325772364D03*
X355740000Y-325772364D03*
X358280000Y-325772364D03*
X360820000Y-325772364D03*
X363360000Y-325772364D03*
%TD*%
D12*
%TO.C,J30*%
X349420000Y-319812364D03*
D13*
X349420000Y-317272364D03*
X351960000Y-319812364D03*
X351960000Y-317272364D03*
%TD*%
D12*
%TO.C,J12*%
X197279449Y-325692041D03*
D13*
X199819449Y-325692041D03*
X202359449Y-325692041D03*
X204899449Y-325692041D03*
X207439449Y-325692041D03*
X209979449Y-325692041D03*
X212519449Y-325692041D03*
X215059449Y-325692041D03*
X217599449Y-325692041D03*
X220139449Y-325692041D03*
X222679449Y-325692041D03*
X225219449Y-325692041D03*
X227759449Y-325692041D03*
X230299449Y-325692041D03*
X232839449Y-325692041D03*
X235379449Y-325692041D03*
X237919449Y-325692041D03*
X240459449Y-325692041D03*
X242999449Y-325692041D03*
X245539449Y-325692041D03*
%TD*%
D12*
%TO.C,J6*%
X364860000Y-306772364D03*
D13*
X364860000Y-309312364D03*
X362320000Y-306772364D03*
X362320000Y-309312364D03*
X359780000Y-306772364D03*
X359780000Y-309312364D03*
X357240000Y-306772364D03*
X357240000Y-309312364D03*
X354700000Y-306772364D03*
X354700000Y-309312364D03*
X352160000Y-306772364D03*
X352160000Y-309312364D03*
X349620000Y-306772364D03*
X349620000Y-309312364D03*
X347080000Y-306772364D03*
X347080000Y-309312364D03*
X344540000Y-306772364D03*
X344540000Y-309312364D03*
X342000000Y-306772364D03*
X342000000Y-309312364D03*
X339460000Y-306772364D03*
X339460000Y-309312364D03*
X336920000Y-306772364D03*
X336920000Y-309312364D03*
X334380000Y-306772364D03*
X334380000Y-309312364D03*
X331840000Y-306772364D03*
X331840000Y-309312364D03*
X329300000Y-306772364D03*
X329300000Y-309312364D03*
X326760000Y-306772364D03*
X326760000Y-309312364D03*
X324220000Y-306772364D03*
X324220000Y-309312364D03*
X321680000Y-306772364D03*
X321680000Y-309312364D03*
X319140000Y-306772364D03*
X319140000Y-309312364D03*
X316600000Y-306772364D03*
X316600000Y-309312364D03*
%TD*%
G36*
X215825465Y-130475587D02*
G01*
X215871958Y-130529243D01*
X215883344Y-130581585D01*
X215883344Y-133229585D01*
X215863342Y-133297706D01*
X215809686Y-133344199D01*
X215757344Y-133355585D01*
X213359344Y-133355585D01*
X213291223Y-133335583D01*
X213244730Y-133281927D01*
X213233344Y-133229585D01*
X213233344Y-130581585D01*
X213253346Y-130513464D01*
X213307002Y-130466971D01*
X213359344Y-130455585D01*
X215757344Y-130455585D01*
X215825465Y-130475587D01*
G37*
M02*
