%TF.GenerationSoftware,KiCad,Pcbnew,9.0.6-9.0.6~ubuntu24.04.1*%
%TF.CreationDate,2026-01-11T20:05:14-03:00*%
%TF.ProjectId,KEPR,4b455052-2e6b-4696-9361-645f70636258,0.6*%
%TF.SameCoordinates,Original*%
%TF.FileFunction,Profile,NP*%
%FSLAX46Y46*%
G04 Gerber Fmt 4.6, Leading zero omitted, Abs format (unit mm)*
G04 Created by KiCad (PCBNEW 9.0.6-9.0.6~ubuntu24.04.1) date 2026-01-11 20:05:14*
%MOMM*%
%LPD*%
G01*
G04 APERTURE LIST*
%TA.AperFunction,Profile*%
%ADD10C,0.150000*%
%TD*%
%TA.AperFunction,Profile*%
%ADD11C,0.050000*%
%TD*%
G04 APERTURE END LIST*
D10*
X176933344Y-103205585D02*
X245033344Y-103205585D01*
X177933344Y-114555585D02*
G75*
G02*
X177283344Y-115205585I-650001J1D01*
G01*
X213983344Y-132955585D02*
X213983344Y-129705585D01*
X244683344Y-115205585D02*
G75*
G02*
X244033344Y-114555585I1J650001D01*
G01*
X245783344Y-132455585D02*
G75*
G02*
X245033344Y-133205585I-750000J0D01*
G01*
X245783344Y-111205585D02*
X244683344Y-111205585D01*
X244033344Y-111855585D02*
G75*
G02*
X244683344Y-111205585I650001J-1D01*
G01*
X215233344Y-133205585D02*
X245033344Y-133205585D01*
X176933344Y-133205585D02*
X213733344Y-133205585D01*
X244033344Y-114555585D02*
X244033344Y-111855585D01*
X244683344Y-115205585D02*
X245783344Y-115205585D01*
X176183344Y-103955585D02*
G75*
G02*
X176933344Y-103205585I750000J0D01*
G01*
X177283344Y-111205585D02*
G75*
G02*
X177933344Y-111855585I-1J-650001D01*
G01*
X245034905Y-103205585D02*
G75*
G02*
X245783346Y-103955585I-1561J-750000D01*
G01*
X214983344Y-132955585D02*
X214983344Y-129705585D01*
X177283344Y-111205585D02*
X176183344Y-111205585D01*
X213983344Y-132955585D02*
G75*
G02*
X213733344Y-133205585I-249999J-1D01*
G01*
X245783344Y-111205585D02*
X245783344Y-103955585D01*
X176183344Y-132455585D02*
X176183344Y-115205585D01*
X176183344Y-111205585D02*
X176183344Y-103955585D01*
X245783344Y-132455585D02*
X245783344Y-115205585D01*
X177933344Y-114555585D02*
X177933344Y-111855585D01*
X215233344Y-133205585D02*
G75*
G02*
X214983344Y-132955585I-1J249999D01*
G01*
X176183344Y-115205585D02*
X177283344Y-115205585D01*
X176933344Y-133205585D02*
G75*
G02*
X176183344Y-132455585I0J750000D01*
G01*
X213983344Y-129705585D02*
G75*
G02*
X214983344Y-129705585I500000J0D01*
G01*
D11*
X380000000Y-133772364D02*
G75*
G02*
X385000000Y-138772364I0J-5000000D01*
G01*
X380500000Y-333272364D02*
X60500000Y-333272364D01*
X385000000Y-328272364D02*
G75*
G02*
X380000000Y-333272364I-5000000J0D01*
G01*
X55500000Y-328272364D02*
X55500000Y-138772364D01*
X60500000Y-333272364D02*
G75*
G02*
X55500000Y-328272364I0J5000000D01*
G01*
X60500000Y-133772364D02*
X380000000Y-133772364D01*
X385000000Y-138772364D02*
X385000000Y-328272364D01*
X55500000Y-138772364D02*
G75*
G02*
X60500000Y-133772364I5000000J0D01*
G01*
M02*
