%TF.GenerationSoftware,KiCad,Pcbnew,9.0.6-9.0.6~ubuntu24.04.1*%
%TF.CreationDate,2026-01-11T20:05:13-03:00*%
%TF.ProjectId,KEPR,4b455052-2e6b-4696-9361-645f70636258,0.6*%
%TF.SameCoordinates,Original*%
%TF.FileFunction,Soldermask,Top*%
%TF.FilePolarity,Negative*%
%FSLAX46Y46*%
G04 Gerber Fmt 4.6, Leading zero omitted, Abs format (unit mm)*
G04 Created by KiCad (PCBNEW 9.0.6-9.0.6~ubuntu24.04.1) date 2026-01-11 20:05:13*
%MOMM*%
%LPD*%
G01*
G04 APERTURE LIST*
G04 Aperture macros list*
%AMRoundRect*
0 Rectangle with rounded corners*
0 $1 Rounding radius*
0 $2 $3 $4 $5 $6 $7 $8 $9 X,Y pos of 4 corners*
0 Add a 4 corners polygon primitive as box body*
4,1,4,$2,$3,$4,$5,$6,$7,$8,$9,$2,$3,0*
0 Add four circle primitives for the rounded corners*
1,1,$1+$1,$2,$3*
1,1,$1+$1,$4,$5*
1,1,$1+$1,$6,$7*
1,1,$1+$1,$8,$9*
0 Add four rect primitives between the rounded corners*
20,1,$1+$1,$2,$3,$4,$5,0*
20,1,$1+$1,$4,$5,$6,$7,0*
20,1,$1+$1,$6,$7,$8,$9,0*
20,1,$1+$1,$8,$9,$2,$3,0*%
G04 Aperture macros list end*
%ADD10C,1.800000*%
%ADD11R,0.350000X2.500000*%
%ADD12R,0.700000X1.000000*%
%ADD13RoundRect,0.102000X2.850000X0.700000X-2.850000X0.700000X-2.850000X-0.700000X2.850000X-0.700000X0*%
%ADD14R,1.700000X1.700000*%
%ADD15C,1.700000*%
%ADD16RoundRect,0.250000X-0.600000X-0.600000X0.600000X-0.600000X0.600000X0.600000X-0.600000X0.600000X0*%
%ADD17R,1.525000X0.650000*%
%ADD18RoundRect,0.250000X0.600000X-0.600000X0.600000X0.600000X-0.600000X0.600000X-0.600000X-0.600000X0*%
%ADD19C,8.000000*%
%ADD20RoundRect,0.250000X0.250000X0.475000X-0.250000X0.475000X-0.250000X-0.475000X0.250000X-0.475000X0*%
%ADD21RoundRect,0.250000X-0.250000X-0.475000X0.250000X-0.475000X0.250000X0.475000X-0.250000X0.475000X0*%
%ADD22R,3.500000X3.500000*%
%ADD23RoundRect,0.750000X-0.750000X-1.000000X0.750000X-1.000000X0.750000X1.000000X-0.750000X1.000000X0*%
%ADD24RoundRect,0.875000X-0.875000X-0.875000X0.875000X-0.875000X0.875000X0.875000X-0.875000X0.875000X0*%
%ADD25RoundRect,0.375000X-0.625000X-0.375000X0.625000X-0.375000X0.625000X0.375000X-0.625000X0.375000X0*%
%ADD26RoundRect,0.500000X-0.500000X-1.400000X0.500000X-1.400000X0.500000X1.400000X-0.500000X1.400000X0*%
%ADD27C,1.600000*%
%ADD28C,1.100000*%
%ADD29RoundRect,0.075000X-0.075000X-0.775000X0.075000X-0.775000X0.075000X0.775000X-0.075000X0.775000X0*%
%ADD30RoundRect,0.250000X-1.500000X-2.050000X1.500000X-2.050000X1.500000X2.050000X-1.500000X2.050000X0*%
%ADD31RoundRect,0.375000X0.375000X-0.625000X0.375000X0.625000X-0.375000X0.625000X-0.375000X-0.625000X0*%
%ADD32RoundRect,0.500000X1.400000X-0.500000X1.400000X0.500000X-1.400000X0.500000X-1.400000X-0.500000X0*%
%ADD33RoundRect,0.075000X-0.662500X-0.075000X0.662500X-0.075000X0.662500X0.075000X-0.662500X0.075000X0*%
%ADD34RoundRect,0.075000X-0.075000X-0.662500X0.075000X-0.662500X0.075000X0.662500X-0.075000X0.662500X0*%
%ADD35RoundRect,0.250000X0.475000X-0.250000X0.475000X0.250000X-0.475000X0.250000X-0.475000X-0.250000X0*%
%ADD36R,5.000000X5.000000*%
%ADD37R,4.000000X4.000000*%
G04 APERTURE END LIST*
D10*
%TO.C,J13*%
X243600000Y-127000000D03*
X178000000Y-127000000D03*
D11*
X243925000Y-131700000D03*
X243425000Y-131700000D03*
X242925000Y-131700000D03*
X242425000Y-131700000D03*
X241925000Y-131700000D03*
X241425000Y-131700000D03*
X240925000Y-131700000D03*
X240425000Y-131700000D03*
X239925000Y-131700000D03*
X239425000Y-131700000D03*
X238925000Y-131700000D03*
X238425000Y-131700000D03*
X237925000Y-131700000D03*
X237425000Y-131700000D03*
X236925000Y-131700000D03*
X236425000Y-131700000D03*
X235925000Y-131700000D03*
X235425000Y-131700000D03*
X234925000Y-131700000D03*
X234425000Y-131700000D03*
X233925000Y-131700000D03*
X233425000Y-131700000D03*
X232925000Y-131700000D03*
X232425000Y-131700000D03*
X231925000Y-131700000D03*
X231425000Y-131700000D03*
X230925000Y-131700000D03*
X230425000Y-131700000D03*
X229925000Y-131700000D03*
X229425000Y-131700000D03*
X228925000Y-131700000D03*
X228425000Y-131700000D03*
X227925000Y-131700000D03*
X227425000Y-131700000D03*
X226925000Y-131700000D03*
X226425000Y-131700000D03*
X225925000Y-131700000D03*
X225425000Y-131700000D03*
X224925000Y-131700000D03*
X224425000Y-131700000D03*
X223925000Y-131700000D03*
X223425000Y-131700000D03*
X222925000Y-131700000D03*
X222425000Y-131700000D03*
X221925000Y-131700000D03*
X221425000Y-131700000D03*
X220925000Y-131700000D03*
X220425000Y-131700000D03*
X219925000Y-131700000D03*
X219425000Y-131700000D03*
X218925000Y-131700000D03*
X218425000Y-131700000D03*
X217925000Y-131700000D03*
X217425000Y-131700000D03*
X216925000Y-131700000D03*
X216425000Y-131700000D03*
X215925000Y-131700000D03*
X215425000Y-131700000D03*
X212925000Y-131700000D03*
X212425000Y-131700000D03*
X211925000Y-131700000D03*
X211425000Y-131700000D03*
X210925000Y-131700000D03*
X210425000Y-131700000D03*
X209925000Y-131700000D03*
X209425000Y-131700000D03*
X208925000Y-131700000D03*
X208425000Y-131700000D03*
X207925000Y-131700000D03*
X207425000Y-131700000D03*
X206925000Y-131700000D03*
X206425000Y-131700000D03*
X205925000Y-131700000D03*
X205425000Y-131700000D03*
X204925000Y-131700000D03*
X204425000Y-131700000D03*
X203925000Y-131700000D03*
X203425000Y-131700000D03*
X202925000Y-131700000D03*
X202425000Y-131700000D03*
X201925000Y-131700000D03*
X201425000Y-131700000D03*
X200925000Y-131700000D03*
X200425000Y-131700000D03*
X199925000Y-131700000D03*
X199425000Y-131700000D03*
X198925000Y-131700000D03*
X198425000Y-131700000D03*
X197925000Y-131700000D03*
X197425000Y-131700000D03*
X196925000Y-131700000D03*
X196425000Y-131700000D03*
X195925000Y-131700000D03*
X195425000Y-131700000D03*
X194925000Y-131700000D03*
X194425000Y-131700000D03*
X193925000Y-131700000D03*
X193425000Y-131700000D03*
X192925000Y-131700000D03*
X192425000Y-131700000D03*
X191925000Y-131700000D03*
X191425000Y-131700000D03*
X190925000Y-131700000D03*
X190425000Y-131700000D03*
X189925000Y-131700000D03*
X189425000Y-131700000D03*
X188925000Y-131700000D03*
X188425000Y-131700000D03*
X187925000Y-131700000D03*
X187425000Y-131700000D03*
X186925000Y-131700000D03*
X186425000Y-131700000D03*
X185925000Y-131700000D03*
X185425000Y-131700000D03*
X184925000Y-131700000D03*
X184425000Y-131700000D03*
X183925000Y-131700000D03*
X183425000Y-131700000D03*
X182925000Y-131700000D03*
X182425000Y-131700000D03*
X181925000Y-131700000D03*
X181425000Y-131700000D03*
X180925000Y-131700000D03*
X180425000Y-131700000D03*
X179925000Y-131700000D03*
X179425000Y-131700000D03*
X178925000Y-131700000D03*
X178425000Y-131700000D03*
X177925000Y-131700000D03*
X177425000Y-131700000D03*
%TD*%
D12*
%TO.C,IC3*%
X136526536Y-209272364D03*
X138426536Y-209272364D03*
X138426536Y-206872364D03*
X137476536Y-206872364D03*
X136526536Y-206872364D03*
%TD*%
%TO.C,IC2*%
X136461764Y-197941679D03*
X138361764Y-197941679D03*
X138361764Y-195541679D03*
X137411764Y-195541679D03*
X136461764Y-195541679D03*
%TD*%
%TO.C,IC1*%
X136500000Y-186772364D03*
X138400000Y-186772364D03*
X138400000Y-184372364D03*
X137450000Y-184372364D03*
X136500000Y-184372364D03*
%TD*%
D13*
%TO.C,PS1*%
X111250000Y-190772364D03*
X111250000Y-188772364D03*
X111250000Y-184772364D03*
X120750000Y-190772364D03*
X120750000Y-188772364D03*
X120750000Y-186772364D03*
%TD*%
D14*
%TO.C,J19*%
X197339449Y-329692041D03*
D15*
X199879449Y-329692041D03*
X202419449Y-329692041D03*
X204959449Y-329692041D03*
X207499449Y-329692041D03*
X210039449Y-329692041D03*
X212579449Y-329692041D03*
X215119449Y-329692041D03*
X217659449Y-329692041D03*
X220199449Y-329692041D03*
X222739449Y-329692041D03*
X225279449Y-329692041D03*
X227819449Y-329692041D03*
X230359449Y-329692041D03*
X232899449Y-329692041D03*
X235439449Y-329692041D03*
X237979449Y-329692041D03*
X240519449Y-329692041D03*
X243059449Y-329692041D03*
X245599449Y-329692041D03*
%TD*%
D14*
%TO.C,J17*%
X76040000Y-329692364D03*
D15*
X78580000Y-329692364D03*
X81120000Y-329692364D03*
X83660000Y-329692364D03*
X86200000Y-329692364D03*
X88740000Y-329692364D03*
X91280000Y-329692364D03*
X93820000Y-329692364D03*
X96360000Y-329692364D03*
X98900000Y-329692364D03*
X101440000Y-329692364D03*
X103980000Y-329692364D03*
X106520000Y-329692364D03*
X109060000Y-329692364D03*
X111600000Y-329692364D03*
X114140000Y-329692364D03*
X116680000Y-329692364D03*
X119220000Y-329692364D03*
X121760000Y-329692364D03*
X124300000Y-329692364D03*
%TD*%
D13*
%TO.C,PS3*%
X111250000Y-213272364D03*
X111250000Y-211272364D03*
X111250000Y-207272364D03*
X120750000Y-213272364D03*
X120750000Y-211272364D03*
X120750000Y-209272364D03*
%TD*%
D14*
%TO.C,J10*%
X197000000Y-309312364D03*
D15*
X197000000Y-306772364D03*
X199540000Y-309312364D03*
X199540000Y-306772364D03*
X202080000Y-309312364D03*
X202080000Y-306772364D03*
X204620000Y-309312364D03*
X204620000Y-306772364D03*
X207160000Y-309312364D03*
X207160000Y-306772364D03*
X209700000Y-309312364D03*
X209700000Y-306772364D03*
X212240000Y-309312364D03*
X212240000Y-306772364D03*
X214780000Y-309312364D03*
X214780000Y-306772364D03*
X217320000Y-309312364D03*
X217320000Y-306772364D03*
X219860000Y-309312364D03*
X219860000Y-306772364D03*
X222400000Y-309312364D03*
X222400000Y-306772364D03*
X224940000Y-309312364D03*
X224940000Y-306772364D03*
X227480000Y-309312364D03*
X227480000Y-306772364D03*
X230020000Y-309312364D03*
X230020000Y-306772364D03*
X232560000Y-309312364D03*
X232560000Y-306772364D03*
X235100000Y-309312364D03*
X235100000Y-306772364D03*
X237640000Y-309312364D03*
X237640000Y-306772364D03*
X240180000Y-309312364D03*
X240180000Y-306772364D03*
X242720000Y-309312364D03*
X242720000Y-306772364D03*
X245260000Y-309312364D03*
X245260000Y-306772364D03*
X247800000Y-309312364D03*
X247800000Y-306772364D03*
X250340000Y-309312364D03*
X250340000Y-306772364D03*
X252880000Y-309312364D03*
X252880000Y-306772364D03*
X255420000Y-309312364D03*
X255420000Y-306772364D03*
X257960000Y-309312364D03*
X257960000Y-306772364D03*
X260500000Y-309312364D03*
X260500000Y-306772364D03*
X263040000Y-309312364D03*
X263040000Y-306772364D03*
X265580000Y-309312364D03*
X265580000Y-306772364D03*
X268120000Y-309312364D03*
X268120000Y-306772364D03*
X270660000Y-309312364D03*
X270660000Y-306772364D03*
X273200000Y-309312364D03*
X273200000Y-306772364D03*
X275740000Y-309312364D03*
X275740000Y-306772364D03*
X278280000Y-309312364D03*
X278280000Y-306772364D03*
X280820000Y-309312364D03*
X280820000Y-306772364D03*
X283360000Y-309312364D03*
X283360000Y-306772364D03*
X285900000Y-309312364D03*
X285900000Y-306772364D03*
X288440000Y-309312364D03*
X288440000Y-306772364D03*
X290980000Y-309312364D03*
X290980000Y-306772364D03*
X293520000Y-309312364D03*
X293520000Y-306772364D03*
X296060000Y-309312364D03*
X296060000Y-306772364D03*
%TD*%
D16*
%TO.C,J3*%
X88000000Y-219772364D03*
D15*
X90540000Y-219772364D03*
X88000000Y-222312364D03*
X90540000Y-222312364D03*
X88000000Y-224852364D03*
X90540000Y-224852364D03*
X88000000Y-227392364D03*
X90540000Y-227392364D03*
X88000000Y-229932364D03*
X90540000Y-229932364D03*
X88000000Y-232472364D03*
X90540000Y-232472364D03*
X88000000Y-235012364D03*
X90540000Y-235012364D03*
X88000000Y-237552364D03*
X90540000Y-237552364D03*
X88000000Y-240092364D03*
X90540000Y-240092364D03*
X88000000Y-242632364D03*
X90540000Y-242632364D03*
X88000000Y-245172364D03*
X90540000Y-245172364D03*
X88000000Y-247712364D03*
X90540000Y-247712364D03*
%TD*%
D17*
%TO.C,U1*%
X109788000Y-249367364D03*
X109788000Y-250637364D03*
X109788000Y-251907364D03*
X109788000Y-253177364D03*
X115212000Y-253177364D03*
X115212000Y-251907364D03*
X115212000Y-250637364D03*
X115212000Y-249367364D03*
%TD*%
D18*
%TO.C,J4*%
X289940000Y-159312364D03*
D15*
X289940000Y-156772364D03*
X292480000Y-159312364D03*
X292480000Y-156772364D03*
X295020000Y-159312364D03*
X295020000Y-156772364D03*
X297560000Y-159312364D03*
X297560000Y-156772364D03*
X300100000Y-159312364D03*
X300100000Y-156772364D03*
X302640000Y-159312364D03*
X302640000Y-156772364D03*
X305180000Y-159312364D03*
X305180000Y-156772364D03*
X307720000Y-159312364D03*
X307720000Y-156772364D03*
X310260000Y-159312364D03*
X310260000Y-156772364D03*
X312800000Y-159312364D03*
X312800000Y-156772364D03*
X315340000Y-159312364D03*
X315340000Y-156772364D03*
X317880000Y-159312364D03*
X317880000Y-156772364D03*
X320420000Y-159312364D03*
X320420000Y-156772364D03*
X322960000Y-159312364D03*
X322960000Y-156772364D03*
X325500000Y-159312364D03*
X325500000Y-156772364D03*
D19*
X281000000Y-158292364D03*
X334440000Y-158292364D03*
%TD*%
D20*
%TO.C,C1*%
X127500000Y-240772364D03*
X125600000Y-240772364D03*
%TD*%
D14*
%TO.C,J24*%
X97740000Y-319812364D03*
D15*
X97740000Y-317272364D03*
X100280000Y-319812364D03*
X100280000Y-317272364D03*
%TD*%
D21*
%TO.C,C3*%
X111050000Y-244772364D03*
X112950000Y-244772364D03*
%TD*%
D14*
%TO.C,J23*%
X340510000Y-329692364D03*
D15*
X343050000Y-329692364D03*
X345590000Y-329692364D03*
X348130000Y-329692364D03*
X350670000Y-329692364D03*
X353210000Y-329692364D03*
X355750000Y-329692364D03*
X358290000Y-329692364D03*
X360830000Y-329692364D03*
X363370000Y-329692364D03*
%TD*%
D16*
%TO.C,J5*%
X288500000Y-231772364D03*
D15*
X291040000Y-231772364D03*
X288500000Y-234312364D03*
X291040000Y-234312364D03*
X288500000Y-236852364D03*
X291040000Y-236852364D03*
X288500000Y-239392364D03*
X291040000Y-239392364D03*
X288500000Y-241932364D03*
X291040000Y-241932364D03*
X288500000Y-244472364D03*
X291040000Y-244472364D03*
X288500000Y-247012364D03*
X291040000Y-247012364D03*
X288500000Y-249552364D03*
X291040000Y-249552364D03*
%TD*%
D13*
%TO.C,PS2*%
X111250000Y-201922364D03*
X111250000Y-199922364D03*
X111250000Y-195922364D03*
X120750000Y-201922364D03*
X120750000Y-199922364D03*
X120750000Y-197922364D03*
%TD*%
D14*
%TO.C,J9*%
X78640000Y-309312364D03*
D15*
X78640000Y-306772364D03*
X81180000Y-309312364D03*
X81180000Y-306772364D03*
X83720000Y-309312364D03*
X83720000Y-306772364D03*
X86260000Y-309312364D03*
X86260000Y-306772364D03*
X88800000Y-309312364D03*
X88800000Y-306772364D03*
X91340000Y-309312364D03*
X91340000Y-306772364D03*
X93880000Y-309312364D03*
X93880000Y-306772364D03*
X96420000Y-309312364D03*
X96420000Y-306772364D03*
X98960000Y-309312364D03*
X98960000Y-306772364D03*
X101500000Y-309312364D03*
X101500000Y-306772364D03*
X104040000Y-309312364D03*
X104040000Y-306772364D03*
X106580000Y-309312364D03*
X106580000Y-306772364D03*
X109120000Y-309312364D03*
X109120000Y-306772364D03*
X111660000Y-309312364D03*
X111660000Y-306772364D03*
X114200000Y-309312364D03*
X114200000Y-306772364D03*
X116740000Y-309312364D03*
X116740000Y-306772364D03*
X119280000Y-309312364D03*
X119280000Y-306772364D03*
X121820000Y-309312364D03*
X121820000Y-306772364D03*
X124360000Y-309312364D03*
X124360000Y-306772364D03*
X126900000Y-309312364D03*
X126900000Y-306772364D03*
X129440000Y-309312364D03*
X129440000Y-306772364D03*
X131980000Y-309312364D03*
X131980000Y-306772364D03*
X134520000Y-309312364D03*
X134520000Y-306772364D03*
X137060000Y-309312364D03*
X137060000Y-306772364D03*
X139600000Y-309312364D03*
X139600000Y-306772364D03*
X142140000Y-309312364D03*
X142140000Y-306772364D03*
X144680000Y-309312364D03*
X144680000Y-306772364D03*
X147220000Y-309312364D03*
X147220000Y-306772364D03*
X149760000Y-309312364D03*
X149760000Y-306772364D03*
X152300000Y-309312364D03*
X152300000Y-306772364D03*
X154840000Y-309312364D03*
X154840000Y-306772364D03*
X157380000Y-309312364D03*
X157380000Y-306772364D03*
X159920000Y-309312364D03*
X159920000Y-306772364D03*
X162460000Y-309312364D03*
X162460000Y-306772364D03*
X165000000Y-309312364D03*
X165000000Y-306772364D03*
X167540000Y-309312364D03*
X167540000Y-306772364D03*
X170080000Y-309312364D03*
X170080000Y-306772364D03*
X172620000Y-309312364D03*
X172620000Y-306772364D03*
X175160000Y-309312364D03*
X175160000Y-306772364D03*
X177700000Y-309312364D03*
X177700000Y-306772364D03*
%TD*%
D22*
%TO.C,J22*%
X69500000Y-161272364D03*
D23*
X63500000Y-161272364D03*
D24*
X66500000Y-165972364D03*
%TD*%
D14*
%TO.C,J1*%
X76300000Y-325772364D03*
D15*
X78840000Y-325772364D03*
X81380000Y-325772364D03*
X83920000Y-325772364D03*
X86460000Y-325772364D03*
X89000000Y-325772364D03*
X91540000Y-325772364D03*
X94080000Y-325772364D03*
X96620000Y-325772364D03*
X99160000Y-325772364D03*
X101700000Y-325772364D03*
X104240000Y-325772364D03*
X106780000Y-325772364D03*
X109320000Y-325772364D03*
X111860000Y-325772364D03*
X114400000Y-325772364D03*
X116940000Y-325772364D03*
X119480000Y-325772364D03*
X122020000Y-325772364D03*
X124560000Y-325772364D03*
%TD*%
D25*
%TO.C,U3*%
X114500000Y-226772364D03*
X114500000Y-229072364D03*
D26*
X120800000Y-229072364D03*
D25*
X114500000Y-231372364D03*
%TD*%
D14*
%TO.C,J26*%
X217833329Y-319357932D03*
D15*
X217833329Y-316817932D03*
X220373329Y-319357932D03*
X220373329Y-316817932D03*
X222913329Y-319357932D03*
X222913329Y-316817932D03*
%TD*%
D27*
%TO.C,J11*%
X177525000Y-176897364D03*
D28*
X246325000Y-176897364D03*
D29*
X178550000Y-180997364D03*
X178800000Y-172797365D03*
X179050000Y-180997364D03*
X179300000Y-172797365D03*
X179550000Y-180997364D03*
X179800000Y-172797365D03*
X180050000Y-180997364D03*
X180300000Y-172797365D03*
X180550000Y-180997364D03*
X180800000Y-172797365D03*
X181050000Y-180997364D03*
X181300000Y-172797365D03*
X181550000Y-180997364D03*
X181800000Y-172797365D03*
X182050000Y-180997364D03*
X182300000Y-172797365D03*
X182550000Y-180997364D03*
X182800000Y-172797365D03*
X183050000Y-180997364D03*
X183300000Y-172797365D03*
X183550000Y-180997364D03*
X183800000Y-172797365D03*
X184050000Y-180997364D03*
X184300000Y-172797365D03*
X184550000Y-180997364D03*
X184800000Y-172797365D03*
X185050000Y-180997364D03*
X185300000Y-172797365D03*
X185550000Y-180997364D03*
X185800000Y-172797365D03*
X186050000Y-180997364D03*
X186300000Y-172797365D03*
X186550000Y-180997364D03*
X186800000Y-172797365D03*
X187050000Y-180997364D03*
X187300000Y-172797365D03*
X187550000Y-180997364D03*
X187800000Y-172797365D03*
X188050000Y-180997364D03*
X188300000Y-172797365D03*
X188550000Y-180997364D03*
X188800000Y-172797365D03*
X189050000Y-180997364D03*
X189300000Y-172797365D03*
X189550000Y-180997364D03*
X189800000Y-172797365D03*
X190050000Y-180997364D03*
X190300000Y-172797365D03*
X190550000Y-180997364D03*
X190800000Y-172797365D03*
X191050000Y-180997364D03*
X191300000Y-172797365D03*
X191550000Y-180997364D03*
X191800000Y-172797365D03*
X192050000Y-180997364D03*
X192300000Y-172797365D03*
X192550000Y-180997364D03*
X192800000Y-172797365D03*
X193050000Y-180997364D03*
X193300000Y-172797365D03*
X193550000Y-180997364D03*
X193800000Y-172797365D03*
X194050000Y-180997364D03*
X194300000Y-172797365D03*
X194550000Y-180997364D03*
X194800000Y-172797365D03*
X195050000Y-180997364D03*
X195300000Y-172797365D03*
X195550000Y-180997364D03*
X195800000Y-172797365D03*
X196050000Y-180997364D03*
X196300000Y-172797365D03*
X196550000Y-180997364D03*
X196800000Y-172797365D03*
X197050000Y-180997364D03*
X197300000Y-172797365D03*
X197550000Y-180997364D03*
X197800000Y-172797365D03*
X198050000Y-180997364D03*
X198300000Y-172797365D03*
X198550000Y-180997364D03*
X198800000Y-172797365D03*
X199050000Y-180997364D03*
X199300000Y-172797365D03*
X199550000Y-180997364D03*
X199800000Y-172797365D03*
X200050000Y-180997364D03*
X200300000Y-172797365D03*
X200550000Y-180997364D03*
X200800000Y-172797365D03*
X201050000Y-180997364D03*
X201300000Y-172797365D03*
X201550000Y-180997364D03*
X201800000Y-172797365D03*
X202050000Y-180997364D03*
X202300000Y-172797365D03*
X202550000Y-180997364D03*
X202800000Y-172797365D03*
X203050000Y-180997364D03*
X203300000Y-172797365D03*
X203550000Y-180997364D03*
X203800000Y-172797365D03*
X204050000Y-180997364D03*
X204300000Y-172797365D03*
X204550000Y-180997364D03*
X204800000Y-172797365D03*
X205050000Y-180997364D03*
X205300000Y-172797365D03*
X205550000Y-180997364D03*
X205800000Y-172797365D03*
X206050000Y-180997364D03*
X206300000Y-172797365D03*
X206550000Y-180997364D03*
X206800000Y-172797365D03*
X207050000Y-180997364D03*
X207300000Y-172797365D03*
X207550000Y-180997364D03*
X207800000Y-172797365D03*
X208050000Y-180997364D03*
X208300000Y-172797365D03*
X208550000Y-180997364D03*
X208800000Y-172797365D03*
X209050000Y-180997364D03*
X209300000Y-172797365D03*
X209550000Y-180997364D03*
X209800000Y-172797365D03*
X210050000Y-180997364D03*
X210300000Y-172797365D03*
X210550000Y-180997364D03*
X210800000Y-172797365D03*
X211050000Y-180997364D03*
X211300000Y-172797365D03*
X211550000Y-180997364D03*
X211800000Y-172797365D03*
X212050000Y-180997364D03*
X212300000Y-172797365D03*
X212550000Y-180997364D03*
X212800000Y-172797365D03*
X213050000Y-180997364D03*
X213300000Y-172797365D03*
X213550000Y-180997364D03*
X213800000Y-172797365D03*
X214050000Y-180997364D03*
X214300000Y-172797365D03*
X216550000Y-180997364D03*
X216800000Y-172797365D03*
X217050000Y-180997364D03*
X217300000Y-172797365D03*
X217550000Y-180997364D03*
X217800000Y-172797365D03*
X218050000Y-180997364D03*
X218300000Y-172797365D03*
X218550000Y-180997364D03*
X218800000Y-172797365D03*
X219050000Y-180997364D03*
X219300000Y-172797365D03*
X219550000Y-180997364D03*
X219800000Y-172797365D03*
X220050000Y-180997364D03*
X220300000Y-172797365D03*
X220550000Y-180997364D03*
X220800000Y-172797365D03*
X221050000Y-180997364D03*
X221300000Y-172797365D03*
X221550000Y-180997364D03*
X221800000Y-172797365D03*
X222050000Y-180997364D03*
X222300000Y-172797365D03*
X222550000Y-180997364D03*
X222800000Y-172797365D03*
X223050000Y-180997364D03*
X223300000Y-172797365D03*
X223550000Y-180997364D03*
X223800000Y-172797365D03*
X224050000Y-180997364D03*
X224300000Y-172797365D03*
X224550000Y-180997364D03*
X224800000Y-172797365D03*
X225050000Y-180997364D03*
X225300000Y-172797365D03*
X225550000Y-180997364D03*
X225800000Y-172797365D03*
X226050000Y-180997364D03*
X226300000Y-172797365D03*
X226550000Y-180997364D03*
X226800000Y-172797365D03*
X227050000Y-180997364D03*
X227300000Y-172797365D03*
X227550000Y-180997364D03*
X227800000Y-172797365D03*
X228050000Y-180997364D03*
X228300000Y-172797365D03*
X228550000Y-180997364D03*
X228800000Y-172797365D03*
X229050000Y-180997364D03*
X229300000Y-172797365D03*
X229550000Y-180997364D03*
X229800000Y-172797365D03*
X230050000Y-180997364D03*
X230300000Y-172797365D03*
X230550000Y-180997364D03*
X230800000Y-172797365D03*
X231050000Y-180997364D03*
X231300000Y-172797365D03*
X231550000Y-180997364D03*
X231800000Y-172797365D03*
X232050000Y-180997364D03*
X232300000Y-172797365D03*
X232550000Y-180997364D03*
X232800000Y-172797365D03*
X233050000Y-180997364D03*
X233300000Y-172797365D03*
X233550000Y-180997364D03*
X233800000Y-172797365D03*
X234050000Y-180997364D03*
X234300000Y-172797365D03*
X234550000Y-180997364D03*
X234800000Y-172797365D03*
X235050000Y-180997364D03*
X235300000Y-172797365D03*
X235550000Y-180997364D03*
X235800000Y-172797365D03*
X236050000Y-180997364D03*
X236300000Y-172797365D03*
X236550000Y-180997364D03*
X236800000Y-172797365D03*
X237050000Y-180997364D03*
X237300000Y-172797365D03*
X237550000Y-180997364D03*
X237800000Y-172797365D03*
X238050000Y-180997364D03*
X238300000Y-172797365D03*
X238550000Y-180997364D03*
X238800000Y-172797365D03*
X239050000Y-180997364D03*
X239300000Y-172797365D03*
X239550000Y-180997364D03*
X239800000Y-172797365D03*
X240050000Y-180997364D03*
X240300000Y-172797365D03*
X240550000Y-180997364D03*
X240800000Y-172797365D03*
X241050000Y-180997364D03*
X241300000Y-172797365D03*
X241550000Y-180997364D03*
X241800000Y-172797365D03*
X242050000Y-180997364D03*
X242300000Y-172797365D03*
X242550000Y-180997364D03*
X242800000Y-172797365D03*
X243050000Y-180997364D03*
X243300000Y-172797365D03*
X243550000Y-180997364D03*
X243800000Y-172797365D03*
X244050000Y-180997364D03*
X244300000Y-172797365D03*
X244550000Y-180997364D03*
X244800000Y-172797365D03*
X245050000Y-180997364D03*
X245300000Y-172797365D03*
D30*
X178125000Y-164897364D03*
X245725000Y-164897364D03*
%TD*%
D31*
%TO.C,U4*%
X146700000Y-183922364D03*
X149000000Y-183922364D03*
D32*
X149000000Y-177622364D03*
D31*
X151300000Y-183922364D03*
%TD*%
D33*
%TO.C,U2*%
X115175000Y-240772364D03*
X115175000Y-241272364D03*
X115175000Y-241772364D03*
X115175000Y-242272364D03*
X115175000Y-242772364D03*
X115175000Y-243272364D03*
X115175000Y-243772364D03*
X115175000Y-244272364D03*
X115175000Y-244772364D03*
X115175000Y-245272364D03*
X115175000Y-245772364D03*
X115175000Y-246272364D03*
D34*
X116587500Y-247684864D03*
X117087500Y-247684864D03*
X117587500Y-247684864D03*
X118087500Y-247684864D03*
X118587500Y-247684864D03*
X119087500Y-247684864D03*
X119587500Y-247684864D03*
X120087500Y-247684864D03*
X120587500Y-247684864D03*
X121087500Y-247684864D03*
X121587500Y-247684864D03*
X122087500Y-247684864D03*
D33*
X123500000Y-246272364D03*
X123500000Y-245772364D03*
X123500000Y-245272364D03*
X123500000Y-244772364D03*
X123500000Y-244272364D03*
X123500000Y-243772364D03*
X123500000Y-243272364D03*
X123500000Y-242772364D03*
X123500000Y-242272364D03*
X123500000Y-241772364D03*
X123500000Y-241272364D03*
X123500000Y-240772364D03*
D34*
X122087500Y-239359864D03*
X121587500Y-239359864D03*
X121087500Y-239359864D03*
X120587500Y-239359864D03*
X120087500Y-239359864D03*
X119587500Y-239359864D03*
X119087500Y-239359864D03*
X118587500Y-239359864D03*
X118087500Y-239359864D03*
X117587500Y-239359864D03*
X117087500Y-239359864D03*
X116587500Y-239359864D03*
%TD*%
D14*
%TO.C,J16*%
X340500000Y-325772364D03*
D15*
X343040000Y-325772364D03*
X345580000Y-325772364D03*
X348120000Y-325772364D03*
X350660000Y-325772364D03*
X353200000Y-325772364D03*
X355740000Y-325772364D03*
X358280000Y-325772364D03*
X360820000Y-325772364D03*
X363360000Y-325772364D03*
%TD*%
D14*
%TO.C,J30*%
X349420000Y-319812364D03*
D15*
X349420000Y-317272364D03*
X351960000Y-319812364D03*
X351960000Y-317272364D03*
%TD*%
D21*
%TO.C,C2*%
X113100000Y-238272364D03*
X115000000Y-238272364D03*
%TD*%
D14*
%TO.C,J12*%
X197279449Y-325692041D03*
D15*
X199819449Y-325692041D03*
X202359449Y-325692041D03*
X204899449Y-325692041D03*
X207439449Y-325692041D03*
X209979449Y-325692041D03*
X212519449Y-325692041D03*
X215059449Y-325692041D03*
X217599449Y-325692041D03*
X220139449Y-325692041D03*
X222679449Y-325692041D03*
X225219449Y-325692041D03*
X227759449Y-325692041D03*
X230299449Y-325692041D03*
X232839449Y-325692041D03*
X235379449Y-325692041D03*
X237919449Y-325692041D03*
X240459449Y-325692041D03*
X242999449Y-325692041D03*
X245539449Y-325692041D03*
%TD*%
D35*
%TO.C,C5*%
X118500000Y-252222364D03*
X118500000Y-250322364D03*
%TD*%
D14*
%TO.C,J6*%
X364860000Y-306772364D03*
D15*
X364860000Y-309312364D03*
X362320000Y-306772364D03*
X362320000Y-309312364D03*
X359780000Y-306772364D03*
X359780000Y-309312364D03*
X357240000Y-306772364D03*
X357240000Y-309312364D03*
X354700000Y-306772364D03*
X354700000Y-309312364D03*
X352160000Y-306772364D03*
X352160000Y-309312364D03*
X349620000Y-306772364D03*
X349620000Y-309312364D03*
X347080000Y-306772364D03*
X347080000Y-309312364D03*
X344540000Y-306772364D03*
X344540000Y-309312364D03*
X342000000Y-306772364D03*
X342000000Y-309312364D03*
X339460000Y-306772364D03*
X339460000Y-309312364D03*
X336920000Y-306772364D03*
X336920000Y-309312364D03*
X334380000Y-306772364D03*
X334380000Y-309312364D03*
X331840000Y-306772364D03*
X331840000Y-309312364D03*
X329300000Y-306772364D03*
X329300000Y-309312364D03*
X326760000Y-306772364D03*
X326760000Y-309312364D03*
X324220000Y-306772364D03*
X324220000Y-309312364D03*
X321680000Y-306772364D03*
X321680000Y-309312364D03*
X319140000Y-306772364D03*
X319140000Y-309312364D03*
X316600000Y-306772364D03*
X316600000Y-309312364D03*
%TD*%
D36*
%TO.C,BT1*%
X113790773Y-262822364D03*
X113790773Y-288722364D03*
D37*
X113790773Y-275772364D03*
%TD*%
D35*
%TO.C,C4*%
X122000000Y-252222364D03*
X122000000Y-250322364D03*
%TD*%
G36*
X215625465Y-130475587D02*
G01*
X215671958Y-130529243D01*
X215683344Y-130581585D01*
X215683344Y-133229585D01*
X215663342Y-133297706D01*
X215609686Y-133344199D01*
X215557344Y-133355585D01*
X213159344Y-133355585D01*
X213091223Y-133335583D01*
X213044730Y-133281927D01*
X213033344Y-133229585D01*
X213033344Y-130581585D01*
X213053346Y-130513464D01*
X213107002Y-130466971D01*
X213159344Y-130455585D01*
X215557344Y-130455585D01*
X215625465Y-130475587D01*
G37*
M02*
