%TF.GenerationSoftware,KiCad,Pcbnew,9.0.6-9.0.6~ubuntu24.04.1*%
%TF.CreationDate,2026-01-11T20:05:13-03:00*%
%TF.ProjectId,KEPR,4b455052-2e6b-4696-9361-645f70636258,0.6*%
%TF.SameCoordinates,Original*%
%TF.FileFunction,Copper,L1,Top*%
%TF.FilePolarity,Positive*%
%FSLAX46Y46*%
G04 Gerber Fmt 4.6, Leading zero omitted, Abs format (unit mm)*
G04 Created by KiCad (PCBNEW 9.0.6-9.0.6~ubuntu24.04.1) date 2026-01-11 20:05:13*
%MOMM*%
%LPD*%
G01*
G04 APERTURE LIST*
G04 Aperture macros list*
%AMRoundRect*
0 Rectangle with rounded corners*
0 $1 Rounding radius*
0 $2 $3 $4 $5 $6 $7 $8 $9 X,Y pos of 4 corners*
0 Add a 4 corners polygon primitive as box body*
4,1,4,$2,$3,$4,$5,$6,$7,$8,$9,$2,$3,0*
0 Add four circle primitives for the rounded corners*
1,1,$1+$1,$2,$3*
1,1,$1+$1,$4,$5*
1,1,$1+$1,$6,$7*
1,1,$1+$1,$8,$9*
0 Add four rect primitives between the rounded corners*
20,1,$1+$1,$2,$3,$4,$5,0*
20,1,$1+$1,$4,$5,$6,$7,0*
20,1,$1+$1,$6,$7,$8,$9,0*
20,1,$1+$1,$8,$9,$2,$3,0*%
G04 Aperture macros list end*
%TA.AperFunction,Conductor*%
%ADD10C,0.200000*%
%TD*%
%TA.AperFunction,SMDPad,CuDef*%
%ADD11R,0.350000X2.500000*%
%TD*%
%TA.AperFunction,SMDPad,CuDef*%
%ADD12R,0.700000X1.000000*%
%TD*%
%TA.AperFunction,SMDPad,CuDef*%
%ADD13R,5.700000X1.400000*%
%TD*%
%TA.AperFunction,ComponentPad*%
%ADD14R,1.700000X1.700000*%
%TD*%
%TA.AperFunction,ComponentPad*%
%ADD15C,1.700000*%
%TD*%
%TA.AperFunction,ComponentPad*%
%ADD16RoundRect,0.250000X-0.600000X-0.600000X0.600000X-0.600000X0.600000X0.600000X-0.600000X0.600000X0*%
%TD*%
%TA.AperFunction,SMDPad,CuDef*%
%ADD17R,1.525000X0.650000*%
%TD*%
%TA.AperFunction,ComponentPad*%
%ADD18RoundRect,0.250000X0.600000X-0.600000X0.600000X0.600000X-0.600000X0.600000X-0.600000X-0.600000X0*%
%TD*%
%TA.AperFunction,ComponentPad*%
%ADD19C,8.000000*%
%TD*%
%TA.AperFunction,SMDPad,CuDef*%
%ADD20RoundRect,0.250000X0.250000X0.475000X-0.250000X0.475000X-0.250000X-0.475000X0.250000X-0.475000X0*%
%TD*%
%TA.AperFunction,SMDPad,CuDef*%
%ADD21RoundRect,0.250000X-0.250000X-0.475000X0.250000X-0.475000X0.250000X0.475000X-0.250000X0.475000X0*%
%TD*%
%TA.AperFunction,ComponentPad*%
%ADD22R,3.500000X3.500000*%
%TD*%
%TA.AperFunction,ComponentPad*%
%ADD23RoundRect,0.750000X-0.750000X-1.000000X0.750000X-1.000000X0.750000X1.000000X-0.750000X1.000000X0*%
%TD*%
%TA.AperFunction,ComponentPad*%
%ADD24RoundRect,0.875000X-0.875000X-0.875000X0.875000X-0.875000X0.875000X0.875000X-0.875000X0.875000X0*%
%TD*%
%TA.AperFunction,SMDPad,CuDef*%
%ADD25RoundRect,0.375000X-0.625000X-0.375000X0.625000X-0.375000X0.625000X0.375000X-0.625000X0.375000X0*%
%TD*%
%TA.AperFunction,SMDPad,CuDef*%
%ADD26RoundRect,0.500000X-0.500000X-1.400000X0.500000X-1.400000X0.500000X1.400000X-0.500000X1.400000X0*%
%TD*%
%TA.AperFunction,SMDPad,CuDef*%
%ADD27RoundRect,0.075000X-0.075000X-0.775000X0.075000X-0.775000X0.075000X0.775000X-0.075000X0.775000X0*%
%TD*%
%TA.AperFunction,SMDPad,CuDef*%
%ADD28RoundRect,0.250000X-1.500000X-2.050000X1.500000X-2.050000X1.500000X2.050000X-1.500000X2.050000X0*%
%TD*%
%TA.AperFunction,SMDPad,CuDef*%
%ADD29RoundRect,0.375000X0.375000X-0.625000X0.375000X0.625000X-0.375000X0.625000X-0.375000X-0.625000X0*%
%TD*%
%TA.AperFunction,SMDPad,CuDef*%
%ADD30RoundRect,0.500000X1.400000X-0.500000X1.400000X0.500000X-1.400000X0.500000X-1.400000X-0.500000X0*%
%TD*%
%TA.AperFunction,SMDPad,CuDef*%
%ADD31RoundRect,0.075000X-0.662500X-0.075000X0.662500X-0.075000X0.662500X0.075000X-0.662500X0.075000X0*%
%TD*%
%TA.AperFunction,SMDPad,CuDef*%
%ADD32RoundRect,0.075000X-0.075000X-0.662500X0.075000X-0.662500X0.075000X0.662500X-0.075000X0.662500X0*%
%TD*%
%TA.AperFunction,SMDPad,CuDef*%
%ADD33RoundRect,0.250000X0.475000X-0.250000X0.475000X0.250000X-0.475000X0.250000X-0.475000X-0.250000X0*%
%TD*%
%TA.AperFunction,SMDPad,CuDef*%
%ADD34R,5.000000X5.000000*%
%TD*%
%TA.AperFunction,SMDPad,CuDef*%
%ADD35R,4.000000X4.000000*%
%TD*%
%TA.AperFunction,ViaPad*%
%ADD36C,0.600000*%
%TD*%
%TA.AperFunction,ViaPad*%
%ADD37C,8.000000*%
%TD*%
%TA.AperFunction,ViaPad*%
%ADD38C,0.500000*%
%TD*%
%TA.AperFunction,Conductor*%
%ADD39C,1.400000*%
%TD*%
%TA.AperFunction,Conductor*%
%ADD40C,1.000000*%
%TD*%
%TA.AperFunction,Conductor*%
%ADD41C,1.200000*%
%TD*%
%TA.AperFunction,Conductor*%
%ADD42C,0.300000*%
%TD*%
%TA.AperFunction,Conductor*%
%ADD43C,1.300000*%
%TD*%
G04 APERTURE END LIST*
%TO.N,/UCE board/VDD_MCU_CTL_3v3*%
D10*
X117500000Y-225474032D02*
X124000000Y-225474032D01*
X124000000Y-232772364D01*
X117500000Y-232772364D01*
X117500000Y-225474032D01*
%TA.AperFunction,Conductor*%
G36*
X117500000Y-225474032D02*
G01*
X124000000Y-225474032D01*
X124000000Y-232772364D01*
X117500000Y-232772364D01*
X117500000Y-225474032D01*
G37*
%TD.AperFunction*%
X120500000Y-228772364D02*
X121000000Y-228772364D01*
X120500000Y-228772364D01*
%TD*%
D11*
%TO.P,J13,259,259*%
%TO.N,GND*%
X243925000Y-131700000D03*
%TO.P,J13,257,257*%
%TO.N,unconnected-(J13-Pad257)*%
X243425000Y-131700000D03*
%TO.P,J13,255,255*%
%TO.N,unconnected-(J13-Pad255)*%
X242925000Y-131700000D03*
%TO.P,J13,253,253*%
%TO.N,unconnected-(J13-Pad253)*%
X242425000Y-131700000D03*
%TO.P,J13,251,251*%
%TO.N,unconnected-(J13-Pad251)*%
X241925000Y-131700000D03*
%TO.P,J13,249,249*%
%TO.N,unconnected-(J13-Pad249)*%
X241425000Y-131700000D03*
%TO.P,J13,247,247*%
%TO.N,unconnected-(J13-Pad247)*%
X240925000Y-131700000D03*
%TO.P,J13,245,245*%
%TO.N,unconnected-(J13-Pad245)*%
X240425000Y-131700000D03*
%TO.P,J13,243,243*%
%TO.N,unconnected-(J13-Pad243)*%
X239925000Y-131700000D03*
%TO.P,J13,241,241*%
%TO.N,unconnected-(J13-Pad241)*%
X239425000Y-131700000D03*
%TO.P,J13,239,239*%
%TO.N,unconnected-(J13-Pad239)*%
X238925000Y-131700000D03*
%TO.P,J13,237,237*%
%TO.N,unconnected-(J13-Pad237)*%
X238425000Y-131700000D03*
%TO.P,J13,235,235*%
%TO.N,unconnected-(J13-Pad235)*%
X237925000Y-131700000D03*
%TO.P,J13,233,233*%
%TO.N,unconnected-(J13-Pad233)*%
X237425000Y-131700000D03*
%TO.P,J13,231,231*%
%TO.N,unconnected-(J13-Pad231)*%
X236925000Y-131700000D03*
%TO.P,J13,229,229*%
%TO.N,PWR_GOOD*%
X236425000Y-131700000D03*
%TO.P,J13,227,227*%
%TO.N,VIO_BANK1*%
X235925000Y-131700000D03*
%TO.P,J13,225,225*%
%TO.N,VCC_3V3*%
X235425000Y-131700000D03*
%TO.P,J13,223,223*%
%TO.N,+5V*%
X234925000Y-131700000D03*
%TO.P,J13,221,221*%
%TO.N,GND*%
X234425000Y-131700000D03*
%TO.P,J13,219,219*%
%TO.N,MOD_TYPE0*%
X233925000Y-131700000D03*
%TO.P,J13,217,217*%
%TO.N,DBG_VREF*%
X233425000Y-131700000D03*
%TO.P,J13,215,215*%
%TO.N,DBG_TMS*%
X232925000Y-131700000D03*
%TO.P,J13,213,213*%
%TO.N,RESERVED*%
X232425000Y-131700000D03*
%TO.P,J13,211,211*%
X231925000Y-131700000D03*
%TO.P,J13,209,209*%
X231425000Y-131700000D03*
%TO.P,J13,207,207*%
X230925000Y-131700000D03*
%TO.P,J13,205,205*%
%TO.N,CLOCK_0*%
X230425000Y-131700000D03*
%TO.P,J13,203,203*%
%TO.N,GND*%
X229925000Y-131700000D03*
%TO.P,J13,201,201*%
%TO.N,VIO_BANK1*%
X229425000Y-131700000D03*
%TO.P,J13,199,199*%
%TO.N,VCC_1V8*%
X228925000Y-131700000D03*
%TO.P,J13,197,197*%
%TO.N,+5V*%
X228425000Y-131700000D03*
%TO.P,J13,195,195*%
%TO.N,GND*%
X227925000Y-131700000D03*
%TO.P,J13,193,193*%
%TO.N,SDIO_D3*%
X227425000Y-131700000D03*
%TO.P,J13,191,191*%
%TO.N,SDIO_CMD*%
X226925000Y-131700000D03*
%TO.P,J13,189,189*%
%TO.N,NET_CTL2_ODD*%
X226425000Y-131700000D03*
%TO.P,J13,187,187*%
%TO.N,RMII_RXD1*%
X225925000Y-131700000D03*
%TO.P,J13,185,185*%
%TO.N,NET_RST_N*%
X225425000Y-131700000D03*
%TO.P,J13,183,183*%
%TO.N,NET_D0_EVEN*%
X224925000Y-131700000D03*
%TO.P,J13,181,181*%
%TO.N,I2S_DIN*%
X224425000Y-131700000D03*
%TO.P,J13,179,179*%
%TO.N,AOUT1*%
X223925000Y-131700000D03*
%TO.P,J13,177,177*%
%TO.N,AIN6*%
X223425000Y-131700000D03*
%TO.P,J13,175,175*%
%TO.N,AIN4*%
X222925000Y-131700000D03*
%TO.P,J13,173,173*%
%TO.N,PWM7*%
X222425000Y-131700000D03*
%TO.P,J13,171,171*%
%TO.N,PWM5*%
X221925000Y-131700000D03*
%TO.P,J13,169,169*%
%TO.N,GPIO15*%
X221425000Y-131700000D03*
%TO.P,J13,167,167*%
%TO.N,GPIO13*%
X220925000Y-131700000D03*
%TO.P,J13,165,165*%
%TO.N,GPIO11*%
X220425000Y-131700000D03*
%TO.P,J13,163,163*%
%TO.N,GPIO9*%
X219925000Y-131700000D03*
%TO.P,J13,161,161*%
%TO.N,SPI1_CS2*%
X219425000Y-131700000D03*
%TO.P,J13,159,159*%
%TO.N,SPI1_MOSI*%
X218925000Y-131700000D03*
%TO.P,J13,157,157*%
%TO.N,SPI0_CS0*%
X218425000Y-131700000D03*
%TO.P,J13,155,155*%
%TO.N,GND*%
X217925000Y-131700000D03*
%TO.P,J13,153,153*%
%TO.N,UART0_RTS*%
X217425000Y-131700000D03*
%TO.P,J13,151,151*%
%TO.N,UART2_RX*%
X216925000Y-131700000D03*
%TO.P,J13,149,149*%
%TO.N,UART0_RX*%
X216425000Y-131700000D03*
%TO.P,J13,147,147*%
%TO.N,I2C1_SDA*%
X215925000Y-131700000D03*
%TO.P,J13,145,145*%
%TO.N,MCU_BOOT1*%
X215425000Y-131700000D03*
%TO.P,J13,143,143*%
%TO.N,GND*%
X212925000Y-131700000D03*
%TO.P,J13,141,141*%
X212425000Y-131700000D03*
%TO.P,J13,139,139*%
%TO.N,VIO_BANK3*%
X211925000Y-131700000D03*
%TO.P,J13,137,137*%
%TO.N,VREF_IO*%
X211425000Y-131700000D03*
%TO.P,J13,135,135*%
%TO.N,VCC_1V8*%
X210925000Y-131700000D03*
%TO.P,J13,133,133*%
%TO.N,GND*%
X210425000Y-131700000D03*
%TO.P,J13,131,131*%
%TO.N,unconnected-(J13-Pad131)*%
X209925000Y-131700000D03*
%TO.P,J13,129,129*%
%TO.N,GND*%
X209425000Y-131700000D03*
%TO.P,J13,127,127*%
%TO.N,unconnected-(J13-Pad127)*%
X208925000Y-131700000D03*
%TO.P,J13,125,125*%
%TO.N,unconnected-(J13-Pad125)*%
X208425000Y-131700000D03*
%TO.P,J13,123,123*%
%TO.N,unconnected-(J13-Pad123)*%
X207925000Y-131700000D03*
%TO.P,J13,121,121*%
%TO.N,unconnected-(J13-Pad121)*%
X207425000Y-131700000D03*
%TO.P,J13,119,119*%
%TO.N,unconnected-(J13-Pad119)*%
X206925000Y-131700000D03*
%TO.P,J13,117,117*%
%TO.N,unconnected-(J13-Pad117)*%
X206425000Y-131700000D03*
%TO.P,J13,115,115*%
%TO.N,unconnected-(J13-Pad115)*%
X205925000Y-131700000D03*
%TO.P,J13,113,113*%
%TO.N,unconnected-(J13-Pad113)*%
X205425000Y-131700000D03*
%TO.P,J13,111,111*%
%TO.N,unconnected-(J13-Pad111)*%
X204925000Y-131700000D03*
%TO.P,J13,109,109*%
%TO.N,unconnected-(J13-Pad109)*%
X204425000Y-131700000D03*
%TO.P,J13,107,107*%
%TO.N,unconnected-(J13-Pad107)*%
X203925000Y-131700000D03*
%TO.P,J13,105,105*%
%TO.N,unconnected-(J13-Pad105)*%
X203425000Y-131700000D03*
%TO.P,J13,103,103*%
%TO.N,unconnected-(J13-Pad103)*%
X202925000Y-131700000D03*
%TO.P,J13,101,101*%
%TO.N,unconnected-(J13-Pad101)*%
X202425000Y-131700000D03*
%TO.P,J13,99,99*%
%TO.N,I2C_SCL_MCU_CTL*%
X201925000Y-131700000D03*
%TO.P,J13,97,97*%
%TO.N,VIO_BANK2*%
X201425000Y-131700000D03*
%TO.P,J13,95,95*%
%TO.N,VREF_IO*%
X200925000Y-131700000D03*
%TO.P,J13,93,93*%
%TO.N,VCC_3V3*%
X200425000Y-131700000D03*
%TO.P,J13,91,91*%
%TO.N,GND*%
X199925000Y-131700000D03*
%TO.P,J13,89,89*%
%TO.N,MOD_TYPE1*%
X199425000Y-131700000D03*
%TO.P,J13,87,87*%
%TO.N,DBG_UART_TX*%
X198925000Y-131700000D03*
%TO.P,J13,85,85*%
%TO.N,DBG_TDI*%
X198425000Y-131700000D03*
%TO.P,J13,83,83*%
%TO.N,DBG_SWDIO*%
X197925000Y-131700000D03*
%TO.P,J13,81,81*%
%TO.N,RESERVED*%
X197425000Y-131700000D03*
%TO.P,J13,79,79*%
X196925000Y-131700000D03*
%TO.P,J13,77,77*%
X196425000Y-131700000D03*
%TO.P,J13,75,75*%
X195925000Y-131700000D03*
%TO.P,J13,73,73*%
%TO.N,GND*%
X195425000Y-131700000D03*
%TO.P,J13,71,71*%
%TO.N,VIO_BANK2*%
X194925000Y-131700000D03*
%TO.P,J13,69,69*%
%TO.N,VREF_IO*%
X194425000Y-131700000D03*
%TO.P,J13,67,67*%
%TO.N,VCC_3V3*%
X193925000Y-131700000D03*
%TO.P,J13,65,65*%
%TO.N,GND*%
X193425000Y-131700000D03*
%TO.P,J13,63,63*%
%TO.N,RESERVED*%
X192925000Y-131700000D03*
%TO.P,J13,61,61*%
%TO.N,SDIO_CLK*%
X192425000Y-131700000D03*
%TO.P,J13,59,59*%
%TO.N,MDIO*%
X191925000Y-131700000D03*
%TO.P,J13,57,57*%
%TO.N,NET_CTL0_ODD*%
X191425000Y-131700000D03*
%TO.P,J13,55,55*%
%TO.N,RMII_TXD0*%
X190925000Y-131700000D03*
%TO.P,J13,53,53*%
%TO.N,NET_D2_EVEN*%
X190425000Y-131700000D03*
%TO.P,J13,51,51*%
%TO.N,I2S_MCLK*%
X189925000Y-131700000D03*
%TO.P,J13,49,49*%
%TO.N,I2S_BCLK*%
X189425000Y-131700000D03*
%TO.P,J13,47,47*%
%TO.N,AIN3*%
X188925000Y-131700000D03*
%TO.P,J13,45,45*%
%TO.N,AIN1*%
X188425000Y-131700000D03*
%TO.P,J13,43,43*%
%TO.N,IR_RX_IN*%
X187925000Y-131700000D03*
%TO.P,J13,41,41*%
%TO.N,PWM2*%
X187425000Y-131700000D03*
%TO.P,J13,39,39*%
%TO.N,PWM0*%
X186925000Y-131700000D03*
%TO.P,J13,37,37*%
%TO.N,GPIO6*%
X186425000Y-131700000D03*
%TO.P,J13,35,35*%
%TO.N,GPIO4*%
X185925000Y-131700000D03*
%TO.P,J13,33,33*%
%TO.N,GPIO2*%
X185425000Y-131700000D03*
%TO.P,J13,31,31*%
%TO.N,GPIO0*%
X184925000Y-131700000D03*
%TO.P,J13,29,29*%
%TO.N,SPI1_MISO*%
X184425000Y-131700000D03*
%TO.P,J13,27,27*%
%TO.N,SPI0_CS1*%
X183925000Y-131700000D03*
%TO.P,J13,25,25*%
%TO.N,SPI0_SCK*%
X183425000Y-131700000D03*
%TO.P,J13,23,23*%
%TO.N,UART0_DSR*%
X182925000Y-131700000D03*
%TO.P,J13,21,21*%
%TO.N,UART3_TX*%
X182425000Y-131700000D03*
%TO.P,J13,19,19*%
%TO.N,UART1_TX*%
X181925000Y-131700000D03*
%TO.P,J13,17,17*%
%TO.N,I2C2_SCL*%
X181425000Y-131700000D03*
%TO.P,J13,15,15*%
%TO.N,I2C0_SCL*%
X180925000Y-131700000D03*
%TO.P,J13,13,13*%
%TO.N,MCU_RST_N*%
X180425000Y-131700000D03*
%TO.P,J13,11,11*%
%TO.N,GND*%
X179925000Y-131700000D03*
%TO.P,J13,9,9*%
%TO.N,PWR_GOOD*%
X179425000Y-131700000D03*
%TO.P,J13,7,7*%
%TO.N,VIO_BANK0*%
X178925000Y-131700000D03*
%TO.P,J13,5,5*%
%TO.N,VCC_1V8*%
X178425000Y-131700000D03*
%TO.P,J13,3,3*%
%TO.N,+5V*%
X177925000Y-131700000D03*
%TO.P,J13,1,1*%
%TO.N,GND*%
X177425000Y-131700000D03*
%TD*%
D12*
%TO.P,IC3,1,IP+*%
%TO.N,+12v Shunt*%
X136526536Y-209272364D03*
%TO.P,IC3,2,IP-*%
%TO.N,+12V*%
X138426536Y-209272364D03*
%TO.P,IC3,3,GND*%
%TO.N,GND*%
X138426536Y-206872364D03*
%TO.P,IC3,4,VOUT*%
%TO.N,/UCE board/+12v Shunt Out*%
X137476536Y-206872364D03*
%TO.P,IC3,5,VDD*%
%TO.N,+5v Shunt*%
X136526536Y-206872364D03*
%TD*%
%TO.P,IC2,1,IP+*%
%TO.N,+5v Shunt*%
X136461764Y-197941679D03*
%TO.P,IC2,2,IP-*%
%TO.N,+5V*%
X138361764Y-197941679D03*
%TO.P,IC2,3,GND*%
%TO.N,GND*%
X138361764Y-195541679D03*
%TO.P,IC2,4,VOUT*%
%TO.N,/UCE board/+5v Shunt Out*%
X137411764Y-195541679D03*
%TO.P,IC2,5,VDD*%
%TO.N,+5v Shunt*%
X136461764Y-195541679D03*
%TD*%
%TO.P,IC1,1,IP+*%
%TO.N,+3v3 Shunt*%
X136500000Y-186772364D03*
%TO.P,IC1,2,IP-*%
%TO.N,+3.3V*%
X138400000Y-186772364D03*
%TO.P,IC1,3,GND*%
%TO.N,GND*%
X138400000Y-184372364D03*
%TO.P,IC1,4,VOUT*%
%TO.N,/UCE board/+3.3v Shunt Out*%
X137450000Y-184372364D03*
%TO.P,IC1,5,VDD*%
%TO.N,+5v Shunt*%
X136500000Y-184372364D03*
%TD*%
D13*
%TO.P,PS1,1,+VIN(VCC)*%
%TO.N,+24V*%
X111250000Y-190772364D03*
%TO.P,PS1,2,-VIN(GND)*%
%TO.N,GND*%
X111250000Y-188772364D03*
%TO.P,PS1,4,ON/OFF*%
%TO.N,/Power/Power Rails/UCE_MCU_VCTL_3v3*%
X111250000Y-184772364D03*
%TO.P,PS1,5,NC*%
%TO.N,unconnected-(PS1-NC-Pad5)*%
X120750000Y-190772364D03*
%TO.P,PS1,6,-VOUT*%
%TO.N,GND*%
X120750000Y-188772364D03*
%TO.P,PS1,7,+VOUT*%
%TO.N,+3v3 Shunt*%
X120750000Y-186772364D03*
%TD*%
D14*
%TO.P,J19,1*%
%TO.N,GND*%
X197339449Y-329692041D03*
D15*
%TO.P,J19,2*%
X199879449Y-329692041D03*
%TO.P,J19,3*%
X202419449Y-329692041D03*
%TO.P,J19,4*%
X204959449Y-329692041D03*
%TO.P,J19,5*%
X207499449Y-329692041D03*
%TO.P,J19,6*%
X210039449Y-329692041D03*
%TO.P,J19,7*%
X212579449Y-329692041D03*
%TO.P,J19,8*%
X215119449Y-329692041D03*
%TO.P,J19,9*%
X217659449Y-329692041D03*
%TO.P,J19,10*%
X220199449Y-329692041D03*
%TO.P,J19,11*%
X222739449Y-329692041D03*
%TO.P,J19,12*%
X225279449Y-329692041D03*
%TO.P,J19,13*%
X227819449Y-329692041D03*
%TO.P,J19,14*%
X230359449Y-329692041D03*
%TO.P,J19,15*%
X232899449Y-329692041D03*
%TO.P,J19,16*%
X235439449Y-329692041D03*
%TO.P,J19,17*%
X237979449Y-329692041D03*
%TO.P,J19,18*%
X240519449Y-329692041D03*
%TO.P,J19,19*%
X243059449Y-329692041D03*
%TO.P,J19,20*%
X245599449Y-329692041D03*
%TD*%
D14*
%TO.P,J17,1*%
%TO.N,GND*%
X76040000Y-329692364D03*
D15*
%TO.P,J17,2*%
X78580000Y-329692364D03*
%TO.P,J17,3*%
X81120000Y-329692364D03*
%TO.P,J17,4*%
X83660000Y-329692364D03*
%TO.P,J17,5*%
X86200000Y-329692364D03*
%TO.P,J17,6*%
X88740000Y-329692364D03*
%TO.P,J17,7*%
X91280000Y-329692364D03*
%TO.P,J17,8*%
X93820000Y-329692364D03*
%TO.P,J17,9*%
X96360000Y-329692364D03*
%TO.P,J17,10*%
X98900000Y-329692364D03*
%TO.P,J17,11*%
X101440000Y-329692364D03*
%TO.P,J17,12*%
X103980000Y-329692364D03*
%TO.P,J17,13*%
X106520000Y-329692364D03*
%TO.P,J17,14*%
X109060000Y-329692364D03*
%TO.P,J17,15*%
X111600000Y-329692364D03*
%TO.P,J17,16*%
X114140000Y-329692364D03*
%TO.P,J17,17*%
X116680000Y-329692364D03*
%TO.P,J17,18*%
X119220000Y-329692364D03*
%TO.P,J17,19*%
X121760000Y-329692364D03*
%TO.P,J17,20*%
X124300000Y-329692364D03*
%TD*%
D13*
%TO.P,PS3,1,+VIN(VCC)*%
%TO.N,+24V*%
X111250000Y-213272364D03*
%TO.P,PS3,2,-VIN(GND)*%
%TO.N,GND*%
X111250000Y-211272364D03*
%TO.P,PS3,4,ON/OFF*%
%TO.N,/Power/Power Rails/UCE_MCU_VCTL_12v*%
X111250000Y-207272364D03*
%TO.P,PS3,5,NC*%
%TO.N,unconnected-(PS3-NC-Pad5)*%
X120750000Y-213272364D03*
%TO.P,PS3,6,-VOUT*%
%TO.N,GND*%
X120750000Y-211272364D03*
%TO.P,PS3,7,+VOUT*%
%TO.N,+12v Shunt*%
X120750000Y-209272364D03*
%TD*%
D14*
%TO.P,J10,1,Pin_1*%
%TO.N,SDIO_CLK*%
X197000000Y-309312364D03*
D15*
%TO.P,J10,2,Pin_2*%
%TO.N,SDIO_CMD*%
X197000000Y-306772364D03*
%TO.P,J10,3,Pin_3*%
%TO.N,SDIO_CLK*%
X199540000Y-309312364D03*
%TO.P,J10,4,Pin_4*%
%TO.N,SDIO_D1*%
X199540000Y-306772364D03*
%TO.P,J10,5,Pin_5*%
%TO.N,SDIO_D2*%
X202080000Y-309312364D03*
%TO.P,J10,6,Pin_6*%
%TO.N,SDIO_D3*%
X202080000Y-306772364D03*
%TO.P,J10,7,Pin_7*%
%TO.N,GND*%
X204620000Y-309312364D03*
%TO.P,J10,8,Pin_8*%
X204620000Y-306772364D03*
%TO.P,J10,9,Pin_9*%
X207160000Y-309312364D03*
%TO.P,J10,10,Pin_10*%
X207160000Y-306772364D03*
%TO.P,J10,11,Pin_11*%
%TO.N,+12V*%
X209700000Y-309312364D03*
%TO.P,J10,12,Pin_12*%
X209700000Y-306772364D03*
%TO.P,J10,13,Pin_13*%
%TO.N,+5V*%
X212240000Y-309312364D03*
%TO.P,J10,14,Pin_14*%
X212240000Y-306772364D03*
%TO.P,J10,15,Pin_15*%
%TO.N,VCC_3V3*%
X214780000Y-309312364D03*
%TO.P,J10,16,Pin_16*%
X214780000Y-306772364D03*
%TO.P,J10,17,Pin_17*%
%TO.N,VCC_1V8*%
X217320000Y-309312364D03*
%TO.P,J10,18,Pin_18*%
X217320000Y-306772364D03*
%TO.P,J10,19,Pin_19*%
%TO.N,VREF_IO*%
X219860000Y-309312364D03*
%TO.P,J10,20,Pin_20*%
X219860000Y-306772364D03*
%TO.P,J10,21,Pin_21*%
%TO.N,VIO_BANK0*%
X222400000Y-309312364D03*
%TO.P,J10,22,Pin_22*%
%TO.N,VIO_BANK1*%
X222400000Y-306772364D03*
%TO.P,J10,23,Pin_23*%
%TO.N,VIO_BANK2*%
X224940000Y-309312364D03*
%TO.P,J10,24,Pin_24*%
%TO.N,VIO_BANK3*%
X224940000Y-306772364D03*
%TO.P,J10,25,Pin_25*%
%TO.N,GND*%
X227480000Y-309312364D03*
%TO.P,J10,26,Pin_26*%
X227480000Y-306772364D03*
%TO.P,J10,27,Pin_27*%
X230020000Y-309312364D03*
%TO.P,J10,28,Pin_28*%
X230020000Y-306772364D03*
%TO.P,J10,29,Pin_29*%
%TO.N,CLOCK_0*%
X232560000Y-309312364D03*
%TO.P,J10,30,Pin_30*%
X232560000Y-306772364D03*
%TO.P,J10,31,Pin_31*%
%TO.N,RESERVED*%
X235100000Y-309312364D03*
%TO.P,J10,32,Pin_32*%
X235100000Y-306772364D03*
%TO.P,J10,33,Pin_33*%
%TO.N,DBG_SWDIO*%
X237640000Y-309312364D03*
%TO.P,J10,34,Pin_34*%
%TO.N,DBG_SWCLK*%
X237640000Y-306772364D03*
%TO.P,J10,35,Pin_35*%
%TO.N,DBG_TCK*%
X240180000Y-309312364D03*
%TO.P,J10,36,Pin_36*%
%TO.N,DBG_TMS*%
X240180000Y-306772364D03*
%TO.P,J10,37,Pin_37*%
%TO.N,DBG_TDI*%
X242720000Y-309312364D03*
%TO.P,J10,38,Pin_38*%
%TO.N,DBG_TDO*%
X242720000Y-306772364D03*
%TO.P,J10,39,Pin_39*%
%TO.N,DBG_RESET_N*%
X245260000Y-309312364D03*
%TO.P,J10,40,Pin_40*%
%TO.N,DBG_VREF*%
X245260000Y-306772364D03*
%TO.P,J10,41,Pin_41*%
%TO.N,DBG_UART_TX*%
X247800000Y-309312364D03*
%TO.P,J10,42,Pin_42*%
%TO.N,DBG_UART_RX*%
X247800000Y-306772364D03*
%TO.P,J10,43,Pin_43*%
%TO.N,MOD_PRESENT_N*%
X250340000Y-309312364D03*
%TO.P,J10,44,Pin_44*%
%TO.N,MOD_TYPE0*%
X250340000Y-306772364D03*
%TO.P,J10,45,Pin_45*%
%TO.N,MOD_TYPE1*%
X252880000Y-309312364D03*
%TO.P,J10,46,Pin_46*%
%TO.N,MOD_TYPE2*%
X252880000Y-306772364D03*
%TO.P,J10,47,Pin_47*%
%TO.N,GND*%
X255420000Y-309312364D03*
%TO.P,J10,48,Pin_48*%
X255420000Y-306772364D03*
%TO.P,J10,49,Pin_49*%
X257960000Y-309312364D03*
%TO.P,J10,50,Pin_50*%
X257960000Y-306772364D03*
%TO.P,J10,51,Pin_51*%
%TO.N,+5V*%
X260500000Y-309312364D03*
%TO.P,J10,52,Pin_52*%
X260500000Y-306772364D03*
%TO.P,J10,53,Pin_53*%
%TO.N,VCC_3V3*%
X263040000Y-309312364D03*
%TO.P,J10,54,Pin_54*%
%TO.N,VCC_1V8*%
X263040000Y-306772364D03*
%TO.P,J10,55,Pin_55*%
X265580000Y-309312364D03*
%TO.P,J10,56,Pin_56*%
%TO.N,VCC_3V3*%
X265580000Y-306772364D03*
%TO.P,J10,57,Pin_57*%
%TO.N,VREF_IO*%
X268120000Y-309312364D03*
%TO.P,J10,58,Pin_58*%
X268120000Y-306772364D03*
%TO.P,J10,59,Pin_59*%
%TO.N,VIO_BANK0*%
X270660000Y-309312364D03*
%TO.P,J10,60,Pin_60*%
%TO.N,VIO_BANK1*%
X270660000Y-306772364D03*
%TO.P,J10,61,Pin_61*%
%TO.N,VIO_BANK2*%
X273200000Y-309312364D03*
%TO.P,J10,62,Pin_62*%
%TO.N,VIO_BANK3*%
X273200000Y-306772364D03*
%TO.P,J10,63,Pin_63*%
%TO.N,PWR_GOOD*%
X275740000Y-309312364D03*
%TO.P,J10,64,Pin_64*%
X275740000Y-306772364D03*
%TO.P,J10,65,Pin_65*%
%TO.N,unconnected-(J10-Pin_65-Pad65)*%
X278280000Y-309312364D03*
%TO.P,J10,66,Pin_66*%
%TO.N,RESERVED*%
X278280000Y-306772364D03*
%TO.P,J10,67,Pin_67*%
%TO.N,unconnected-(J10-Pin_67-Pad67)*%
X280820000Y-309312364D03*
%TO.P,J10,68,Pin_68*%
%TO.N,unconnected-(J10-Pin_68-Pad68)*%
X280820000Y-306772364D03*
%TO.P,J10,69,Pin_69*%
%TO.N,unconnected-(J10-Pin_69-Pad69)*%
X283360000Y-309312364D03*
%TO.P,J10,70,Pin_70*%
%TO.N,unconnected-(J10-Pin_70-Pad70)*%
X283360000Y-306772364D03*
%TO.P,J10,71,Pin_71*%
%TO.N,unconnected-(J10-Pin_71-Pad71)*%
X285900000Y-309312364D03*
%TO.P,J10,72,Pin_72*%
%TO.N,unconnected-(J10-Pin_72-Pad72)*%
X285900000Y-306772364D03*
%TO.P,J10,73,Pin_73*%
%TO.N,unconnected-(J10-Pin_73-Pad73)*%
X288440000Y-309312364D03*
%TO.P,J10,74,Pin_74*%
%TO.N,unconnected-(J10-Pin_74-Pad74)*%
X288440000Y-306772364D03*
%TO.P,J10,75,Pin_75*%
%TO.N,unconnected-(J10-Pin_75-Pad75)*%
X290980000Y-309312364D03*
%TO.P,J10,76,Pin_76*%
%TO.N,unconnected-(J10-Pin_76-Pad76)*%
X290980000Y-306772364D03*
%TO.P,J10,77,Pin_77*%
%TO.N,GND*%
X293520000Y-309312364D03*
%TO.P,J10,78,Pin_78*%
X293520000Y-306772364D03*
%TO.P,J10,79,Pin_79*%
X296060000Y-309312364D03*
%TO.P,J10,80,Pin_80*%
X296060000Y-306772364D03*
%TD*%
D16*
%TO.P,J3,1,Pin_1*%
%TO.N,GND*%
X88000000Y-219772364D03*
D15*
%TO.P,J3,2,Pin_2*%
X90540000Y-219772364D03*
%TO.P,J3,3,Pin_3*%
%TO.N,VCC_3V3*%
X88000000Y-222312364D03*
%TO.P,J3,4,Pin_4*%
X90540000Y-222312364D03*
%TO.P,J3,5,Pin_5*%
%TO.N,NET_CLK_ODD*%
X88000000Y-224852364D03*
%TO.P,J3,6,Pin_6*%
%TO.N,NET_CLK_EVEN*%
X90540000Y-224852364D03*
%TO.P,J3,7,Pin_7*%
%TO.N,MDIO*%
X88000000Y-227392364D03*
%TO.P,J3,8,Pin_8*%
%TO.N,NET_CMD_EVEN*%
X90540000Y-227392364D03*
%TO.P,J3,9,Pin_9*%
%TO.N,NET_D0_ODD*%
X88000000Y-229932364D03*
%TO.P,J3,10,Pin_10*%
%TO.N,NET_D0_EVEN*%
X90540000Y-229932364D03*
%TO.P,J3,11,Pin_11*%
%TO.N,NET_D1_ODD*%
X88000000Y-232472364D03*
%TO.P,J3,12,Pin_12*%
%TO.N,NET_D1_EVEN*%
X90540000Y-232472364D03*
%TO.P,J3,13,Pin_13*%
%TO.N,NET_D2_ODD*%
X88000000Y-235012364D03*
%TO.P,J3,14,Pin_14*%
%TO.N,NET_D2_EVEN*%
X90540000Y-235012364D03*
%TO.P,J3,15,Pin_15*%
%TO.N,NET_D3_ODD*%
X88000000Y-237552364D03*
%TO.P,J3,16,Pin_16*%
%TO.N,NET_D2_EVEN*%
X90540000Y-237552364D03*
%TO.P,J3,17,Pin_17*%
%TO.N,NET_CTL0_ODD*%
X88000000Y-240092364D03*
%TO.P,J3,18,Pin_18*%
%TO.N,NET_CTL0_EVEN*%
X90540000Y-240092364D03*
%TO.P,J3,19,Pin_19*%
%TO.N,NET_CTL1_ODD*%
X88000000Y-242632364D03*
%TO.P,J3,20,Pin_20*%
%TO.N,NET_CTL1_EVEN*%
X90540000Y-242632364D03*
%TO.P,J3,21,Pin_21*%
%TO.N,NET_CTL2_ODD*%
X88000000Y-245172364D03*
%TO.P,J3,22,Pin_22*%
%TO.N,NET_CTL2_EVEN*%
X90540000Y-245172364D03*
%TO.P,J3,23,Pin_23*%
%TO.N,NET_CTL2_ODD*%
X88000000Y-247712364D03*
%TO.P,J3,24,Pin_24*%
%TO.N,NET_SPI_RST_N*%
X90540000Y-247712364D03*
%TD*%
D17*
%TO.P,U1,1,TP*%
%TO.N,unconnected-(U1-TP-Pad1)*%
X109788000Y-249367364D03*
%TO.P,U1,2,Vin*%
%TO.N,+12V*%
X109788000Y-250637364D03*
%TO.P,U1,3,~{Sleep}*%
X109788000Y-251907364D03*
%TO.P,U1,4,GND*%
%TO.N,GND*%
X109788000Y-253177364D03*
%TO.P,U1,5,TP*%
%TO.N,unconnected-(U1-TP-Pad5)*%
X115212000Y-253177364D03*
%TO.P,U1,6,Vout*%
%TO.N,/UCE board/VDDA_MCU_CTL_3*%
X115212000Y-251907364D03*
%TO.P,U1,7,NC*%
%TO.N,unconnected-(U1-NC-Pad7)*%
X115212000Y-250637364D03*
%TO.P,U1,8,NC*%
%TO.N,unconnected-(U1-NC-Pad8)*%
X115212000Y-249367364D03*
%TD*%
D18*
%TO.P,J4,1,Pin_1*%
%TO.N,DBG_VREF*%
X289940000Y-159312364D03*
D15*
%TO.P,J4,2,Pin_2*%
%TO.N,GND*%
X289940000Y-156772364D03*
%TO.P,J4,3,Pin_3*%
%TO.N,DBG_TMS*%
X292480000Y-159312364D03*
%TO.P,J4,4,Pin_4*%
%TO.N,GND*%
X292480000Y-156772364D03*
%TO.P,J4,5,Pin_5*%
%TO.N,DBG_TCK*%
X295020000Y-159312364D03*
%TO.P,J4,6,Pin_6*%
%TO.N,GND*%
X295020000Y-156772364D03*
%TO.P,J4,7,Pin_7*%
%TO.N,DBG_TDO*%
X297560000Y-159312364D03*
%TO.P,J4,8,Pin_8*%
%TO.N,GND*%
X297560000Y-156772364D03*
%TO.P,J4,9,Pin_9*%
%TO.N,DBG_TDI*%
X300100000Y-159312364D03*
%TO.P,J4,10,Pin_10*%
%TO.N,GND*%
X300100000Y-156772364D03*
%TO.P,J4,11,Pin_11*%
%TO.N,DBG_RESET_N*%
X302640000Y-159312364D03*
%TO.P,J4,12,Pin_12*%
%TO.N,GND*%
X302640000Y-156772364D03*
%TO.P,J4,13,Pin_13*%
%TO.N,DBG_SWDIO*%
X305180000Y-159312364D03*
%TO.P,J4,14,Pin_14*%
%TO.N,DBG_SWCLK*%
X305180000Y-156772364D03*
%TO.P,J4,15,Pin_15*%
%TO.N,DBG_UART_TX*%
X307720000Y-159312364D03*
%TO.P,J4,16,Pin_16*%
%TO.N,DBG_UART_RX*%
X307720000Y-156772364D03*
%TO.P,J4,17,Pin_17*%
%TO.N,MOD_PRESENT_N*%
X310260000Y-159312364D03*
%TO.P,J4,18,Pin_18*%
%TO.N,MOD_TYPE1*%
X310260000Y-156772364D03*
%TO.P,J4,19,Pin_19*%
%TO.N,MOD_TYPE0*%
X312800000Y-159312364D03*
%TO.P,J4,20,Pin_20*%
%TO.N,MOD_TYPE2*%
X312800000Y-156772364D03*
%TO.P,J4,21,Pin_21*%
%TO.N,GND*%
X315340000Y-159312364D03*
%TO.P,J4,22,Pin_22*%
X315340000Y-156772364D03*
%TO.P,J4,23,Pin_23*%
%TO.N,unconnected-(J4-Pin_23-Pad23)*%
X317880000Y-159312364D03*
%TO.P,J4,24,Pin_24*%
%TO.N,unconnected-(J4-Pin_24-Pad24)*%
X317880000Y-156772364D03*
%TO.P,J4,25,Pin_25*%
%TO.N,unconnected-(J4-Pin_25-Pad25)*%
X320420000Y-159312364D03*
%TO.P,J4,26,Pin_26*%
%TO.N,unconnected-(J4-Pin_26-Pad26)*%
X320420000Y-156772364D03*
%TO.P,J4,27,Pin_27*%
%TO.N,unconnected-(J4-Pin_27-Pad27)*%
X322960000Y-159312364D03*
%TO.P,J4,28,Pin_28*%
%TO.N,unconnected-(J4-Pin_28-Pad28)*%
X322960000Y-156772364D03*
%TO.P,J4,29,Pin_29*%
%TO.N,GND*%
X325500000Y-159312364D03*
%TO.P,J4,30,Pin_30*%
X325500000Y-156772364D03*
D19*
%TO.P,J4,MP*%
%TO.N,N/C*%
X281000000Y-158292364D03*
X334440000Y-158292364D03*
%TD*%
D20*
%TO.P,C1,1*%
%TO.N,GND*%
X127500000Y-240772364D03*
%TO.P,C1,2*%
%TO.N,/UCE board/VDD_MCU_CTL_3v3*%
X125600000Y-240772364D03*
%TD*%
D14*
%TO.P,J24,1*%
%TO.N,unconnected-(J24-Pad1)*%
X97740000Y-319812364D03*
D15*
%TO.P,J24,2*%
%TO.N,unconnected-(J24-Pad2)*%
X97740000Y-317272364D03*
%TO.P,J24,3*%
%TO.N,unconnected-(J24-Pad3)*%
X100280000Y-319812364D03*
%TO.P,J24,4*%
%TO.N,unconnected-(J24-Pad4)*%
X100280000Y-317272364D03*
%TD*%
D21*
%TO.P,C3,1*%
%TO.N,GND*%
X111050000Y-244772364D03*
%TO.P,C3,2*%
%TO.N,/UCE board/VDD_MCU_CTL_3v3*%
X112950000Y-244772364D03*
%TD*%
D14*
%TO.P,J23,1*%
%TO.N,GND*%
X340510000Y-329692364D03*
D15*
%TO.P,J23,2*%
X343050000Y-329692364D03*
%TO.P,J23,3*%
X345590000Y-329692364D03*
%TO.P,J23,4*%
X348130000Y-329692364D03*
%TO.P,J23,5*%
X350670000Y-329692364D03*
%TO.P,J23,6*%
X353210000Y-329692364D03*
%TO.P,J23,7*%
X355750000Y-329692364D03*
%TO.P,J23,8*%
X358290000Y-329692364D03*
%TO.P,J23,9*%
X360830000Y-329692364D03*
%TO.P,J23,10*%
X363370000Y-329692364D03*
%TD*%
D16*
%TO.P,J5,1,Pin_1*%
%TO.N,GND*%
X288500000Y-231772364D03*
D15*
%TO.P,J5,2,Pin_2*%
%TO.N,VCC_3V3*%
X291040000Y-231772364D03*
%TO.P,J5,3,Pin_3*%
%TO.N,SDIO_CLK*%
X288500000Y-234312364D03*
%TO.P,J5,4,Pin_4*%
%TO.N,SDIO_CMD*%
X291040000Y-234312364D03*
%TO.P,J5,5,Pin_5*%
%TO.N,SDIO_CLK*%
X288500000Y-236852364D03*
%TO.P,J5,6,Pin_6*%
%TO.N,SDIO_D1*%
X291040000Y-236852364D03*
%TO.P,J5,7,Pin_7*%
%TO.N,SDIO_D2*%
X288500000Y-239392364D03*
%TO.P,J5,8,Pin_8*%
%TO.N,SDIO_D3*%
X291040000Y-239392364D03*
%TO.P,J5,9,Pin_9*%
%TO.N,WIFI_EN*%
X288500000Y-241932364D03*
%TO.P,J5,10,Pin_10*%
%TO.N,WIFI_RST_N*%
X291040000Y-241932364D03*
%TO.P,J5,11,Pin_11*%
%TO.N,WIFI_INT_N*%
X288500000Y-244472364D03*
%TO.P,J5,12,Pin_12*%
%TO.N,UART0_TX*%
X291040000Y-244472364D03*
%TO.P,J5,13,Pin_13*%
%TO.N,unconnected-(J5-Pin_13-Pad13)*%
X288500000Y-247012364D03*
%TO.P,J5,14,Pin_14*%
%TO.N,UART0_RX*%
X291040000Y-247012364D03*
%TO.P,J5,15,Pin_15*%
%TO.N,unconnected-(J5-Pin_15-Pad15)*%
X288500000Y-249552364D03*
%TO.P,J5,16,Pin_16*%
%TO.N,GND*%
X291040000Y-249552364D03*
%TD*%
D13*
%TO.P,PS2,1,+VIN(VCC)*%
%TO.N,+24V*%
X111250000Y-201922364D03*
%TO.P,PS2,2,-VIN(GND)*%
%TO.N,GND*%
X111250000Y-199922364D03*
%TO.P,PS2,4,ON/OFF*%
%TO.N,/Power/Power Rails/UCE_MCU_VCTL_5V*%
X111250000Y-195922364D03*
%TO.P,PS2,5,NC*%
%TO.N,unconnected-(PS2-NC-Pad5)*%
X120750000Y-201922364D03*
%TO.P,PS2,6,-VOUT*%
%TO.N,GND*%
X120750000Y-199922364D03*
%TO.P,PS2,7,+VOUT*%
%TO.N,+5v Shunt*%
X120750000Y-197922364D03*
%TD*%
D14*
%TO.P,J9,1,Pin_1*%
%TO.N,unconnected-(J9-Pin_1-Pad1)*%
X78640000Y-309312364D03*
D15*
%TO.P,J9,2,Pin_2*%
%TO.N,unconnected-(J9-Pin_2-Pad2)*%
X78640000Y-306772364D03*
%TO.P,J9,3,Pin_3*%
%TO.N,GND*%
X81180000Y-309312364D03*
%TO.P,J9,4,Pin_4*%
X81180000Y-306772364D03*
%TO.P,J9,5,Pin_5*%
X83720000Y-309312364D03*
%TO.P,J9,6,Pin_6*%
X83720000Y-306772364D03*
%TO.P,J9,7,Pin_7*%
%TO.N,+5V*%
X86260000Y-309312364D03*
%TO.P,J9,8,Pin_8*%
X86260000Y-306772364D03*
%TO.P,J9,9,Pin_9*%
%TO.N,VCC_3V3*%
X88800000Y-309312364D03*
%TO.P,J9,10,Pin_10*%
%TO.N,VCC_1V8*%
X88800000Y-306772364D03*
%TO.P,J9,11,Pin_11*%
X91340000Y-309312364D03*
%TO.P,J9,12,Pin_12*%
%TO.N,VCC_3V3*%
X91340000Y-306772364D03*
%TO.P,J9,13,Pin_13*%
%TO.N,VREF_IO*%
X93880000Y-309312364D03*
%TO.P,J9,14,Pin_14*%
X93880000Y-306772364D03*
%TO.P,J9,15,Pin_15*%
%TO.N,UART3_TX*%
X96420000Y-309312364D03*
%TO.P,J9,16,Pin_16*%
%TO.N,UART3_RX*%
X96420000Y-306772364D03*
%TO.P,J9,17,Pin_17*%
%TO.N,UART0_CTS*%
X98960000Y-309312364D03*
%TO.P,J9,18,Pin_18*%
%TO.N,UART0_RTS*%
X98960000Y-306772364D03*
%TO.P,J9,19,Pin_19*%
%TO.N,UART0_DSR*%
X101500000Y-309312364D03*
%TO.P,J9,20,Pin_20*%
%TO.N,UART0_DCD*%
X101500000Y-306772364D03*
%TO.P,J9,21,Pin_21*%
%TO.N,UART0_RI*%
X104040000Y-309312364D03*
%TO.P,J9,22,Pin_22*%
%TO.N,GND*%
X104040000Y-306772364D03*
%TO.P,J9,23,Pin_23*%
%TO.N,SPI0_SCK*%
X106580000Y-309312364D03*
%TO.P,J9,24,Pin_24*%
%TO.N,SPI0_MOSI*%
X106580000Y-306772364D03*
%TO.P,J9,25,Pin_25*%
%TO.N,SPI0_MISO*%
X109120000Y-309312364D03*
%TO.P,J9,26,Pin_26*%
%TO.N,SPI0_CS0*%
X109120000Y-306772364D03*
%TO.P,J9,27,Pin_27*%
%TO.N,SPI0_CS1*%
X111660000Y-309312364D03*
%TO.P,J9,28,Pin_28*%
%TO.N,SPI0_CS2*%
X111660000Y-306772364D03*
%TO.P,J9,29,Pin_29*%
%TO.N,SPI1_SCK*%
X114200000Y-309312364D03*
%TO.P,J9,30,Pin_30*%
%TO.N,SPI1_MOSI*%
X114200000Y-306772364D03*
%TO.P,J9,31,Pin_31*%
%TO.N,SPI1_MISO*%
X116740000Y-309312364D03*
%TO.P,J9,32,Pin_32*%
%TO.N,SPI1_CS0*%
X116740000Y-306772364D03*
%TO.P,J9,33,Pin_33*%
%TO.N,SPI1_CS1*%
X119280000Y-309312364D03*
%TO.P,J9,34,Pin_34*%
%TO.N,SPI1_CS2*%
X119280000Y-306772364D03*
%TO.P,J9,35,Pin_35*%
%TO.N,GPIO0*%
X121820000Y-309312364D03*
%TO.P,J9,36,Pin_36*%
%TO.N,GPIO8*%
X121820000Y-306772364D03*
%TO.P,J9,37,Pin_37*%
%TO.N,GPIO1*%
X124360000Y-309312364D03*
%TO.P,J9,38,Pin_38*%
%TO.N,GPIO9*%
X124360000Y-306772364D03*
%TO.P,J9,39,Pin_39*%
%TO.N,GPIO2*%
X126900000Y-309312364D03*
%TO.P,J9,40,Pin_40*%
%TO.N,GPIO10*%
X126900000Y-306772364D03*
%TO.P,J9,41,Pin_41*%
%TO.N,GPIO3*%
X129440000Y-309312364D03*
%TO.P,J9,42,Pin_42*%
%TO.N,GPIO11*%
X129440000Y-306772364D03*
%TO.P,J9,43,Pin_43*%
%TO.N,GPIO4*%
X131980000Y-309312364D03*
%TO.P,J9,44,Pin_44*%
%TO.N,GPIO12*%
X131980000Y-306772364D03*
%TO.P,J9,45,Pin_45*%
%TO.N,GPIO5*%
X134520000Y-309312364D03*
%TO.P,J9,46,Pin_46*%
%TO.N,GPIO13*%
X134520000Y-306772364D03*
%TO.P,J9,47,Pin_47*%
%TO.N,GPIO6*%
X137060000Y-309312364D03*
%TO.P,J9,48,Pin_48*%
%TO.N,GPIO14*%
X137060000Y-306772364D03*
%TO.P,J9,49,Pin_49*%
%TO.N,GPIO7*%
X139600000Y-309312364D03*
%TO.P,J9,50,Pin_50*%
%TO.N,GPIO15*%
X139600000Y-306772364D03*
%TO.P,J9,51,Pin_51*%
%TO.N,PWM0*%
X142140000Y-309312364D03*
%TO.P,J9,52,Pin_52*%
%TO.N,PWM4*%
X142140000Y-306772364D03*
%TO.P,J9,53,Pin_53*%
%TO.N,PWM1*%
X144680000Y-309312364D03*
%TO.P,J9,54,Pin_54*%
%TO.N,PWM5*%
X144680000Y-306772364D03*
%TO.P,J9,55,Pin_55*%
%TO.N,PWM2*%
X147220000Y-309312364D03*
%TO.P,J9,56,Pin_56*%
%TO.N,PWM6*%
X147220000Y-306772364D03*
%TO.P,J9,57,Pin_57*%
%TO.N,PWM3*%
X149760000Y-309312364D03*
%TO.P,J9,58,Pin_58*%
%TO.N,PWM7*%
X149760000Y-306772364D03*
%TO.P,J9,59,Pin_59*%
%TO.N,IR_RX_IN*%
X152300000Y-309312364D03*
%TO.P,J9,60,Pin_60*%
%TO.N,IR_TX_OUT*%
X152300000Y-306772364D03*
%TO.P,J9,61,Pin_61*%
%TO.N,AIN0*%
X154840000Y-309312364D03*
%TO.P,J9,62,Pin_62*%
%TO.N,AIN4*%
X154840000Y-306772364D03*
%TO.P,J9,63,Pin_63*%
%TO.N,AIN1*%
X157380000Y-309312364D03*
%TO.P,J9,64,Pin_64*%
%TO.N,AIN5*%
X157380000Y-306772364D03*
%TO.P,J9,65,Pin_65*%
%TO.N,AIN2*%
X159920000Y-309312364D03*
%TO.P,J9,66,Pin_66*%
%TO.N,AIN6*%
X159920000Y-306772364D03*
%TO.P,J9,67,Pin_67*%
%TO.N,AIN3*%
X162460000Y-309312364D03*
%TO.P,J9,68,Pin_68*%
%TO.N,AIN7*%
X162460000Y-306772364D03*
%TO.P,J9,69,Pin_69*%
%TO.N,AOUT0*%
X165000000Y-309312364D03*
%TO.P,J9,70,Pin_70*%
%TO.N,AOUT1*%
X165000000Y-306772364D03*
%TO.P,J9,71,Pin_71*%
%TO.N,I2S_BCLK*%
X167540000Y-309312364D03*
%TO.P,J9,72,Pin_72*%
%TO.N,I2S_LRCLK*%
X167540000Y-306772364D03*
%TO.P,J9,73,Pin_73*%
%TO.N,I2S_DOUT*%
X170080000Y-309312364D03*
%TO.P,J9,74,Pin_74*%
%TO.N,I2S_DIN*%
X170080000Y-306772364D03*
%TO.P,J9,75,Pin_75*%
%TO.N,I2S_MCLK*%
X172620000Y-309312364D03*
%TO.P,J9,76,Pin_76*%
%TO.N,GND*%
X172620000Y-306772364D03*
%TO.P,J9,77,Pin_77*%
X175160000Y-309312364D03*
%TO.P,J9,78,Pin_78*%
X175160000Y-306772364D03*
%TO.P,J9,79,Pin_79*%
X177700000Y-309312364D03*
%TO.P,J9,80,Pin_80*%
X177700000Y-306772364D03*
%TD*%
D22*
%TO.P,J22,1*%
%TO.N,+24V*%
X69500000Y-161272364D03*
D23*
%TO.P,J22,2*%
%TO.N,GND*%
X63500000Y-161272364D03*
D24*
%TO.P,J22,3*%
%TO.N,N/C*%
X66500000Y-165972364D03*
%TD*%
D14*
%TO.P,J1,1*%
%TO.N,/Power/Power Rails/Vout_external_1*%
X76300000Y-325772364D03*
D15*
%TO.P,J1,2*%
X78840000Y-325772364D03*
%TO.P,J1,3*%
X81380000Y-325772364D03*
%TO.P,J1,4*%
X83920000Y-325772364D03*
%TO.P,J1,5*%
X86460000Y-325772364D03*
%TO.P,J1,6*%
X89000000Y-325772364D03*
%TO.P,J1,7*%
X91540000Y-325772364D03*
%TO.P,J1,8*%
X94080000Y-325772364D03*
%TO.P,J1,9*%
X96620000Y-325772364D03*
%TO.P,J1,10*%
X99160000Y-325772364D03*
%TO.P,J1,11*%
X101700000Y-325772364D03*
%TO.P,J1,12*%
X104240000Y-325772364D03*
%TO.P,J1,13*%
X106780000Y-325772364D03*
%TO.P,J1,14*%
X109320000Y-325772364D03*
%TO.P,J1,15*%
X111860000Y-325772364D03*
%TO.P,J1,16*%
X114400000Y-325772364D03*
%TO.P,J1,17*%
X116940000Y-325772364D03*
%TO.P,J1,18*%
X119480000Y-325772364D03*
%TO.P,J1,19*%
X122020000Y-325772364D03*
%TO.P,J1,20*%
X124560000Y-325772364D03*
%TD*%
D25*
%TO.P,U3,1,GND*%
%TO.N,GND*%
X114500000Y-226772364D03*
%TO.P,U3,2,VO*%
%TO.N,/UCE board/VDD_MCU_CTL_3v3*%
X114500000Y-229072364D03*
D26*
X120800000Y-229072364D03*
D25*
%TO.P,U3,3,VI*%
%TO.N,+12V*%
X114500000Y-231372364D03*
%TD*%
D14*
%TO.P,J26,1*%
%TO.N,/Power/Power Rails/Vout_external_2*%
X217833329Y-319357932D03*
D15*
%TO.P,J26,2*%
%TO.N,+12V*%
X217833329Y-316817932D03*
%TO.P,J26,3*%
%TO.N,/Power/Power Rails/Vout_external_2*%
X220373329Y-319357932D03*
%TO.P,J26,4*%
%TO.N,+5V*%
X220373329Y-316817932D03*
%TO.P,J26,5*%
%TO.N,/Power/Power Rails/Vout_external_2*%
X222913329Y-319357932D03*
%TO.P,J26,6*%
%TO.N,+3.3V*%
X222913329Y-316817932D03*
%TD*%
D27*
%TO.P,J11,1,1*%
%TO.N,GND*%
X178550000Y-180997364D03*
%TO.P,J11,2,2*%
X178800000Y-172797365D03*
%TO.P,J11,3,3*%
%TO.N,+5V*%
X179050000Y-180997364D03*
%TO.P,J11,4,4*%
%TO.N,VCC_3V3*%
X179300000Y-172797365D03*
%TO.P,J11,5,5*%
%TO.N,VCC_1V8*%
X179550000Y-180997364D03*
%TO.P,J11,6,6*%
%TO.N,VREF_IO*%
X179800000Y-172797365D03*
%TO.P,J11,7,7*%
%TO.N,VIO_BANK0*%
X180050000Y-180997364D03*
%TO.P,J11,8,8*%
%TO.N,VIO_BANK2*%
X180300000Y-172797365D03*
%TO.P,J11,9,9*%
%TO.N,PWR_GOOD*%
X180550000Y-180997364D03*
%TO.P,J11,10,10*%
%TO.N,GND*%
X180800000Y-172797365D03*
%TO.P,J11,11,11*%
X181050000Y-180997364D03*
%TO.P,J11,12,12*%
%TO.N,VCC_IN*%
X181300000Y-172797365D03*
%TO.P,J11,13,13*%
%TO.N,MCU_RST_N*%
X181550000Y-180997364D03*
%TO.P,J11,14,14*%
%TO.N,MCU_BOOT0*%
X181800000Y-172797365D03*
%TO.P,J11,15,15*%
%TO.N,I2C0_SCL*%
X182050000Y-180997364D03*
%TO.P,J11,16,16*%
%TO.N,I2C1_SCL*%
X182300000Y-172797365D03*
%TO.P,J11,17,17*%
%TO.N,I2C2_SCL*%
X182550000Y-180997364D03*
%TO.P,J11,18,18*%
%TO.N,UART0_TX*%
X182800000Y-172797365D03*
%TO.P,J11,19,19*%
%TO.N,UART1_TX*%
X183050000Y-180997364D03*
%TO.P,J11,20,20*%
%TO.N,UART2_TX*%
X183300000Y-172797365D03*
%TO.P,J11,21,21*%
%TO.N,UART3_TX*%
X183550000Y-180997364D03*
%TO.P,J11,22,22*%
%TO.N,UART0_CTS*%
X183800000Y-172797365D03*
%TO.P,J11,23,23*%
%TO.N,UART0_DSR*%
X184050000Y-180997364D03*
%TO.P,J11,24,24*%
%TO.N,UART0_RI*%
X184300000Y-172797365D03*
%TO.P,J11,25,25*%
%TO.N,SPI0_SCK*%
X184550000Y-180997364D03*
%TO.P,J11,26,26*%
%TO.N,SPI0_MISO*%
X184800000Y-172797365D03*
%TO.P,J11,27,27*%
%TO.N,SPI0_CS1*%
X185050000Y-180997364D03*
%TO.P,J11,28,28*%
%TO.N,SPI1_SCK*%
X185300000Y-172797365D03*
%TO.P,J11,29,29*%
%TO.N,SPI1_MISO*%
X185550000Y-180997364D03*
%TO.P,J11,30,30*%
%TO.N,SPI1_CS1*%
X185800000Y-172797365D03*
%TO.P,J11,31,31*%
%TO.N,GPIO0*%
X186050000Y-180997364D03*
%TO.P,J11,32,32*%
%TO.N,GPIO1*%
X186300000Y-172797365D03*
%TO.P,J11,33,33*%
%TO.N,GPIO2*%
X186550000Y-180997364D03*
%TO.P,J11,34,34*%
%TO.N,GPIO3*%
X186800000Y-172797365D03*
%TO.P,J11,35,35*%
%TO.N,GPIO4*%
X187050000Y-180997364D03*
%TO.P,J11,36,36*%
%TO.N,GPIO5*%
X187300000Y-172797365D03*
%TO.P,J11,37,37*%
%TO.N,GPIO6*%
X187550000Y-180997364D03*
%TO.P,J11,38,38*%
%TO.N,GPIO7*%
X187800000Y-172797365D03*
%TO.P,J11,39,39*%
%TO.N,PWM0*%
X188050000Y-180997364D03*
%TO.P,J11,40,40*%
%TO.N,PWM1*%
X188300000Y-172797365D03*
%TO.P,J11,41,41*%
%TO.N,PWM2*%
X188550000Y-180997364D03*
%TO.P,J11,42,42*%
%TO.N,PWM3*%
X188800000Y-172797365D03*
%TO.P,J11,43,43*%
%TO.N,IR_RX_IN*%
X189050000Y-180997364D03*
%TO.P,J11,44,44*%
%TO.N,AIN0*%
X189300000Y-172797365D03*
%TO.P,J11,45,45*%
%TO.N,AIN1*%
X189550000Y-180997364D03*
%TO.P,J11,46,46*%
%TO.N,AIN2*%
X189800000Y-172797365D03*
%TO.P,J11,47,47*%
%TO.N,AIN3*%
X190050000Y-180997364D03*
%TO.P,J11,48,48*%
%TO.N,AOUT0*%
X190300000Y-172797365D03*
%TO.P,J11,49,49*%
%TO.N,I2S_BCLK*%
X190550000Y-180997364D03*
%TO.P,J11,50,50*%
%TO.N,I2S_DOUT*%
X190800000Y-172797365D03*
%TO.P,J11,51,51*%
%TO.N,I2S_MCLK*%
X191050000Y-180997364D03*
%TO.P,J11,52,52*%
%TO.N,NET_SPI_SCK*%
X191300000Y-172797365D03*
%TO.P,J11,53,53*%
%TO.N,NET_D2_EVEN*%
X191550000Y-180997364D03*
%TO.P,J11,54,54*%
%TO.N,NET_INT_N*%
X191800000Y-172797365D03*
%TO.P,J11,55,55*%
%TO.N,RMII_TXD0*%
X192050000Y-180997364D03*
%TO.P,J11,56,56*%
%TO.N,RMII_RXD0*%
X192300000Y-172797365D03*
%TO.P,J11,57,57*%
%TO.N,NET_CTL0_ODD*%
X192550000Y-180997364D03*
%TO.P,J11,58,58*%
%TO.N,NET_CLK_ODD*%
X192800000Y-172797365D03*
%TO.P,J11,59,59*%
%TO.N,MDIO*%
X193050000Y-180997364D03*
%TO.P,J11,60,60*%
%TO.N,SDIO_CLK*%
X193300000Y-172797365D03*
%TO.P,J11,61,61*%
X193550000Y-180997364D03*
%TO.P,J11,62,62*%
%TO.N,SDIO_D2*%
X193800000Y-172797365D03*
%TO.P,J11,63,63*%
%TO.N,RESERVED*%
X194050000Y-180997364D03*
%TO.P,J11,64,64*%
%TO.N,GND*%
X194300000Y-172797365D03*
%TO.P,J11,65,65*%
X194550000Y-180997364D03*
%TO.P,J11,66,66*%
%TO.N,+5V*%
X194800000Y-172797365D03*
%TO.P,J11,67,67*%
%TO.N,VCC_3V3*%
X195050000Y-180997364D03*
%TO.P,J11,68,68*%
%TO.N,VCC_1V8*%
X195300000Y-172797365D03*
%TO.P,J11,69,69*%
%TO.N,VREF_IO*%
X195550000Y-180997364D03*
%TO.P,J11,70,70*%
%TO.N,VIO_BANK0*%
X195800000Y-172797365D03*
%TO.P,J11,71,71*%
%TO.N,VIO_BANK2*%
X196050000Y-180997364D03*
%TO.P,J11,72,72*%
%TO.N,GND*%
X196300000Y-172797365D03*
%TO.P,J11,73,73*%
X196550000Y-180997364D03*
%TO.P,J11,74,74*%
%TO.N,CLOCK_0*%
X196800000Y-172797365D03*
%TO.P,J11,75,75*%
%TO.N,RESERVED*%
X197050000Y-180997364D03*
%TO.P,J11,76,76*%
X197300000Y-172797365D03*
%TO.P,J11,77,77*%
X197550000Y-180997364D03*
%TO.P,J11,78,78*%
X197800000Y-172797365D03*
%TO.P,J11,79,79*%
X198050000Y-180997364D03*
%TO.P,J11,80,80*%
X198300000Y-172797365D03*
%TO.P,J11,81,81*%
X198550000Y-180997364D03*
%TO.P,J11,82,82*%
X198800000Y-172797365D03*
%TO.P,J11,83,83*%
%TO.N,DBG_SWDIO*%
X199050000Y-180997364D03*
%TO.P,J11,84,84*%
%TO.N,DBG_TCK*%
X199300000Y-172797365D03*
%TO.P,J11,85,85*%
%TO.N,DBG_TDI*%
X199550000Y-180997364D03*
%TO.P,J11,86,86*%
%TO.N,DBG_RESET_N*%
X199800000Y-172797365D03*
%TO.P,J11,87,87*%
%TO.N,DBG_UART_TX*%
X200050000Y-180997364D03*
%TO.P,J11,88,88*%
%TO.N,MOD_PRESENT_N*%
X200300000Y-172797365D03*
%TO.P,J11,89,89*%
%TO.N,MOD_TYPE1*%
X200550000Y-180997364D03*
%TO.P,J11,90,90*%
%TO.N,GND*%
X200800000Y-172797365D03*
%TO.P,J11,91,91*%
X201050000Y-180997364D03*
%TO.P,J11,92,92*%
%TO.N,+5V*%
X201300000Y-172797365D03*
%TO.P,J11,93,93*%
%TO.N,VCC_3V3*%
X201550000Y-180997364D03*
%TO.P,J11,94,94*%
%TO.N,VCC_1V8*%
X201800000Y-172797365D03*
%TO.P,J11,95,95*%
%TO.N,VREF_IO*%
X202050000Y-180997364D03*
%TO.P,J11,96,96*%
%TO.N,VIO_BANK0*%
X202300000Y-172797365D03*
%TO.P,J11,97,97*%
%TO.N,VIO_BANK2*%
X202550000Y-180997364D03*
%TO.P,J11,98,98*%
%TO.N,PWR_GOOD*%
X202800000Y-172797365D03*
%TO.P,J11,99,99*%
%TO.N,I2C_SCL_MCU_CTL*%
X203050000Y-180997364D03*
%TO.P,J11,100,100*%
%TO.N,I2C_SDA_MCU_CTL*%
X203300000Y-172797365D03*
%TO.P,J11,101,101*%
%TO.N,unconnected-(J11-Pad101)*%
X203550000Y-180997364D03*
%TO.P,J11,102,102*%
%TO.N,unconnected-(J11-Pad102)*%
X203800000Y-172797365D03*
%TO.P,J11,103,103*%
%TO.N,unconnected-(J11-Pad103)*%
X204050000Y-180997364D03*
%TO.P,J11,104,104*%
%TO.N,unconnected-(J11-Pad104)*%
X204300000Y-172797365D03*
%TO.P,J11,105,105*%
%TO.N,unconnected-(J11-Pad105)*%
X204550000Y-180997364D03*
%TO.P,J11,106,106*%
%TO.N,unconnected-(J11-Pad106)*%
X204800000Y-172797365D03*
%TO.P,J11,107,107*%
%TO.N,unconnected-(J11-Pad107)*%
X205050000Y-180997364D03*
%TO.P,J11,108,108*%
%TO.N,unconnected-(J11-Pad108)*%
X205300000Y-172797365D03*
%TO.P,J11,109,109*%
%TO.N,unconnected-(J11-Pad109)*%
X205550000Y-180997364D03*
%TO.P,J11,110,110*%
%TO.N,unconnected-(J11-Pad110)*%
X205800000Y-172797365D03*
%TO.P,J11,111,111*%
%TO.N,unconnected-(J11-Pad111)*%
X206050000Y-180997364D03*
%TO.P,J11,112,112*%
%TO.N,unconnected-(J11-Pad112)*%
X206300000Y-172797365D03*
%TO.P,J11,113,113*%
%TO.N,unconnected-(J11-Pad113)*%
X206550000Y-180997364D03*
%TO.P,J11,114,114*%
%TO.N,unconnected-(J11-Pad114)*%
X206800000Y-172797365D03*
%TO.P,J11,115,115*%
%TO.N,unconnected-(J11-Pad115)*%
X207050000Y-180997364D03*
%TO.P,J11,116,116*%
%TO.N,unconnected-(J11-Pad116)*%
X207300000Y-172797365D03*
%TO.P,J11,117,117*%
%TO.N,unconnected-(J11-Pad117)*%
X207550000Y-180997364D03*
%TO.P,J11,118,118*%
%TO.N,unconnected-(J11-Pad118)*%
X207800000Y-172797365D03*
%TO.P,J11,119,119*%
%TO.N,unconnected-(J11-Pad119)*%
X208050000Y-180997364D03*
%TO.P,J11,120,120*%
%TO.N,unconnected-(J11-Pad120)*%
X208300000Y-172797365D03*
%TO.P,J11,121,121*%
%TO.N,unconnected-(J11-Pad121)*%
X208550000Y-180997364D03*
%TO.P,J11,122,122*%
%TO.N,unconnected-(J11-Pad122)*%
X208800000Y-172797365D03*
%TO.P,J11,123,123*%
%TO.N,unconnected-(J11-Pad123)*%
X209050000Y-180997364D03*
%TO.P,J11,124,124*%
%TO.N,unconnected-(J11-Pad124)*%
X209300000Y-172797365D03*
%TO.P,J11,125,125*%
%TO.N,unconnected-(J11-Pad125)*%
X209550000Y-180997364D03*
%TO.P,J11,126,126*%
%TO.N,unconnected-(J11-Pad126)*%
X209800000Y-172797365D03*
%TO.P,J11,127,127*%
%TO.N,unconnected-(J11-Pad127)*%
X210050000Y-180997364D03*
%TO.P,J11,128,128*%
%TO.N,GND*%
X210300000Y-172797365D03*
%TO.P,J11,129,129*%
X210550000Y-180997364D03*
%TO.P,J11,130,130*%
%TO.N,unconnected-(J11-Pad130)*%
X210800000Y-172797365D03*
%TO.P,J11,131,131*%
%TO.N,unconnected-(J11-Pad131)*%
X211050000Y-180997364D03*
%TO.P,J11,132,132*%
%TO.N,GND*%
X211300000Y-172797365D03*
%TO.P,J11,133,133*%
X211550000Y-180997364D03*
%TO.P,J11,134,134*%
%TO.N,+5V*%
X211800000Y-172797365D03*
%TO.P,J11,135,135*%
%TO.N,VCC_1V8*%
X212050000Y-180997364D03*
%TO.P,J11,136,136*%
%TO.N,VCC_3V3*%
X212300000Y-172797365D03*
%TO.P,J11,137,137*%
%TO.N,VREF_IO*%
X212550000Y-180997364D03*
%TO.P,J11,138,138*%
%TO.N,VIO_BANK1*%
X212800000Y-172797365D03*
%TO.P,J11,139,139*%
%TO.N,VIO_BANK3*%
X213050000Y-180997364D03*
%TO.P,J11,140,140*%
%TO.N,PWR_GOOD*%
X213300000Y-172797365D03*
%TO.P,J11,141,141*%
%TO.N,GND*%
X213550000Y-180997364D03*
%TO.P,J11,142,142*%
X213800000Y-172797365D03*
%TO.P,J11,143,143*%
X214050000Y-180997364D03*
%TO.P,J11,144,144*%
%TO.N,MCU_EN*%
X214300000Y-172797365D03*
%TO.P,J11,145,145*%
%TO.N,MCU_BOOT1*%
X216550000Y-180997364D03*
%TO.P,J11,146,146*%
%TO.N,I2C0_SDA*%
X216800000Y-172797365D03*
%TO.P,J11,147,147*%
%TO.N,I2C1_SDA*%
X217050000Y-180997364D03*
%TO.P,J11,148,148*%
%TO.N,I2C2_SDA*%
X217300000Y-172797365D03*
%TO.P,J11,149,149*%
%TO.N,UART0_RX*%
X217550000Y-180997364D03*
%TO.P,J11,150,150*%
%TO.N,UART1_RX*%
X217800000Y-172797365D03*
%TO.P,J11,151,151*%
%TO.N,UART2_RX*%
X218050000Y-180997364D03*
%TO.P,J11,152,152*%
%TO.N,UART3_RX*%
X218300000Y-172797365D03*
%TO.P,J11,153,153*%
%TO.N,UART0_RTS*%
X218550000Y-180997364D03*
%TO.P,J11,154,154*%
%TO.N,UART0_DCD*%
X218800000Y-172797365D03*
%TO.P,J11,155,155*%
%TO.N,GND*%
X219050000Y-180997364D03*
%TO.P,J11,156,156*%
%TO.N,SPI0_MOSI*%
X219300000Y-172797365D03*
%TO.P,J11,157,157*%
%TO.N,SPI0_CS0*%
X219550000Y-180997364D03*
%TO.P,J11,158,158*%
%TO.N,SPI0_CS2*%
X219800000Y-172797365D03*
%TO.P,J11,159,159*%
%TO.N,SPI1_MOSI*%
X220050000Y-180997364D03*
%TO.P,J11,160,160*%
%TO.N,SPI1_CS0*%
X220300000Y-172797365D03*
%TO.P,J11,161,161*%
%TO.N,SPI1_CS2*%
X220550000Y-180997364D03*
%TO.P,J11,162,162*%
%TO.N,GPIO8*%
X220800000Y-172797365D03*
%TO.P,J11,163,163*%
%TO.N,GPIO9*%
X221050000Y-180997364D03*
%TO.P,J11,164,164*%
%TO.N,GPIO10*%
X221300000Y-172797365D03*
%TO.P,J11,165,165*%
%TO.N,GPIO11*%
X221550000Y-180997364D03*
%TO.P,J11,166,166*%
%TO.N,GPIO12*%
X221800000Y-172797365D03*
%TO.P,J11,167,167*%
%TO.N,GPIO13*%
X222050000Y-180997364D03*
%TO.P,J11,168,168*%
%TO.N,GPIO14*%
X222300000Y-172797365D03*
%TO.P,J11,169,169*%
%TO.N,GPIO15*%
X222550000Y-180997364D03*
%TO.P,J11,170,170*%
%TO.N,PWM4*%
X222800000Y-172797365D03*
%TO.P,J11,171,171*%
%TO.N,PWM5*%
X223050000Y-180997364D03*
%TO.P,J11,172,172*%
%TO.N,PWM6*%
X223300000Y-172797365D03*
%TO.P,J11,173,173*%
%TO.N,PWM7*%
X223550000Y-180997364D03*
%TO.P,J11,174,174*%
%TO.N,IR_TX_OUT*%
X223800000Y-172797365D03*
%TO.P,J11,175,175*%
%TO.N,AIN4*%
X224050000Y-180997364D03*
%TO.P,J11,176,176*%
%TO.N,AIN5*%
X224300000Y-172797365D03*
%TO.P,J11,177,177*%
%TO.N,AIN6*%
X224550000Y-180997364D03*
%TO.P,J11,178,178*%
%TO.N,AIN7*%
X224800000Y-172797365D03*
%TO.P,J11,179,179*%
%TO.N,AOUT1*%
X225050000Y-180997364D03*
%TO.P,J11,180,180*%
%TO.N,I2S_LRCLK*%
X225300000Y-172797365D03*
%TO.P,J11,181,181*%
%TO.N,I2S_DIN*%
X225550000Y-180997364D03*
%TO.P,J11,182,182*%
%TO.N,GND*%
X225800000Y-172797365D03*
%TO.P,J11,183,183*%
%TO.N,NET_D0_EVEN*%
X226050000Y-180997364D03*
%TO.P,J11,184,184*%
%TO.N,NET_CTL0_EVEN*%
X226300000Y-172797365D03*
%TO.P,J11,185,185*%
%TO.N,NET_RST_N*%
X226550000Y-180997364D03*
%TO.P,J11,186,186*%
%TO.N,RMII_TXD1*%
X226800000Y-172797365D03*
%TO.P,J11,187,187*%
%TO.N,RMII_RXD1*%
X227050000Y-180997364D03*
%TO.P,J11,188,188*%
%TO.N,NET_CTL1_ODD*%
X227300000Y-172797365D03*
%TO.P,J11,189,189*%
%TO.N,NET_CTL2_ODD*%
X227550000Y-180997364D03*
%TO.P,J11,190,190*%
X227800000Y-172797365D03*
%TO.P,J11,191,191*%
%TO.N,SDIO_CMD*%
X228050000Y-180997364D03*
%TO.P,J11,192,192*%
%TO.N,SDIO_D1*%
X228300000Y-172797365D03*
%TO.P,J11,193,193*%
%TO.N,SDIO_D3*%
X228550000Y-180997364D03*
%TO.P,J11,194,194*%
%TO.N,RESERVED*%
X228800000Y-172797365D03*
%TO.P,J11,195,195*%
%TO.N,GND*%
X229050000Y-180997364D03*
%TO.P,J11,196,196*%
X229300000Y-172797365D03*
%TO.P,J11,197,197*%
%TO.N,+5V*%
X229550000Y-180997364D03*
%TO.P,J11,198,198*%
%TO.N,VCC_3V3*%
X229800000Y-172797365D03*
%TO.P,J11,199,199*%
%TO.N,VCC_1V8*%
X230050000Y-180997364D03*
%TO.P,J11,200,200*%
%TO.N,VREF_IO*%
X230300000Y-172797365D03*
%TO.P,J11,201,201*%
%TO.N,VIO_BANK1*%
X230550000Y-180997364D03*
%TO.P,J11,202,202*%
%TO.N,VIO_BANK3*%
X230800000Y-172797365D03*
%TO.P,J11,203,203*%
%TO.N,GND*%
X231050000Y-180997364D03*
%TO.P,J11,204,204*%
X231300000Y-172797365D03*
%TO.P,J11,205,205*%
%TO.N,CLOCK_0*%
X231550000Y-180997364D03*
%TO.P,J11,206,206*%
%TO.N,RESERVED*%
X231800000Y-172797365D03*
%TO.P,J11,207,207*%
X232050000Y-180997364D03*
%TO.P,J11,208,208*%
X232300000Y-172797365D03*
%TO.P,J11,209,209*%
X232550000Y-180997364D03*
%TO.P,J11,210,210*%
X232800000Y-172797365D03*
%TO.P,J11,211,211*%
X233050000Y-180997364D03*
%TO.P,J11,212,212*%
X233300000Y-172797365D03*
%TO.P,J11,213,213*%
X233550000Y-180997364D03*
%TO.P,J11,214,214*%
%TO.N,DBG_SWCLK*%
X233800000Y-172797365D03*
%TO.P,J11,215,215*%
%TO.N,DBG_TMS*%
X234050000Y-180997364D03*
%TO.P,J11,216,216*%
%TO.N,DBG_TDO*%
X234300000Y-172797365D03*
%TO.P,J11,217,217*%
%TO.N,DBG_VREF*%
X234550000Y-180997364D03*
%TO.P,J11,218,218*%
%TO.N,DBG_UART_RX*%
X234800000Y-172797365D03*
%TO.P,J11,219,219*%
%TO.N,MOD_TYPE0*%
X235050000Y-180997364D03*
%TO.P,J11,220,220*%
%TO.N,MOD_TYPE2*%
X235300000Y-172797365D03*
%TO.P,J11,221,221*%
%TO.N,GND*%
X235550000Y-180997364D03*
%TO.P,J11,222,222*%
X235800000Y-172797365D03*
%TO.P,J11,223,223*%
%TO.N,+5V*%
X236050000Y-180997364D03*
%TO.P,J11,224,224*%
%TO.N,VCC_1V8*%
X236300000Y-172797365D03*
%TO.P,J11,225,225*%
%TO.N,VCC_3V3*%
X236550000Y-180997364D03*
%TO.P,J11,226,226*%
%TO.N,VREF_IO*%
X236800000Y-172797365D03*
%TO.P,J11,227,227*%
%TO.N,VIO_BANK1*%
X237050000Y-180997364D03*
%TO.P,J11,228,228*%
%TO.N,VIO_BANK3*%
X237300000Y-172797365D03*
%TO.P,J11,229,229*%
%TO.N,PWR_GOOD*%
X237550000Y-180997364D03*
%TO.P,J11,230,230*%
%TO.N,unconnected-(J11-Pad230)*%
X237800000Y-172797365D03*
%TO.P,J11,231,231*%
%TO.N,unconnected-(J11-Pad231)*%
X238050000Y-180997364D03*
%TO.P,J11,232,232*%
%TO.N,unconnected-(J11-Pad232)*%
X238300000Y-172797365D03*
%TO.P,J11,233,233*%
%TO.N,unconnected-(J11-Pad233)*%
X238550000Y-180997364D03*
%TO.P,J11,234,234*%
%TO.N,unconnected-(J11-Pad234)*%
X238800000Y-172797365D03*
%TO.P,J11,235,235*%
%TO.N,unconnected-(J11-Pad235)*%
X239050000Y-180997364D03*
%TO.P,J11,236,236*%
%TO.N,unconnected-(J11-Pad236)*%
X239300000Y-172797365D03*
%TO.P,J11,237,237*%
%TO.N,unconnected-(J11-Pad237)*%
X239550000Y-180997364D03*
%TO.P,J11,238,238*%
%TO.N,unconnected-(J11-Pad238)*%
X239800000Y-172797365D03*
%TO.P,J11,239,239*%
%TO.N,unconnected-(J11-Pad239)*%
X240050000Y-180997364D03*
%TO.P,J11,240,240*%
%TO.N,unconnected-(J11-Pad240)*%
X240300000Y-172797365D03*
%TO.P,J11,241,241*%
%TO.N,unconnected-(J11-Pad241)*%
X240550000Y-180997364D03*
%TO.P,J11,242,242*%
%TO.N,unconnected-(J11-Pad242)*%
X240800000Y-172797365D03*
%TO.P,J11,243,243*%
%TO.N,unconnected-(J11-Pad243)*%
X241050000Y-180997364D03*
%TO.P,J11,244,244*%
%TO.N,unconnected-(J11-Pad244)*%
X241300000Y-172797365D03*
%TO.P,J11,245,245*%
%TO.N,unconnected-(J11-Pad245)*%
X241550000Y-180997364D03*
%TO.P,J11,246,246*%
%TO.N,unconnected-(J11-Pad246)*%
X241800000Y-172797365D03*
%TO.P,J11,247,247*%
%TO.N,unconnected-(J11-Pad247)*%
X242050000Y-180997364D03*
%TO.P,J11,248,248*%
%TO.N,unconnected-(J11-Pad248)*%
X242300000Y-172797365D03*
%TO.P,J11,249,249*%
%TO.N,unconnected-(J11-Pad249)*%
X242550000Y-180997364D03*
%TO.P,J11,250,250*%
%TO.N,unconnected-(J11-Pad250)*%
X242800000Y-172797365D03*
%TO.P,J11,251,251*%
%TO.N,unconnected-(J11-Pad251)*%
X243050000Y-180997364D03*
%TO.P,J11,252,252*%
%TO.N,unconnected-(J11-Pad252)*%
X243300000Y-172797365D03*
%TO.P,J11,253,253*%
%TO.N,unconnected-(J11-Pad253)*%
X243550000Y-180997364D03*
%TO.P,J11,254,254*%
%TO.N,unconnected-(J11-Pad254)*%
X243800000Y-172797365D03*
%TO.P,J11,255,255*%
%TO.N,unconnected-(J11-Pad255)*%
X244050000Y-180997364D03*
%TO.P,J11,256,256*%
%TO.N,unconnected-(J11-Pad256)*%
X244300000Y-172797365D03*
%TO.P,J11,257,257*%
%TO.N,unconnected-(J11-Pad257)*%
X244550000Y-180997364D03*
%TO.P,J11,258,258*%
%TO.N,unconnected-(J11-Pad258)*%
X244800000Y-172797365D03*
%TO.P,J11,259,259*%
%TO.N,GND*%
X245050000Y-180997364D03*
%TO.P,J11,260,260*%
X245300000Y-172797365D03*
D28*
%TO.P,J11,MP*%
%TO.N,N/C*%
X178125000Y-164897364D03*
X245725000Y-164897364D03*
%TD*%
D29*
%TO.P,U4,1,GND*%
%TO.N,GND*%
X146700000Y-183922364D03*
%TO.P,U4,2,VO*%
%TO.N,+1v8*%
X149000000Y-183922364D03*
D30*
X149000000Y-177622364D03*
D29*
%TO.P,U4,3,VI*%
%TO.N,+24V*%
X151300000Y-183922364D03*
%TD*%
D31*
%TO.P,U2,1,VBAT*%
%TO.N,Net-(BT1-+)*%
X115175000Y-240772364D03*
%TO.P,U2,2,PC13*%
%TO.N,unconnected-(U2-PC13-Pad2)*%
X115175000Y-241272364D03*
%TO.P,U2,3,PC14*%
%TO.N,unconnected-(U2-PC14-Pad3)*%
X115175000Y-241772364D03*
%TO.P,U2,4,PC15*%
%TO.N,unconnected-(U2-PC15-Pad4)*%
X115175000Y-242272364D03*
%TO.P,U2,5,PF0*%
%TO.N,unconnected-(U2-PF0-Pad5)*%
X115175000Y-242772364D03*
%TO.P,U2,6,PF1*%
%TO.N,unconnected-(U2-PF1-Pad6)*%
X115175000Y-243272364D03*
%TO.P,U2,7,PG10*%
%TO.N,unconnected-(U2-PG10-Pad7)*%
X115175000Y-243772364D03*
%TO.P,U2,8,PA0*%
%TO.N,/UCE board/+12v Shunt Out*%
X115175000Y-244272364D03*
%TO.P,U2,9,PA1*%
%TO.N,/UCE board/+5v Shunt Out*%
X115175000Y-244772364D03*
%TO.P,U2,10,PA2*%
%TO.N,unconnected-(U2-PA2-Pad10)*%
X115175000Y-245272364D03*
%TO.P,U2,11,PA3*%
%TO.N,unconnected-(U2-PA3-Pad11)*%
X115175000Y-245772364D03*
%TO.P,U2,12,PA4*%
%TO.N,unconnected-(U2-PA4-Pad12)*%
X115175000Y-246272364D03*
D32*
%TO.P,U2,13,PA5*%
%TO.N,unconnected-(U2-PA5-Pad13)*%
X116587500Y-247684864D03*
%TO.P,U2,14,PA6*%
%TO.N,unconnected-(U2-PA6-Pad14)*%
X117087500Y-247684864D03*
%TO.P,U2,15,PA7*%
%TO.N,unconnected-(U2-PA7-Pad15)*%
X117587500Y-247684864D03*
%TO.P,U2,16,PB0*%
%TO.N,unconnected-(U2-PB0-Pad16)*%
X118087500Y-247684864D03*
%TO.P,U2,17,PB1*%
%TO.N,unconnected-(U2-PB1-Pad17)*%
X118587500Y-247684864D03*
%TO.P,U2,18,PB2*%
%TO.N,unconnected-(U2-PB2-Pad18)*%
X119087500Y-247684864D03*
%TO.P,U2,19,VSSA*%
%TO.N,GND*%
X119587500Y-247684864D03*
%TO.P,U2,20,VREF+*%
%TO.N,/UCE board/VDDA_MCU_CTL_3*%
X120087500Y-247684864D03*
%TO.P,U2,21,VDDA*%
X120587500Y-247684864D03*
%TO.P,U2,22,PB10*%
%TO.N,unconnected-(U2-PB10-Pad22)*%
X121087500Y-247684864D03*
%TO.P,U2,23,VSS*%
%TO.N,GND*%
X121587500Y-247684864D03*
%TO.P,U2,24,VDD*%
%TO.N,/UCE board/VDD_MCU_CTL_3v3*%
X122087500Y-247684864D03*
D31*
%TO.P,U2,25,PB11*%
%TO.N,unconnected-(U2-PB11-Pad25)*%
X123500000Y-246272364D03*
%TO.P,U2,26,PB12*%
%TO.N,/UCE board/+3.3v Shunt Out*%
X123500000Y-245772364D03*
%TO.P,U2,27,PB13*%
%TO.N,unconnected-(U2-PB13-Pad27)*%
X123500000Y-245272364D03*
%TO.P,U2,28,PB14*%
%TO.N,unconnected-(U2-PB14-Pad28)*%
X123500000Y-244772364D03*
%TO.P,U2,29,PB15*%
%TO.N,unconnected-(U2-PB15-Pad29)*%
X123500000Y-244272364D03*
%TO.P,U2,30,PA8*%
%TO.N,unconnected-(U2-PA8-Pad30)*%
X123500000Y-243772364D03*
%TO.P,U2,31,PA9*%
%TO.N,unconnected-(U2-PA9-Pad31)*%
X123500000Y-243272364D03*
%TO.P,U2,32,PA10*%
%TO.N,unconnected-(U2-PA10-Pad32)*%
X123500000Y-242772364D03*
%TO.P,U2,33,PA11*%
%TO.N,unconnected-(U2-PA11-Pad33)*%
X123500000Y-242272364D03*
%TO.P,U2,34,PA12*%
%TO.N,unconnected-(U2-PA12-Pad34)*%
X123500000Y-241772364D03*
%TO.P,U2,35,VSS*%
%TO.N,GND*%
X123500000Y-241272364D03*
%TO.P,U2,36,VDD*%
%TO.N,/UCE board/VDD_MCU_CTL_3v3*%
X123500000Y-240772364D03*
D32*
%TO.P,U2,37,PA13*%
%TO.N,I2C_SDA_MCU_CTL*%
X122087500Y-239359864D03*
%TO.P,U2,38,PA14*%
%TO.N,I2C_SCL_MCU_CTL*%
X121587500Y-239359864D03*
%TO.P,U2,39,PA15*%
%TO.N,unconnected-(U2-PA15-Pad39)*%
X121087500Y-239359864D03*
%TO.P,U2,40,PB3*%
%TO.N,unconnected-(U2-PB3-Pad40)*%
X120587500Y-239359864D03*
%TO.P,U2,41,PB4*%
%TO.N,unconnected-(U2-PB4-Pad41)*%
X120087500Y-239359864D03*
%TO.P,U2,42,PB5*%
%TO.N,unconnected-(U2-PB5-Pad42)*%
X119587500Y-239359864D03*
%TO.P,U2,43,PB6*%
%TO.N,unconnected-(U2-PB6-Pad43)*%
X119087500Y-239359864D03*
%TO.P,U2,44,PB7*%
%TO.N,unconnected-(U2-PB7-Pad44)*%
X118587500Y-239359864D03*
%TO.P,U2,45,PB8*%
%TO.N,unconnected-(U2-PB8-Pad45)*%
X118087500Y-239359864D03*
%TO.P,U2,46,PB9*%
%TO.N,unconnected-(U2-PB9-Pad46)*%
X117587500Y-239359864D03*
%TO.P,U2,47,VSS*%
%TO.N,GND*%
X117087500Y-239359864D03*
%TO.P,U2,48,VDD*%
%TO.N,/UCE board/VDD_MCU_CTL_3v3*%
X116587500Y-239359864D03*
%TD*%
D14*
%TO.P,J16,1*%
%TO.N,/Power/Power Rails/Vout_external_3*%
X340500000Y-325772364D03*
D15*
%TO.P,J16,2*%
X343040000Y-325772364D03*
%TO.P,J16,3*%
X345580000Y-325772364D03*
%TO.P,J16,4*%
X348120000Y-325772364D03*
%TO.P,J16,5*%
X350660000Y-325772364D03*
%TO.P,J16,6*%
X353200000Y-325772364D03*
%TO.P,J16,7*%
X355740000Y-325772364D03*
%TO.P,J16,8*%
X358280000Y-325772364D03*
%TO.P,J16,9*%
X360820000Y-325772364D03*
%TO.P,J16,10*%
X363360000Y-325772364D03*
%TD*%
D14*
%TO.P,J30,1*%
%TO.N,unconnected-(J30-Pad1)*%
X349420000Y-319812364D03*
D15*
%TO.P,J30,2*%
%TO.N,unconnected-(J30-Pad2)*%
X349420000Y-317272364D03*
%TO.P,J30,3*%
%TO.N,unconnected-(J30-Pad3)*%
X351960000Y-319812364D03*
%TO.P,J30,4*%
%TO.N,unconnected-(J30-Pad4)*%
X351960000Y-317272364D03*
%TD*%
D21*
%TO.P,C2,1*%
%TO.N,GND*%
X113100000Y-238272364D03*
%TO.P,C2,2*%
%TO.N,/UCE board/VDD_MCU_CTL_3v3*%
X115000000Y-238272364D03*
%TD*%
D14*
%TO.P,J12,1*%
%TO.N,/Power/Power Rails/Vout_external_2*%
X197279449Y-325692041D03*
D15*
%TO.P,J12,2*%
X199819449Y-325692041D03*
%TO.P,J12,3*%
X202359449Y-325692041D03*
%TO.P,J12,4*%
X204899449Y-325692041D03*
%TO.P,J12,5*%
X207439449Y-325692041D03*
%TO.P,J12,6*%
X209979449Y-325692041D03*
%TO.P,J12,7*%
X212519449Y-325692041D03*
%TO.P,J12,8*%
X215059449Y-325692041D03*
%TO.P,J12,9*%
X217599449Y-325692041D03*
%TO.P,J12,10*%
X220139449Y-325692041D03*
%TO.P,J12,11*%
X222679449Y-325692041D03*
%TO.P,J12,12*%
X225219449Y-325692041D03*
%TO.P,J12,13*%
X227759449Y-325692041D03*
%TO.P,J12,14*%
X230299449Y-325692041D03*
%TO.P,J12,15*%
X232839449Y-325692041D03*
%TO.P,J12,16*%
X235379449Y-325692041D03*
%TO.P,J12,17*%
X237919449Y-325692041D03*
%TO.P,J12,18*%
X240459449Y-325692041D03*
%TO.P,J12,19*%
X242999449Y-325692041D03*
%TO.P,J12,20*%
X245539449Y-325692041D03*
%TD*%
D33*
%TO.P,C5,1*%
%TO.N,GND*%
X118500000Y-252222364D03*
%TO.P,C5,2*%
%TO.N,/UCE board/VDDA_MCU_CTL_3v3*%
X118500000Y-250322364D03*
%TD*%
D14*
%TO.P,J6,1,Pin_1*%
%TO.N,GND*%
X364860000Y-306772364D03*
D15*
%TO.P,J6,2,Pin_2*%
X364860000Y-309312364D03*
%TO.P,J6,3,Pin_3*%
X362320000Y-306772364D03*
%TO.P,J6,4,Pin_4*%
X362320000Y-309312364D03*
%TO.P,J6,5,Pin_5*%
%TO.N,+5V*%
X359780000Y-306772364D03*
%TO.P,J6,6,Pin_6*%
X359780000Y-309312364D03*
%TO.P,J6,7,Pin_7*%
%TO.N,VCC_3V3*%
X357240000Y-306772364D03*
%TO.P,J6,8,Pin_8*%
X357240000Y-309312364D03*
%TO.P,J6,9,Pin_9*%
%TO.N,VCC_1V8*%
X354700000Y-306772364D03*
%TO.P,J6,10,Pin_10*%
X354700000Y-309312364D03*
%TO.P,J6,11,Pin_11*%
%TO.N,VREF_IO*%
X352160000Y-306772364D03*
%TO.P,J6,12,Pin_12*%
X352160000Y-309312364D03*
%TO.P,J6,13,Pin_13*%
%TO.N,VIO_BANK0*%
X349620000Y-306772364D03*
%TO.P,J6,14,Pin_14*%
%TO.N,VIO_BANK1*%
X349620000Y-309312364D03*
%TO.P,J6,15,Pin_15*%
%TO.N,VIO_BANK2*%
X347080000Y-306772364D03*
%TO.P,J6,16,Pin_16*%
%TO.N,VIO_BANK3*%
X347080000Y-309312364D03*
%TO.P,J6,17,Pin_17*%
%TO.N,PWR_GOOD*%
X344540000Y-306772364D03*
%TO.P,J6,18,Pin_18*%
X344540000Y-309312364D03*
%TO.P,J6,19,Pin_19*%
%TO.N,GND*%
X342000000Y-306772364D03*
%TO.P,J6,20,Pin_20*%
X342000000Y-309312364D03*
%TO.P,J6,21,Pin_21*%
X339460000Y-306772364D03*
%TO.P,J6,22,Pin_22*%
X339460000Y-309312364D03*
%TO.P,J6,23,Pin_23*%
%TO.N,VCC_IN*%
X336920000Y-306772364D03*
%TO.P,J6,24,Pin_24*%
%TO.N,GND*%
X336920000Y-309312364D03*
%TO.P,J6,25,Pin_25*%
%TO.N,MCU_RST_N*%
X334380000Y-306772364D03*
%TO.P,J6,26,Pin_26*%
%TO.N,MCU_EN*%
X334380000Y-309312364D03*
%TO.P,J6,27,Pin_27*%
%TO.N,MCU_BOOT0*%
X331840000Y-306772364D03*
%TO.P,J6,28,Pin_28*%
%TO.N,MCU_BOOT1*%
X331840000Y-309312364D03*
%TO.P,J6,29,Pin_29*%
%TO.N,I2C0_SCL*%
X329300000Y-306772364D03*
%TO.P,J6,30,Pin_30*%
%TO.N,I2C0_SDA*%
X329300000Y-309312364D03*
%TO.P,J6,31,Pin_31*%
%TO.N,I2C1_SCL*%
X326760000Y-306772364D03*
%TO.P,J6,32,Pin_32*%
%TO.N,I2C1_SDA*%
X326760000Y-309312364D03*
%TO.P,J6,33,Pin_33*%
%TO.N,I2C2_SCL*%
X324220000Y-306772364D03*
%TO.P,J6,34,Pin_34*%
%TO.N,I2C2_SDA*%
X324220000Y-309312364D03*
%TO.P,J6,35,Pin_35*%
%TO.N,UART0_TX*%
X321680000Y-306772364D03*
%TO.P,J6,36,Pin_36*%
%TO.N,UART0_RX*%
X321680000Y-309312364D03*
%TO.P,J6,37,Pin_37*%
%TO.N,UART1_TX*%
X319140000Y-306772364D03*
%TO.P,J6,38,Pin_38*%
%TO.N,UART1_RX*%
X319140000Y-309312364D03*
%TO.P,J6,39,Pin_39*%
%TO.N,UART2_TX*%
X316600000Y-306772364D03*
%TO.P,J6,40,Pin_40*%
%TO.N,UART2_RX*%
X316600000Y-309312364D03*
%TD*%
D34*
%TO.P,BT1,1,+*%
%TO.N,Net-(BT1-+)*%
X113790773Y-262822364D03*
X113790773Y-288722364D03*
D35*
%TO.P,BT1,2,-*%
%TO.N,GND*%
X113790773Y-275772364D03*
%TD*%
D33*
%TO.P,C4,1*%
%TO.N,GND*%
X122000000Y-252222364D03*
%TO.P,C4,2*%
%TO.N,/UCE board/VDD_MCU_CTL_3v3*%
X122000000Y-250322364D03*
%TD*%
D36*
%TO.N,GND*%
X235806159Y-174272364D03*
D37*
X187000000Y-237272364D03*
D36*
X245321281Y-174272364D03*
X127500000Y-242272364D03*
X337000000Y-329772364D03*
D37*
X186500000Y-140272364D03*
D36*
X225833115Y-174272364D03*
X194297303Y-174272364D03*
X139046224Y-196226140D03*
X132500000Y-211272364D03*
X103500000Y-185371364D03*
X180800000Y-170372364D03*
X177000000Y-329692364D03*
X196292790Y-174272364D03*
X113250000Y-237022364D03*
X296086611Y-329772364D03*
X117500000Y-252272364D03*
X127000000Y-239772364D03*
X139000000Y-205963181D03*
X235585644Y-179647364D03*
X194500000Y-179647364D03*
X139051000Y-185023364D03*
X124050000Y-255273364D03*
D37*
X61500000Y-237272364D03*
D36*
X231007717Y-179627509D03*
X103500000Y-188772364D03*
X123500000Y-252222364D03*
D37*
X61500000Y-326772364D03*
D36*
X116500000Y-236272364D03*
D37*
X187000000Y-327272364D03*
D36*
X120500000Y-252272364D03*
X213814300Y-174272364D03*
X229318090Y-174272364D03*
D37*
X307500000Y-327272364D03*
D36*
X181024805Y-179647364D03*
X231299322Y-174272364D03*
D37*
X379000000Y-238772364D03*
D36*
X211312816Y-174272364D03*
X178800000Y-174272364D03*
X210307946Y-174273492D03*
X200811141Y-174272364D03*
X129000000Y-240772364D03*
D37*
X379500000Y-139272364D03*
X307500000Y-237772364D03*
D36*
X244987583Y-179772364D03*
X111500000Y-246272364D03*
X229037232Y-179604596D03*
X365500000Y-329692364D03*
X214000000Y-179639361D03*
X258000000Y-329772364D03*
X116500000Y-237772364D03*
X180827200Y-174272364D03*
X249500000Y-329772364D03*
D37*
X307500000Y-140272364D03*
D36*
X219081246Y-179609805D03*
X178600000Y-179647364D03*
D37*
X61500000Y-140272364D03*
D36*
X123500000Y-236272364D03*
D37*
X379000000Y-327272364D03*
D36*
%TO.N,PWR_GOOD*%
X181150006Y-183172364D03*
%TO.N,DBG_TMS*%
X237500000Y-177772364D03*
X235500000Y-177772364D03*
D38*
%TO.N,VREF_IO*%
X179371258Y-170678925D03*
D36*
%TO.N,DBG_TCK*%
X272000000Y-165272364D03*
X274500000Y-165272364D03*
X201000000Y-169172364D03*
X200000000Y-170372364D03*
%TO.N,VIO_BANK0*%
X180350003Y-183172364D03*
%TO.N,DBG_TDO*%
X268500000Y-168272364D03*
X271500000Y-168272364D03*
D38*
%TO.N,VIO_BANK2*%
X180000000Y-170272364D03*
D36*
%TO.N,UART1_TX*%
X183000000Y-186772364D03*
%TO.N,I2C0_SCL*%
X181565687Y-187706677D03*
X310692062Y-288172364D03*
%TO.N,I2C1_SCL*%
X309380000Y-289392364D03*
%TO.N,MCU_RST_N*%
X181000000Y-188272364D03*
X332595000Y-304677364D03*
X181500000Y-182272364D03*
X316690000Y-288772364D03*
%TO.N,I2C2_SCL*%
X334500000Y-303272364D03*
X182213730Y-187237588D03*
%TO.N,VCC_IN*%
X334960000Y-304812364D03*
%TO.N,/UCE board/+3.3v Shunt Out*%
X140101000Y-183772364D03*
%TO.N,I2C_SDA_MCU_CTL*%
X142470073Y-229534167D03*
X138999000Y-229522364D03*
%TO.N,I2C_SCL_MCU_CTL*%
X141870073Y-228922364D03*
X177400000Y-185772364D03*
X139502776Y-228900903D03*
X203000000Y-182772364D03*
%TO.N,Net-(BT1-+)*%
X113600000Y-240772364D03*
X112000000Y-242272364D03*
%TO.N,/UCE board/+5v Shunt Out*%
X112750000Y-230022364D03*
X118000000Y-224772364D03*
%TO.N,/UCE board/+12v Shunt Out*%
X116500000Y-244272364D03*
X119500000Y-224171364D03*
%TO.N,/UCE board/VDD_MCU_CTL_3v3*%
X120500000Y-250372364D03*
X123500000Y-239772364D03*
X116922348Y-235497959D03*
X116056885Y-239446390D03*
X113000000Y-243272364D03*
X121714982Y-235497959D03*
X115001676Y-239498881D03*
X112950000Y-246272364D03*
%TO.N,/Power/Power Rails/Vout_external_1*%
X100500000Y-325772364D03*
%TO.N,+5V*%
X178749997Y-183172364D03*
X142830685Y-197941679D03*
X140000000Y-197941679D03*
%TO.N,+12V*%
X144000000Y-209272364D03*
X139500000Y-209272364D03*
%TO.N,+3.3V*%
X140500000Y-186772364D03*
X355000000Y-315272364D03*
X338500000Y-315272364D03*
X177499000Y-171272364D03*
D38*
X179000000Y-171272364D03*
D36*
%TO.N,VCC_1V8*%
X179550000Y-183172364D03*
%TD*%
D39*
%TO.N,GND*%
X249819449Y-329692041D02*
X249899772Y-329772364D01*
X61500000Y-237272364D02*
X61500000Y-161272364D01*
D10*
X113000000Y-238272364D02*
X113000000Y-237272364D01*
X178600000Y-179672364D02*
X178500000Y-179772364D01*
D39*
X107898000Y-199922364D02*
X107898000Y-199670364D01*
D10*
X194550000Y-179822364D02*
X194550000Y-180997364D01*
X194297303Y-174075061D02*
X194300000Y-174072364D01*
X178500000Y-179772364D02*
X178500000Y-180272364D01*
D39*
X61500000Y-326772364D02*
X64500000Y-329772364D01*
D10*
X122000000Y-252222364D02*
X123500000Y-252222364D01*
D39*
X107898000Y-211272364D02*
X111250000Y-211272364D01*
D10*
X180827200Y-174272364D02*
X180827200Y-174099564D01*
D39*
X71500000Y-329772364D02*
X75960000Y-329772364D01*
D10*
X111000000Y-245772364D02*
X111500000Y-246272364D01*
D39*
X316840000Y-148112364D02*
X315340000Y-148112364D01*
D10*
X123500000Y-236272364D02*
X116500000Y-236272364D01*
X196300000Y-174072364D02*
X196300000Y-172797365D01*
X139051000Y-194852443D02*
X139046224Y-194857219D01*
D39*
X103500000Y-188772364D02*
X104500000Y-188772364D01*
D10*
X245300000Y-174072364D02*
X245300000Y-172797365D01*
D39*
X177000000Y-329692364D02*
X184580000Y-329692364D01*
D40*
X73500000Y-327772364D02*
X71500000Y-329772364D01*
D10*
X117087500Y-239359864D02*
X117087500Y-240184864D01*
X210307946Y-174273492D02*
X210307946Y-172805311D01*
X118175000Y-241272364D02*
X121000000Y-241272364D01*
X113000000Y-237272364D02*
X113250000Y-237022364D01*
X214000000Y-180947364D02*
X214050000Y-180997364D01*
X229318090Y-174272364D02*
X229318090Y-172815455D01*
D40*
X78640000Y-309312364D02*
X78640000Y-306772364D01*
D39*
X107499000Y-214873364D02*
X107499000Y-211671364D01*
D10*
X113790773Y-273039045D02*
X113790773Y-275772364D01*
D39*
X258000000Y-329772364D02*
X296000000Y-329772364D01*
D40*
X307500000Y-143772364D02*
X307500000Y-140272364D01*
D10*
X120750000Y-211272364D02*
X118600000Y-211272364D01*
D39*
X106102000Y-188772364D02*
X107000000Y-189670364D01*
X197339449Y-329692041D02*
X190019449Y-329692041D01*
D40*
X289940000Y-156772364D02*
X302640000Y-156772364D01*
D39*
X176440000Y-329692364D02*
X173900000Y-329692364D01*
X315340000Y-148112364D02*
X307500000Y-140272364D01*
D10*
X100111000Y-310561364D02*
X98400000Y-312272364D01*
D41*
X118000000Y-211272364D02*
X117000000Y-210272364D01*
D39*
X107000000Y-200820364D02*
X107000000Y-210272364D01*
D41*
X118600000Y-211272364D02*
X118000000Y-211272364D01*
D10*
X116500000Y-236272364D02*
X116321348Y-236093712D01*
X194297303Y-174272364D02*
X194297303Y-174075061D01*
D39*
X340510000Y-329692364D02*
X315550000Y-329692364D01*
X245599449Y-329692041D02*
X249839449Y-329692041D01*
X296086611Y-329772364D02*
X305000000Y-329772364D01*
X249899772Y-329772364D02*
X258000000Y-329772364D01*
D40*
X106101000Y-182770364D02*
X145548000Y-182770364D01*
D39*
X245599449Y-329692041D02*
X197339449Y-329692041D01*
X106000000Y-188772364D02*
X111250000Y-188772364D01*
D10*
X245321281Y-174093645D02*
X245300000Y-174072364D01*
D39*
X176440000Y-329692364D02*
X177000000Y-329692364D01*
D10*
X119587500Y-246913540D02*
X119587500Y-247684864D01*
X121000000Y-241272364D02*
X123500000Y-241272364D01*
D41*
X120750000Y-199922364D02*
X117598000Y-199922364D01*
D10*
X84140000Y-312272364D02*
X81180000Y-309312364D01*
D41*
X117000000Y-201272364D02*
X117000000Y-199272364D01*
D39*
X296000000Y-329772364D02*
X296086611Y-329772364D01*
X104500000Y-188772364D02*
X106102000Y-188772364D01*
D10*
X235500000Y-180672169D02*
X235500000Y-180947364D01*
D39*
X79000000Y-219772364D02*
X88000000Y-219772364D01*
D40*
X81180000Y-309312364D02*
X78640000Y-309312364D01*
D39*
X302500000Y-156632364D02*
X302500000Y-148772364D01*
D10*
X116321348Y-228093712D02*
X114500000Y-226272364D01*
D39*
X107499000Y-211671364D02*
X107898000Y-211272364D01*
D10*
X196292790Y-174272364D02*
X196292790Y-174079574D01*
D39*
X315340000Y-156772364D02*
X315340000Y-148112364D01*
X104500000Y-188772364D02*
X106000000Y-188772364D01*
X113000000Y-215772364D02*
X108398000Y-215772364D01*
D10*
X231007717Y-179627509D02*
X231000000Y-179635226D01*
D39*
X107898000Y-188772364D02*
X107000000Y-189670364D01*
X363370000Y-329692364D02*
X364220000Y-329692364D01*
X111250000Y-199922364D02*
X107898000Y-199922364D01*
D10*
X229050000Y-179617364D02*
X229050000Y-180997364D01*
D40*
X81180000Y-309312364D02*
X81180000Y-306772364D01*
D10*
X245061984Y-179846765D02*
X245061984Y-180985380D01*
X211312816Y-174272364D02*
X211312816Y-174085180D01*
X210307946Y-172805311D02*
X210300000Y-172797365D01*
X127500000Y-240272364D02*
X127000000Y-239772364D01*
X121587500Y-246272364D02*
X121587500Y-245772364D01*
X235800000Y-174072364D02*
X235800000Y-172797365D01*
X178600000Y-179647364D02*
X178600000Y-179672364D01*
X231000000Y-179635226D02*
X231000000Y-180947364D01*
D41*
X117000000Y-212997099D02*
X114224735Y-215772364D01*
D10*
X124050000Y-255273364D02*
X124000000Y-255323364D01*
X196292790Y-174079574D02*
X196300000Y-174072364D01*
D41*
X117000000Y-189370364D02*
X117598000Y-188772364D01*
D10*
X114500000Y-216772364D02*
X114500000Y-226272364D01*
X235585644Y-180586525D02*
X235500000Y-180672169D01*
D41*
X117598000Y-188772364D02*
X120750000Y-188772364D01*
D10*
X194300000Y-174072364D02*
X194300000Y-172797365D01*
D39*
X161200000Y-329692364D02*
X158660000Y-329692364D01*
D10*
X176800000Y-329492364D02*
X177000000Y-329692364D01*
X117600000Y-252172364D02*
X117500000Y-252272364D01*
D39*
X302500000Y-148772364D02*
X307500000Y-143772364D01*
D10*
X231299322Y-172798043D02*
X231300000Y-172797365D01*
X121587500Y-241859864D02*
X121000000Y-241272364D01*
X111050000Y-244772364D02*
X111000000Y-244822364D01*
X194500000Y-179772364D02*
X194550000Y-179822364D01*
X127500000Y-242272364D02*
X127500000Y-240272364D01*
D40*
X78640000Y-309312364D02*
X78640000Y-310912364D01*
D39*
X81500000Y-188772364D02*
X63500000Y-170772364D01*
X308500000Y-139272364D02*
X307500000Y-140272364D01*
X108000000Y-211272364D02*
X111250000Y-211272364D01*
X315550000Y-329692364D02*
X308760000Y-329692364D01*
D10*
X139000000Y-205963181D02*
X139000000Y-206298900D01*
X120228676Y-246272364D02*
X119587500Y-246913540D01*
D39*
X158660000Y-329692364D02*
X76040000Y-329692364D01*
D41*
X117000000Y-199272364D02*
X117000000Y-189370364D01*
D10*
X121000000Y-246272364D02*
X121087500Y-246272364D01*
D39*
X107000000Y-189670364D02*
X107000000Y-198772364D01*
X171360000Y-329692364D02*
X168820000Y-329692364D01*
D10*
X235500000Y-180947364D02*
X235550000Y-180997364D01*
D40*
X78640000Y-306772364D02*
X81180000Y-306772364D01*
D39*
X63500000Y-170772364D02*
X63500000Y-161272364D01*
D10*
X118500000Y-252172364D02*
X117600000Y-252172364D01*
D40*
X78640000Y-310912364D02*
X73500000Y-316052364D01*
X145548000Y-182770364D02*
X146700000Y-183922364D01*
D39*
X379000000Y-238772364D02*
X378000000Y-237772364D01*
D42*
X186500000Y-140772364D02*
X186000000Y-141272364D01*
D10*
X225833115Y-172830480D02*
X225800000Y-172797365D01*
D39*
X107898000Y-199922364D02*
X107748000Y-199772364D01*
X107748000Y-199772364D02*
X107000000Y-199772364D01*
D10*
X121087500Y-246272364D02*
X121587500Y-245772364D01*
X245321281Y-174272364D02*
X245321281Y-174093645D01*
X124000000Y-262829818D02*
X113790773Y-273039045D01*
X117087500Y-238359864D02*
X116500000Y-237772364D01*
X213800000Y-174072364D02*
X213800000Y-172797365D01*
D39*
X306500000Y-140272364D02*
X61500000Y-140272364D01*
X107000000Y-198772364D02*
X107000000Y-200820364D01*
D10*
X117500000Y-252885864D02*
X115487500Y-254898364D01*
X235806159Y-174272364D02*
X235806159Y-174078523D01*
D39*
X361410000Y-329692364D02*
X365500000Y-329692364D01*
D10*
X76420000Y-329312364D02*
X76040000Y-329692364D01*
D39*
X248319449Y-329692041D02*
X249819449Y-329692041D01*
D10*
X111509000Y-254898364D02*
X109788000Y-253177364D01*
X113000000Y-215772364D02*
X113500000Y-215772364D01*
X245061984Y-180985380D02*
X245050000Y-180997364D01*
X115487500Y-254898364D02*
X111509000Y-254898364D01*
D39*
X340510000Y-329692364D02*
X363370000Y-329692364D01*
X107898000Y-199922364D02*
X107000000Y-200820364D01*
D10*
X124000000Y-255323364D02*
X124000000Y-262829818D01*
D39*
X379500000Y-139272364D02*
X308500000Y-139272364D01*
D41*
X117000000Y-210272364D02*
X117000000Y-212997099D01*
D10*
X98400000Y-312272364D02*
X84140000Y-312272364D01*
X214000000Y-179639361D02*
X214000000Y-180947364D01*
X138400000Y-184372364D02*
X139051000Y-185023364D01*
X213814300Y-174272364D02*
X213814300Y-174086664D01*
D39*
X315340000Y-159312364D02*
X315340000Y-156772364D01*
D10*
X113500000Y-215772364D02*
X114500000Y-216772364D01*
D39*
X173900000Y-329692364D02*
X171360000Y-329692364D01*
D10*
X235585644Y-179647364D02*
X235585644Y-180586525D01*
D41*
X117650000Y-199922364D02*
X117000000Y-199272364D01*
D39*
X163740000Y-329692364D02*
X161200000Y-329692364D01*
D10*
X211300000Y-174072364D02*
X211300000Y-172797365D01*
X181024805Y-179647364D02*
X181024805Y-180972169D01*
D42*
X186500000Y-140272364D02*
X186500000Y-140772364D01*
D39*
X365500000Y-329692364D02*
X376580000Y-329692364D01*
D10*
X111000000Y-244822364D02*
X111000000Y-245772364D01*
D39*
X166280000Y-329692364D02*
X163740000Y-329692364D01*
D10*
X219081246Y-180966118D02*
X219050000Y-180997364D01*
D40*
X73500000Y-316052364D02*
X73500000Y-327772364D01*
D39*
X111250000Y-188772364D02*
X107898000Y-188772364D01*
D10*
X219081246Y-179609805D02*
X219081246Y-180966118D01*
D40*
X103500000Y-185371364D02*
X106101000Y-182770364D01*
D39*
X61500000Y-237272364D02*
X61500000Y-326772364D01*
D10*
X200800000Y-174072364D02*
X200800000Y-172797365D01*
X229037232Y-179604596D02*
X229050000Y-179617364D01*
X120500000Y-252272364D02*
X122500000Y-252272364D01*
X200811141Y-174083505D02*
X200800000Y-174072364D01*
X336920000Y-309312364D02*
X339460000Y-309312364D01*
D42*
X186500000Y-140272364D02*
X185500000Y-140272364D01*
D41*
X117598000Y-199922364D02*
X117000000Y-200520364D01*
D10*
X231000000Y-180947364D02*
X231050000Y-180997364D01*
X101500000Y-306772364D02*
X100111000Y-308161364D01*
D39*
X61500000Y-161272364D02*
X61500000Y-140272364D01*
X379000000Y-139772364D02*
X379000000Y-327272364D01*
D10*
X180827200Y-174099564D02*
X180800000Y-174072364D01*
D39*
X325500000Y-159312364D02*
X325500000Y-156772364D01*
D10*
X100111000Y-308161364D02*
X100111000Y-310561364D01*
D39*
X64500000Y-329772364D02*
X71500000Y-329772364D01*
D10*
X117087500Y-240184864D02*
X118175000Y-241272364D01*
X178800000Y-174272364D02*
X178800000Y-172797365D01*
D39*
X61500000Y-237272364D02*
X79000000Y-219772364D01*
D10*
X121587500Y-247684864D02*
X121587500Y-246272364D01*
D41*
X128000000Y-215772364D02*
X132500000Y-211272364D01*
X117000000Y-200520364D02*
X117000000Y-201272364D01*
D39*
X168820000Y-329692364D02*
X166280000Y-329692364D01*
D10*
X194500000Y-179647364D02*
X194500000Y-179772364D01*
X121000000Y-246272364D02*
X120228676Y-246272364D01*
D39*
X108398000Y-215772364D02*
X107499000Y-214873364D01*
D41*
X117000000Y-210272364D02*
X117000000Y-201272364D01*
D39*
X107000000Y-210272364D02*
X108000000Y-211272364D01*
D10*
X139046224Y-196226140D02*
X138361764Y-195541679D01*
X113100000Y-238272364D02*
X113000000Y-238272364D01*
D40*
X302640000Y-156772364D02*
X302500000Y-156632364D01*
D10*
X229318090Y-172815455D02*
X229300000Y-172797365D01*
D39*
X325500000Y-156772364D02*
X316840000Y-148112364D01*
D10*
X117500000Y-252272364D02*
X117500000Y-252885864D01*
X139000000Y-206298900D02*
X138426536Y-206872364D01*
X213814300Y-174086664D02*
X213800000Y-174072364D01*
X231299322Y-174272364D02*
X231299322Y-172798043D01*
X181024805Y-180972169D02*
X181050000Y-180997364D01*
D41*
X114224735Y-215772364D02*
X128000000Y-215772364D01*
D39*
X343000000Y-329692364D02*
X365500000Y-329692364D01*
X103500000Y-188772364D02*
X81500000Y-188772364D01*
D10*
X200811141Y-174272364D02*
X200811141Y-174083505D01*
X244987583Y-179772364D02*
X245061984Y-179846765D01*
X180800000Y-170372364D02*
X180800000Y-172797365D01*
D41*
X120750000Y-199922364D02*
X117650000Y-199922364D01*
D10*
X235806159Y-174078523D02*
X235800000Y-174072364D01*
X211312816Y-174085180D02*
X211300000Y-174072364D01*
X120750000Y-211272364D02*
X118500000Y-211272364D01*
X180800000Y-174072364D02*
X180800000Y-172797365D01*
D39*
X376580000Y-329692364D02*
X379000000Y-327272364D01*
D10*
X127500000Y-240772364D02*
X129000000Y-240772364D01*
D39*
X107898000Y-199670364D02*
X107000000Y-198772364D01*
D10*
X121587500Y-245772364D02*
X121587500Y-241859864D01*
X225833115Y-174272364D02*
X225833115Y-172830480D01*
X117087500Y-239359864D02*
X117087500Y-238359864D01*
X116321348Y-236093712D02*
X116321348Y-228093712D01*
D41*
X114224735Y-215772364D02*
X113000000Y-215772364D01*
D10*
%TO.N,I2S_BCLK*%
X190550000Y-191655264D02*
X186466450Y-195738814D01*
X190550000Y-180997364D02*
X190550000Y-191655264D01*
%TO.N,DBG_SWCLK*%
X305180000Y-156772364D02*
X304029000Y-157923364D01*
X304029000Y-157923364D02*
X304029000Y-162743364D01*
X304029000Y-162743364D02*
X303500000Y-163272364D01*
%TO.N,GPIO0*%
X181875000Y-191772364D02*
X184917750Y-188729614D01*
X184917750Y-188690114D02*
X184835500Y-188772364D01*
X184917750Y-188729614D02*
X184917750Y-188690114D01*
X186050000Y-180997364D02*
X186050000Y-187557864D01*
X186050000Y-187557864D02*
X184917750Y-188690114D01*
%TO.N,MOD_TYPE0*%
X312800000Y-164472364D02*
X312500000Y-164772364D01*
X312800000Y-159312364D02*
X312800000Y-164472364D01*
%TO.N,GPIO6*%
X187550000Y-180997364D02*
X187550000Y-190521064D01*
X187550000Y-190521064D02*
X184899350Y-193171714D01*
%TO.N,DBG_UART_RX*%
X306569000Y-157923364D02*
X306569000Y-163841364D01*
X307720000Y-156772364D02*
X306569000Y-157923364D01*
X306569000Y-163841364D02*
X307000000Y-164272364D01*
%TO.N,PWR_GOOD*%
X180550000Y-182255264D02*
X180550000Y-180997364D01*
X181150006Y-183172364D02*
X181150006Y-182855270D01*
X181150006Y-182855270D02*
X180550000Y-182255264D01*
%TO.N,PWM2*%
X188550000Y-190655264D02*
X184500000Y-194705264D01*
X184500000Y-194705264D02*
X184500000Y-194772364D01*
X188550000Y-180997364D02*
X188550000Y-190655264D01*
%TO.N,DBG_TMS*%
X234050000Y-179655264D02*
X235500000Y-178205264D01*
X261067100Y-177772364D02*
X246724206Y-177772364D01*
X246698206Y-177798364D02*
X245951794Y-177798364D01*
X246724206Y-177772364D02*
X246698206Y-177798364D01*
X245951794Y-177798364D02*
X245925794Y-177772364D01*
X292480000Y-159312364D02*
X292480000Y-163752364D01*
X234050000Y-180997364D02*
X234050000Y-179655264D01*
X235500000Y-178205264D02*
X235500000Y-177772364D01*
X291960000Y-164272364D02*
X274567100Y-164272364D01*
X245925794Y-177772364D02*
X237500000Y-177772364D01*
X292480000Y-163752364D02*
X291960000Y-164272364D01*
X274567100Y-164272364D02*
X261067100Y-177772364D01*
%TO.N,PWM0*%
X188050000Y-180997364D02*
X188050000Y-190588164D01*
X188050000Y-190588164D02*
X184932900Y-193705264D01*
%TO.N,DBG_VREF*%
X234550000Y-179722364D02*
X234550000Y-180997364D01*
X289940000Y-162332364D02*
X288500000Y-163772364D01*
X288500000Y-163772364D02*
X274500000Y-163772364D01*
X274500000Y-163772364D02*
X262500000Y-175772364D01*
X288500000Y-163772364D02*
X289500000Y-162772364D01*
X262500000Y-175772364D02*
X238500000Y-175772364D01*
X289940000Y-159312364D02*
X289940000Y-162332364D01*
X238500000Y-175772364D02*
X234550000Y-179722364D01*
%TO.N,VREF_IO*%
X178547430Y-175724934D02*
X178764473Y-175724934D01*
X179802000Y-172799365D02*
X179802000Y-174687407D01*
X179371258Y-170678925D02*
X179800000Y-171107667D01*
X179800000Y-171107667D02*
X179800000Y-172797365D01*
X179800000Y-172797365D02*
X179802000Y-172799365D01*
X179802000Y-174687407D02*
X178764473Y-175724934D01*
%TO.N,AIN1*%
X189550000Y-191155264D02*
X185000000Y-195705264D01*
X189550000Y-180997364D02*
X189550000Y-191155264D01*
%TO.N,UART3_TX*%
X183550000Y-184972421D02*
X183601000Y-185023421D01*
X183601000Y-187171364D02*
X182500000Y-188272364D01*
X183550000Y-180997364D02*
X183550000Y-184972421D01*
X183601000Y-185023421D02*
X183601000Y-187171364D01*
%TO.N,SPI1_MISO*%
X185550000Y-187490764D02*
X184884200Y-188156564D01*
X185550000Y-180997364D02*
X185550000Y-186655264D01*
X185550000Y-186655264D02*
X185550000Y-187490764D01*
%TO.N,DBG_TCK*%
X200000000Y-170372364D02*
X199300000Y-171072364D01*
X199300000Y-171072364D02*
X199300000Y-172797365D01*
X275000000Y-164772364D02*
X274500000Y-165272364D01*
X295020000Y-159312364D02*
X295020000Y-163752364D01*
X294000000Y-164772364D02*
X275000000Y-164772364D01*
X208500000Y-161772364D02*
X268500000Y-161772364D01*
X268500000Y-161772364D02*
X272000000Y-165272364D01*
X201100000Y-169172364D02*
X208500000Y-161772364D01*
X201000000Y-169172364D02*
X201100000Y-169172364D01*
X295020000Y-163752364D02*
X294000000Y-164772364D01*
%TO.N,VIO_BANK0*%
X180350003Y-182622367D02*
X180050000Y-182322364D01*
X180050000Y-182322364D02*
X180050000Y-180997364D01*
X178634200Y-183772364D02*
X178500000Y-183772364D01*
X180350003Y-183172364D02*
X180350003Y-182622367D01*
%TO.N,DBG_TDI*%
X300100000Y-163172364D02*
X299500000Y-163772364D01*
X300100000Y-159312364D02*
X300100000Y-163172364D01*
%TO.N,DBG_UART_TX*%
X307720000Y-159312364D02*
X307720000Y-164552364D01*
X307720000Y-164552364D02*
X307500000Y-164772364D01*
%TO.N,DBG_SWDIO*%
X305180000Y-159312364D02*
X305180000Y-164092364D01*
%TO.N,SPI0_CS1*%
X184951000Y-187522664D02*
X184033550Y-188440114D01*
X184033550Y-188440114D02*
X184033550Y-188805914D01*
X185050000Y-186655264D02*
X185065450Y-186670714D01*
X185050000Y-186655264D02*
X185050000Y-187222364D01*
X184951000Y-187321364D02*
X184951000Y-187522664D01*
X185050000Y-180997364D02*
X185050000Y-186655264D01*
X185050000Y-187222364D02*
X184951000Y-187321364D01*
%TO.N,UART0_DSR*%
X184050000Y-180997364D02*
X184050000Y-185655264D01*
X184050000Y-185655264D02*
X184050000Y-187289464D01*
X182567100Y-188772364D02*
X182500000Y-188772364D01*
X184050000Y-187289464D02*
X182567100Y-188772364D01*
%TO.N,GPIO4*%
X187050000Y-188087464D02*
X182500000Y-192637464D01*
X187050000Y-180997364D02*
X187050000Y-188087464D01*
%TO.N,DBG_TDO*%
X297560000Y-159312364D02*
X297560000Y-164712364D01*
X297560000Y-164712364D02*
X297000000Y-165272364D01*
X234300000Y-171913541D02*
X237941177Y-168272364D01*
X297000000Y-165272364D02*
X275500000Y-165272364D01*
X237941177Y-168272364D02*
X268500000Y-168272364D01*
X275500000Y-165272364D02*
X272500000Y-168272364D01*
X234300000Y-172797365D02*
X234300000Y-171913541D01*
X272500000Y-168272364D02*
X271500000Y-168272364D01*
%TO.N,DBG_RESET_N*%
X302640000Y-159312364D02*
X302640000Y-162632364D01*
X302640000Y-162632364D02*
X302500000Y-162772364D01*
%TO.N,MOD_TYPE2*%
X311649000Y-157923364D02*
X311649000Y-164623364D01*
X311649000Y-164623364D02*
X311000000Y-165272364D01*
X312800000Y-156772364D02*
X311649000Y-157923364D01*
%TO.N,VIO_BANK2*%
X180300000Y-172797365D02*
X180300000Y-173972364D01*
X180000000Y-170422307D02*
X180000000Y-170272364D01*
X180300000Y-172797365D02*
X180300000Y-170722307D01*
X180203000Y-174069364D02*
X180203000Y-176569364D01*
X180203000Y-176569364D02*
X178500000Y-178272364D01*
X180300000Y-170722307D02*
X180000000Y-170422307D01*
X180300000Y-173972364D02*
X180203000Y-174069364D01*
%TO.N,SPI0_SCK*%
X183000000Y-188906564D02*
X183000000Y-189272364D01*
X184550000Y-180997364D02*
X184550000Y-187356564D01*
X184550000Y-187356564D02*
X183000000Y-188906564D01*
%TO.N,AIN3*%
X190050000Y-191222364D02*
X185500000Y-195772364D01*
X190050000Y-180997364D02*
X190050000Y-191222364D01*
%TO.N,MOD_PRESENT_N*%
X310260000Y-159312364D02*
X310260000Y-164532364D01*
X310260000Y-164532364D02*
X310500000Y-164772364D01*
%TO.N,MOD_TYPE1*%
X309000000Y-158032364D02*
X309000000Y-163772364D01*
X310260000Y-156772364D02*
X309000000Y-158032364D01*
%TO.N,IR_RX_IN*%
X189050000Y-190722364D02*
X185000000Y-194772364D01*
X189050000Y-180997364D02*
X189050000Y-190722364D01*
%TO.N,I2S_MCLK*%
X191050000Y-191722364D02*
X185500000Y-197272364D01*
X191050000Y-180997364D02*
X191050000Y-191722364D01*
%TO.N,GPIO2*%
X186550000Y-187722364D02*
X182000000Y-192272364D01*
X186550000Y-180997364D02*
X186550000Y-187722364D01*
%TO.N,UART0_RX*%
X299567100Y-282272364D02*
X298500000Y-282272364D01*
X321680000Y-309312364D02*
X322831000Y-308161364D01*
X322831000Y-308161364D02*
X322831000Y-305536264D01*
X322831000Y-305536264D02*
X299567100Y-282272364D01*
%TO.N,UART0_TX*%
X321680000Y-306772364D02*
X300000000Y-285092364D01*
X300000000Y-285092364D02*
X300000000Y-283272364D01*
%TO.N,UART1_RX*%
X320291000Y-308161364D02*
X320291000Y-305950464D01*
X319140000Y-309312364D02*
X320291000Y-308161364D01*
X320291000Y-305950464D02*
X297000000Y-282659464D01*
%TO.N,MCU_EN*%
X309507760Y-280272364D02*
X309000000Y-280272364D01*
X334380000Y-309312364D02*
X335531000Y-308161364D01*
X335531000Y-306295604D02*
X309507760Y-280272364D01*
X335531000Y-308161364D02*
X335531000Y-306295604D01*
%TO.N,UART2_TX*%
X316600000Y-306772364D02*
X294600000Y-284772364D01*
X294600000Y-284772364D02*
X292000000Y-284772364D01*
%TO.N,I2C1_SDA*%
X327911000Y-308161364D02*
X327911000Y-306295604D01*
X327911000Y-306295604D02*
X302387760Y-280772364D01*
X302387760Y-280772364D02*
X302000000Y-280772364D01*
X326760000Y-309312364D02*
X327911000Y-308161364D01*
%TO.N,UART1_TX*%
X183001000Y-186771364D02*
X183001000Y-185271364D01*
X183050000Y-185222364D02*
X183050000Y-180997364D01*
X183000000Y-186772364D02*
X183001000Y-186771364D01*
X183050000Y-180997364D02*
X183001000Y-181046364D01*
X296640000Y-284272364D02*
X295000000Y-284272364D01*
X183001000Y-185271364D02*
X183050000Y-185222364D01*
X319140000Y-306772364D02*
X296640000Y-284272364D01*
%TO.N,MCU_BOOT1*%
X331840000Y-309312364D02*
X332991000Y-308161364D01*
X332991000Y-308161364D02*
X332991000Y-306263364D01*
X332991000Y-306263364D02*
X306000000Y-279272364D01*
%TO.N,I2C0_SDA*%
X304427760Y-280272364D02*
X330451000Y-306295604D01*
X330451000Y-306295604D02*
X330451000Y-308321364D01*
X329460000Y-309312364D02*
X329300000Y-309312364D01*
X301000000Y-280272364D02*
X304427760Y-280272364D01*
X330451000Y-308321364D02*
X329460000Y-309312364D01*
%TO.N,I2C0_SCL*%
X181565687Y-187706677D02*
X181565687Y-186741643D01*
X182149000Y-181980188D02*
X182099000Y-181930188D01*
X181565687Y-186741643D02*
X181599000Y-186708330D01*
X181998000Y-183207264D02*
X182248000Y-182957264D01*
X181998000Y-185634682D02*
X181998000Y-183207264D01*
X182248000Y-182957264D02*
X182248000Y-182146288D01*
X310692062Y-288172364D02*
X329292062Y-306772364D01*
X182248000Y-182146288D02*
X182149000Y-182047288D01*
X181599000Y-186033682D02*
X181998000Y-185634682D01*
X329292062Y-306772364D02*
X329300000Y-306772364D01*
X182050000Y-180997364D02*
X182001000Y-181046364D01*
X182099000Y-181863088D02*
X182050000Y-181814088D01*
X182149000Y-182047288D02*
X182149000Y-181980188D01*
X181599000Y-186708330D02*
X181599000Y-186033682D01*
X182099000Y-181930188D02*
X182099000Y-181863088D01*
X182050000Y-181814088D02*
X182050000Y-180997364D01*
%TO.N,UART2_RX*%
X315972900Y-309312364D02*
X291500000Y-284839464D01*
X316600000Y-309312364D02*
X315972900Y-309312364D01*
%TO.N,I2C1_SCL*%
X309380000Y-289392364D02*
X309260000Y-289272364D01*
X326760000Y-306772364D02*
X309380000Y-289392364D01*
%TO.N,MCU_RST_N*%
X181550000Y-182222364D02*
X181500000Y-182272364D01*
X181501000Y-181046364D02*
X181550000Y-180997364D01*
X316690000Y-288772364D02*
X332595000Y-304677364D01*
X181550000Y-180997364D02*
X181550000Y-182222364D01*
%TO.N,I2C2_SDA*%
X325371000Y-306233307D02*
X298910057Y-279772364D01*
X325371000Y-308161364D02*
X325371000Y-306233307D01*
X324220000Y-309312364D02*
X325371000Y-308161364D01*
X298910057Y-279772364D02*
X298500000Y-279772364D01*
%TO.N,MCU_BOOT0*%
X214000000Y-201272364D02*
X196000000Y-183272364D01*
X331840000Y-306612364D02*
X226500000Y-201272364D01*
X226500000Y-201272364D02*
X214000000Y-201272364D01*
X331840000Y-306772364D02*
X331840000Y-306612364D01*
%TO.N,I2C2_SCL*%
X182213730Y-187237588D02*
X182000000Y-187023858D01*
X182550000Y-181881188D02*
X182550000Y-180997364D01*
X182501000Y-181046364D02*
X182550000Y-180997364D01*
X182399000Y-183373364D02*
X182649000Y-183123364D01*
X323000000Y-304772364D02*
X305000000Y-286772364D01*
X182000000Y-187023858D02*
X182000000Y-186199782D01*
X182649000Y-183123364D02*
X182649000Y-181980188D01*
X182399000Y-185800782D02*
X182399000Y-183373364D01*
X182000000Y-186199782D02*
X182399000Y-185800782D01*
X182649000Y-181980188D02*
X182550000Y-181881188D01*
%TO.N,VCC_IN*%
X181500000Y-175839464D02*
X178567100Y-178772364D01*
X181300000Y-172797365D02*
X181300000Y-173895221D01*
X181500000Y-174095221D02*
X181500000Y-175839464D01*
X181300000Y-173895221D02*
X181500000Y-174095221D01*
X178500000Y-178772364D02*
X178567100Y-178772364D01*
%TO.N,/UCE board/+3.3v Shunt Out*%
X141469073Y-185140437D02*
X141469073Y-228053348D01*
X139900000Y-183571364D02*
X137450000Y-183571364D01*
X140101000Y-183772364D02*
X139900000Y-183571364D01*
X140101000Y-183772364D02*
X141469073Y-185140437D01*
X124849943Y-245772364D02*
X123500000Y-245772364D01*
X141000000Y-228522421D02*
X141000000Y-229622307D01*
X141000000Y-229622307D02*
X124849943Y-245772364D01*
X137450000Y-183571364D02*
X137450000Y-184372364D01*
X141469073Y-228053348D02*
X141000000Y-228522421D01*
%TO.N,I2C_SDA_MCU_CTL*%
X201158823Y-169772364D02*
X203300000Y-171913541D01*
X129565157Y-238673364D02*
X122774000Y-238673364D01*
X180279232Y-169772364D02*
X201158823Y-169772364D01*
X178000000Y-192372364D02*
X178000000Y-184121307D01*
X178099000Y-171173364D02*
X179500000Y-169772364D01*
X178100000Y-183523421D02*
X178000000Y-183423421D01*
X129966157Y-238272364D02*
X129565157Y-238673364D01*
X180228232Y-169721364D02*
X180279232Y-169772364D01*
X142470073Y-228672421D02*
X142470073Y-227902291D01*
X130000000Y-238272364D02*
X129966157Y-238272364D01*
X122774000Y-238673364D02*
X122087500Y-239359864D01*
X138999000Y-229522364D02*
X138750000Y-229522364D01*
X203300000Y-173681189D02*
X203300000Y-172797365D01*
X203300000Y-171913541D02*
X203300000Y-172797365D01*
X179720768Y-169772364D02*
X179771768Y-169721364D01*
X142470073Y-229172307D02*
X142471073Y-229171307D01*
X178000000Y-183423421D02*
X178000000Y-178050124D01*
X178099000Y-175843604D02*
X178099000Y-171173364D01*
X179500000Y-169772364D02*
X179720768Y-169772364D01*
X178676000Y-176420604D02*
X178099000Y-175843604D01*
X178100000Y-184021307D02*
X178100000Y-183523421D01*
X178000000Y-178050124D02*
X178676000Y-177374124D01*
X142470073Y-227902291D02*
X178000000Y-192372364D01*
X142470073Y-229534167D02*
X142470073Y-229172307D01*
X179771768Y-169721364D02*
X180228232Y-169721364D01*
X142471073Y-228673421D02*
X142470073Y-228672421D01*
X138750000Y-229522364D02*
X130000000Y-238272364D01*
X178676000Y-177374124D02*
X178676000Y-176420604D01*
X178000000Y-184121307D02*
X178100000Y-184021307D01*
X142471073Y-229171307D02*
X142471073Y-228673421D01*
%TO.N,I2C_SCL_MCU_CTL*%
X177500000Y-192288814D02*
X141870073Y-227918741D01*
X139502776Y-228900903D02*
X139499352Y-228904327D01*
X141870073Y-227918741D02*
X141870073Y-228922364D01*
X139499352Y-228904327D02*
X138767094Y-228904327D01*
X138767094Y-228904327D02*
X129399057Y-238272364D01*
X121903676Y-238272364D02*
X121587500Y-238588540D01*
X203050000Y-182722364D02*
X203000000Y-182772364D01*
X129399057Y-238272364D02*
X121903676Y-238272364D01*
X121587500Y-238588540D02*
X121587500Y-239359864D01*
X177500000Y-185872364D02*
X177500000Y-192288814D01*
X203050000Y-180997364D02*
X203050000Y-182722364D01*
X177400000Y-185772364D02*
X177500000Y-185872364D01*
D39*
%TO.N,+24V*%
X149747000Y-181369364D02*
X151300000Y-182922364D01*
X111250000Y-201922364D02*
X114500000Y-201922364D01*
D41*
X114500000Y-190772364D02*
X115000000Y-190772364D01*
D39*
X151300000Y-182922364D02*
X151300000Y-183922364D01*
D41*
X115500000Y-203272364D02*
X115500000Y-212374364D01*
D39*
X69500000Y-161272364D02*
X69500000Y-173772364D01*
D43*
X114500000Y-186772364D02*
X115500000Y-187772364D01*
D41*
X115500000Y-192272364D02*
X115500000Y-191272364D01*
X115500000Y-212374364D02*
X114602000Y-213272364D01*
X115500000Y-191272364D02*
X115000000Y-190772364D01*
D39*
X82500000Y-186772364D02*
X100500000Y-186772364D01*
D41*
X114650000Y-201922364D02*
X115500000Y-201072364D01*
X115500000Y-190272364D02*
X115500000Y-187772364D01*
D39*
X69500000Y-173772364D02*
X82500000Y-186772364D01*
D41*
X111250000Y-190772364D02*
X114500000Y-190772364D01*
X115000000Y-190772364D02*
X115500000Y-190272364D01*
D39*
X105520687Y-181369364D02*
X149747000Y-181369364D01*
X114602000Y-213272364D02*
X111250000Y-213272364D01*
X100500000Y-186772364D02*
X114500000Y-186772364D01*
D41*
X115500000Y-192272364D02*
X115500000Y-200772364D01*
X115500000Y-201072364D02*
X115500000Y-200772364D01*
D10*
X111250000Y-213272364D02*
X112000000Y-213272364D01*
D39*
X100500000Y-186772364D02*
X100500000Y-186390051D01*
D41*
X114650000Y-201922364D02*
X115500000Y-202772364D01*
X115500000Y-200772364D02*
X115500000Y-202772364D01*
X115500000Y-190272364D02*
X115500000Y-192272364D01*
X111250000Y-201922364D02*
X114650000Y-201922364D01*
X115500000Y-202772364D02*
X115500000Y-203272364D01*
D39*
X100500000Y-186390051D02*
X105520687Y-181369364D01*
D10*
%TO.N,+3v3 Shunt*%
X120750000Y-186772364D02*
X118598000Y-186772364D01*
X136500000Y-186772364D02*
X131000000Y-186772364D01*
D39*
X120750000Y-186772364D02*
X136500000Y-186772364D01*
D10*
%TO.N,+5v Shunt*%
X136526536Y-206872364D02*
X136526536Y-198006451D01*
X136500000Y-197672364D02*
X132600000Y-197672364D01*
D39*
X120750000Y-197922364D02*
X136442449Y-197922364D01*
D10*
X136461764Y-197903049D02*
X136442449Y-197922364D01*
D39*
X136442449Y-197922364D02*
X136461764Y-197941679D01*
D10*
X137501000Y-193228915D02*
X136461764Y-194268151D01*
X132600000Y-197672364D02*
X132500000Y-197772364D01*
X136461764Y-194268151D02*
X136461764Y-195541679D01*
X136526536Y-198006451D02*
X136442449Y-197922364D01*
X136500000Y-185356736D02*
X137501000Y-186357736D01*
X137501000Y-186357736D02*
X137501000Y-193228915D01*
X136461764Y-195541679D02*
X136461764Y-197903049D01*
X136500000Y-184372364D02*
X136500000Y-185356736D01*
%TO.N,+12v Shunt*%
X125000000Y-209772364D02*
X125500000Y-209272364D01*
D39*
X125500000Y-209272364D02*
X120750000Y-209272364D01*
X136526536Y-209272364D02*
X125500000Y-209272364D01*
D10*
%TO.N,Net-(BT1-+)*%
X107642546Y-256674137D02*
X113790773Y-262822364D01*
X112000000Y-242272364D02*
X111000000Y-242272364D01*
X109000000Y-283931591D02*
X113790773Y-288722364D01*
X113790773Y-262822364D02*
X109000000Y-267613137D01*
X107642546Y-245629818D02*
X107642546Y-256674137D01*
X113600000Y-240772364D02*
X115175000Y-240772364D01*
X111000000Y-242272364D02*
X107642546Y-245629818D01*
X109000000Y-267613137D02*
X109000000Y-283931591D01*
%TO.N,/UCE board/+5v Shunt Out*%
X114403676Y-244772364D02*
X115175000Y-244772364D01*
X112750000Y-230022364D02*
X111000000Y-231772364D01*
X111000000Y-231772364D02*
X111000000Y-239272364D01*
X137411764Y-195541679D02*
X137411764Y-194841679D01*
X137411764Y-194841679D02*
X137802000Y-194451443D01*
X111000000Y-239272364D02*
X114000000Y-242272364D01*
X137802000Y-194451443D02*
X139679079Y-194451443D01*
X141000000Y-209772364D02*
X126000000Y-224772364D01*
X141000000Y-195772364D02*
X141000000Y-209772364D01*
X114000000Y-242272364D02*
X114000000Y-244368688D01*
X118000000Y-224772364D02*
X117800668Y-224772364D01*
X126000000Y-224772364D02*
X118000000Y-224772364D01*
X139679079Y-194451443D02*
X141000000Y-195772364D01*
X114000000Y-244368688D02*
X114403676Y-244772364D01*
%TO.N,/UCE board/+12v Shunt Out*%
X140501000Y-208857736D02*
X139914628Y-208271364D01*
X138011908Y-208271364D02*
X137476536Y-207735992D01*
X140501000Y-209686992D02*
X140501000Y-208857736D01*
X115175000Y-244272364D02*
X116500000Y-244272364D01*
X119500000Y-224171364D02*
X126016628Y-224171364D01*
X139914628Y-208271364D02*
X138011908Y-208271364D01*
X126016628Y-224171364D02*
X140501000Y-209686992D01*
X137476536Y-207735992D02*
X137476536Y-206872364D01*
%TO.N,unconnected-(U2-PA3-Pad11)*%
X116000000Y-245772364D02*
X115175000Y-245772364D01*
%TO.N,/UCE board/VDD_MCU_CTL_3v3*%
X113000000Y-243272364D02*
X113101057Y-243171307D01*
X122000000Y-250322364D02*
X122000000Y-250372364D01*
X122087500Y-249272364D02*
X122087500Y-248772364D01*
X122087500Y-248772364D02*
X122087500Y-247684864D01*
X122087500Y-249359864D02*
X122087500Y-249272364D01*
X122087500Y-249272364D02*
X122087500Y-250234864D01*
X122087500Y-250234864D02*
X122000000Y-250322364D01*
X122000000Y-250372364D02*
X120500000Y-250372364D01*
X121714982Y-235497959D02*
X116922348Y-235497959D01*
X113350057Y-228572364D02*
X114500000Y-228572364D01*
X113101057Y-243171307D02*
X113101057Y-241940521D01*
X110599000Y-239438464D02*
X110599000Y-231323421D01*
X115000000Y-239497205D02*
X115001676Y-239498881D01*
X112950000Y-244772364D02*
X112950000Y-246272364D01*
X110599000Y-231323421D02*
X113350057Y-228572364D01*
X116143411Y-239359864D02*
X116587500Y-239359864D01*
X124050000Y-240722364D02*
X125500000Y-240722364D01*
X122500000Y-250372364D02*
X122000000Y-250372364D01*
X113101057Y-241940521D02*
X110599000Y-239438464D01*
X123500000Y-239772364D02*
X123500000Y-240772364D01*
X116056885Y-239329249D02*
X116056885Y-239446390D01*
X116056885Y-239446390D02*
X116143411Y-239359864D01*
X124000000Y-240772364D02*
X124050000Y-240722364D01*
X115000000Y-238272364D02*
X115000000Y-239497205D01*
X123500000Y-240772364D02*
X124000000Y-240772364D01*
X113000000Y-244722364D02*
X113000000Y-243272364D01*
X112950000Y-244772364D02*
X113000000Y-244722364D01*
%TO.N,/UCE board/VDDA_MCU_CTL_3*%
X116275500Y-251263364D02*
X115631500Y-251907364D01*
X116275500Y-250496864D02*
X116275500Y-251263364D01*
X118354676Y-248723364D02*
X118500000Y-248723364D01*
X118500000Y-248723364D02*
X119820324Y-248723364D01*
X119820324Y-248723364D02*
X120087500Y-248456188D01*
X118500000Y-248723364D02*
X118049000Y-248723364D01*
X120087500Y-248456188D02*
X120087500Y-247684864D01*
X120087500Y-247684864D02*
X120587500Y-247684864D01*
X115631500Y-251907364D02*
X115212000Y-251907364D01*
X118049000Y-248723364D02*
X116275500Y-250496864D01*
D39*
%TO.N,/Power/Power Rails/Vout_external_1*%
X76300000Y-325772364D02*
X101700000Y-325772364D01*
X101700000Y-325772364D02*
X124560000Y-325772364D01*
D10*
X101000000Y-325772364D02*
X101700000Y-325772364D01*
D39*
%TO.N,/Power/Power Rails/Vout_external_2*%
X220000000Y-322272364D02*
X220139449Y-322411813D01*
X220000000Y-319312364D02*
X220000000Y-322272364D01*
X220139449Y-325692041D02*
X197279449Y-325692041D01*
X218073329Y-319397932D02*
X223153329Y-319397932D01*
X220139449Y-322411813D02*
X220139449Y-325692041D01*
X220139449Y-325692041D02*
X245539449Y-325692041D01*
%TO.N,/Power/Power Rails/Vout_external_3*%
X351960000Y-319812364D02*
X349420000Y-319812364D01*
X343040000Y-325772364D02*
X340500000Y-325772364D01*
X351960000Y-319812364D02*
X353000000Y-320852364D01*
X353000000Y-325572364D02*
X353200000Y-325772364D01*
X363360000Y-325772364D02*
X343040000Y-325772364D01*
X351960000Y-319812364D02*
X354500000Y-319812364D01*
X353000000Y-320852364D02*
X353000000Y-325572364D01*
D40*
%TO.N,+5V*%
X220373329Y-315645693D02*
X219760000Y-315032364D01*
D39*
X358991000Y-309732364D02*
X358991000Y-310037652D01*
X359500000Y-309732364D02*
X358991000Y-309732364D01*
D10*
X138361764Y-197910600D02*
X138361764Y-197941679D01*
X178749997Y-183172364D02*
X178749997Y-182522367D01*
X179050000Y-182222364D02*
X179050000Y-180997364D01*
X359540000Y-309312364D02*
X359500000Y-309272364D01*
D39*
X358991000Y-310037652D02*
X357965288Y-311063364D01*
D40*
X215506519Y-312578883D02*
X212240000Y-309312364D01*
D10*
X328000000Y-316272364D02*
X328151000Y-316121364D01*
X178749997Y-182522367D02*
X179050000Y-182222364D01*
D40*
X217306519Y-312578883D02*
X215506519Y-312578883D01*
D39*
X356361856Y-310910508D02*
X351960000Y-315312364D01*
X138361764Y-197941679D02*
X140000000Y-197941679D01*
X356514712Y-311063364D02*
X356361856Y-310910508D01*
D10*
X359780000Y-309312364D02*
X359540000Y-309312364D01*
D40*
X220373329Y-316817932D02*
X220373329Y-315645693D01*
D39*
X212240000Y-306772364D02*
X212240000Y-309312364D01*
X351960000Y-315312364D02*
X351960000Y-317272364D01*
D10*
X359500000Y-309272364D02*
X359500000Y-309732364D01*
D39*
X357965288Y-311063364D02*
X356514712Y-311063364D01*
D40*
X219760000Y-315032364D02*
X217306519Y-312578883D01*
D10*
%TO.N,+12V*%
X111058000Y-250637364D02*
X109788000Y-250637364D01*
D40*
X214580000Y-314192364D02*
X209700000Y-309312364D01*
D10*
X112149000Y-249546364D02*
X112149000Y-243273421D01*
D40*
X215207761Y-314192364D02*
X214580000Y-314192364D01*
D10*
X112700057Y-242106621D02*
X110198000Y-239604564D01*
X115405008Y-228021364D02*
X115920348Y-228536704D01*
D39*
X138426536Y-209272364D02*
X139500000Y-209272364D01*
D10*
X110198000Y-231157321D02*
X113333957Y-228021364D01*
X109788000Y-250637364D02*
X109788000Y-251907364D01*
X112149000Y-243273421D02*
X112700057Y-242722364D01*
X112700057Y-242722364D02*
X112575029Y-242847393D01*
D40*
X214665568Y-314277932D02*
X215193329Y-314277932D01*
X214580000Y-314192364D02*
X214665568Y-314277932D01*
X217833329Y-316817932D02*
X215207761Y-314192364D01*
D10*
X115920348Y-229952016D02*
X114500000Y-231372364D01*
X113333957Y-228021364D02*
X115405008Y-228021364D01*
X115920348Y-228536704D02*
X115920348Y-229952016D01*
X112036000Y-249659364D02*
X111058000Y-250637364D01*
X112700057Y-242722364D02*
X112700057Y-242106621D01*
X110198000Y-239604564D02*
X110198000Y-231157321D01*
X112036000Y-249659364D02*
X112149000Y-249546364D01*
D39*
%TO.N,+3.3V*%
X138400000Y-186772364D02*
X140500000Y-186772364D01*
D40*
X354500000Y-317272364D02*
X354500000Y-315772364D01*
D10*
X179300000Y-172797365D02*
X179300000Y-171572364D01*
D40*
X216472762Y-311245126D02*
X215473880Y-310246244D01*
D39*
X338500000Y-315272364D02*
X338348000Y-315120364D01*
D40*
X222300000Y-314192364D02*
X219352762Y-311245126D01*
X222913329Y-314805693D02*
X222300000Y-314192364D01*
D10*
X179000000Y-171272364D02*
X179300000Y-171572364D01*
D40*
X354500000Y-315772364D02*
X355000000Y-315272364D01*
D10*
X328000000Y-315272364D02*
X328500000Y-315272364D01*
D40*
X338348000Y-315120364D02*
X224610897Y-315120364D01*
X222913329Y-316817932D02*
X222913329Y-314805693D01*
X224525329Y-315205932D02*
X222913329Y-316817932D01*
X219352762Y-311245126D02*
X216472762Y-311245126D01*
D10*
%TO.N,VCC_3V3*%
X214780000Y-306772364D02*
X214780000Y-309312364D01*
%TO.N,VCC_1V8*%
X179550000Y-180997364D02*
X179550000Y-183172364D01*
X217320000Y-306772364D02*
X214320000Y-303772364D01*
X214320000Y-303772364D02*
X213500000Y-303772364D01*
X217320000Y-306772364D02*
X217320000Y-309312364D01*
%TD*%
M02*
